<svg id="my-svg" width="100%" xmlns="http://www.w3.org/2000/svg" xmlns:xlink="http://www.w3.org/1999/xlink" class="flowchart" style="max-width: 925.194px; background-color: white;" viewBox="0 0 925.1943359375 174" role="graphics-document document" aria-roledescription="flowchart-v2"><style>#my-svg{font-family:"trebuchet ms",verdana,arial,sans-serif;font-size:16px;fill:#333;}@keyframes edge-animation-frame{from{stroke-dashoffset:0;}}@keyframes dash{to{stroke-dashoffset:0;}}#my-svg .edge-animation-slow{stroke-dasharray:9,5!important;stroke-dashoffset:900;animation:dash 50s linear infinite;stroke-linecap:round;}#my-svg .edge-animation-fast{stroke-dasharray:9,5!important;stroke-dashoffset:900;animation:dash 20s linear infinite;stroke-linecap:round;}#my-svg .error-icon{fill:#552222;}#my-svg .error-text{fill:#552222;stroke:#552222;}#my-svg .edge-thickness-normal{stroke-width:1px;}#my-svg .edge-thickness-thick{stroke-width:3.5px;}#my-svg .edge-pattern-solid{stroke-dasharray:0;}#my-svg .edge-thickness-invisible{stroke-width:0;fill:none;}#my-svg .edge-pattern-dashed{stroke-dasharray:3;}#my-svg .edge-pattern-dotted{stroke-dasharray:2;}#my-svg .marker{fill:#333333;stroke:#333333;}#my-svg .marker.cross{stroke:#333333;}#my-svg svg{font-family:"trebuchet ms",verdana,arial,sans-serif;font-size:16px;}#my-svg p{margin:0;}#my-svg .label{font-family:"trebuchet ms",verdana,arial,sans-serif;color:#333;}#my-svg .cluster-label text{fill:#333;}#my-svg .cluster-label span{color:#333;}#my-svg .cluster-label span p{background-color:transparent;}#my-svg .label text,#my-svg span{fill:#333;color:#333;}#my-svg .node rect,#my-svg .node circle,#my-svg .node ellipse,#my-svg .node polygon,#my-svg .node path{fill:#ECECFF;stroke:#9370DB;stroke-width:1px;}#my-svg .rough-node .label text,#my-svg .node .label text,#my-svg .image-shape .label,#my-svg .icon-shape .label{text-anchor:middle;}#my-svg .node .katex path{fill:#000;stroke:#000;stroke-width:1px;}#my-svg .rough-node .label,#my-svg .node .label,#my-svg .image-shape .label,#my-svg .icon-shape .label{text-align:center;}#my-svg .node.clickable{cursor:pointer;}#my-svg .root .anchor path{fill:#333333!important;stroke-width:0;stroke:#333333;}#my-svg .arrowheadPath{fill:#333333;}#my-svg .edgePath .path{stroke:#333333;stroke-width:2.0px;}#my-svg .flowchart-link{stroke:#333333;fill:none;}#my-svg .edgeLabel{background-color:rgba(232,232,232, 0.8);text-align:center;}#my-svg .edgeLabel p{background-color:rgba(232,232,232, 0.8);}#my-svg .edgeLabel rect{opacity:0.5;background-color:rgba(232,232,232, 0.8);fill:rgba(232,232,232, 0.8);}#my-svg .labelBkg{background-color:rgba(232, 232, 232, 0.5);}#my-svg .cluster rect{fill:#ffffde;stroke:#aaaa33;stroke-width:1px;}#my-svg .cluster text{fill:#333;}#my-svg .cluster span{color:#333;}#my-svg div.mermaidTooltip{position:absolute;text-align:center;max-width:200px;padding:2px;font-family:"trebuchet ms",verdana,arial,sans-serif;font-size:12px;background:hsl(80, 100%, 96.2745098039%);border:1px solid #aaaa33;border-radius:2px;pointer-events:none;z-index:100;}#my-svg .flowchartTitleText{text-anchor:middle;font-size:18px;fill:#333;}#my-svg rect.text{fill:none;stroke-width:0;}#my-svg .icon-shape,#my-svg .image-shape{background-color:rgba(232,232,232, 0.8);text-align:center;}#my-svg .icon-shape p,#my-svg .image-shape p{background-color:rgba(232,232,232, 0.8);padding:2px;}#my-svg .icon-shape rect,#my-svg .image-shape rect{opacity:0.5;background-color:rgba(232,232,232, 0.8);fill:rgba(232,232,232, 0.8);}#my-svg .label-icon{display:inline-block;height:1em;overflow:visible;vertical-align:-0.125em;}#my-svg .node .label-icon path{fill:currentColor;stroke:revert;stroke-width:revert;}#my-svg :root{--mermaid-font-family:"trebuchet ms",verdana,arial,sans-serif;}</style><g><marker id="my-svg_flowchart-v2-pointEnd" class="marker flowchart-v2" viewBox="0 0 10 10" refX="5" refY="5" markerUnits="userSpaceOnUse" markerWidth="8" markerHeight="8" orient="auto"><path d="M 0 0 L 10 5 L 0 10 z" class="arrowMarkerPath" style="stroke-width: 1; stroke-dasharray: 1, 0;"/></marker><marker id="my-svg_flowchart-v2-pointStart" class="marker flowchart-v2" viewBox="0 0 10 10" refX="4.5" refY="5" markerUnits="userSpaceOnUse" markerWidth="8" markerHeight="8" orient="auto"><path d="M 0 5 L 10 10 L 10 0 z" class="arrowMarkerPath" style="stroke-width: 1; stroke-dasharray: 1, 0;"/></marker><marker id="my-svg_flowchart-v2-circleEnd" class="marker flowchart-v2" viewBox="0 0 10 10" refX="11" refY="5" markerUnits="userSpaceOnUse" markerWidth="11" markerHeight="11" orient="auto"><circle cx="5" cy="5" r="5" class="arrowMarkerPath" style="stroke-width: 1; stroke-dasharray: 1, 0;"/></marker><marker id="my-svg_flowchart-v2-circleStart" class="marker flowchart-v2" viewBox="0 0 10 10" refX="-1" refY="5" markerUnits="userSpaceOnUse" markerWidth="11" markerHeight="11" orient="auto"><circle cx="5" cy="5" r="5" class="arrowMarkerPath" style="stroke-width: 1; stroke-dasharray: 1, 0;"/></marker><marker id="my-svg_flowchart-v2-crossEnd" class="marker cross flowchart-v2" viewBox="0 0 11 11" refX="12" refY="5.2" markerUnits="userSpaceOnUse" markerWidth="11" markerHeight="11" orient="auto"><path d="M 1,1 l 9,9 M 10,1 l -9,9" class="arrowMarkerPath" style="stroke-width: 2; stroke-dasharray: 1, 0;"/></marker><marker id="my-svg_flowchart-v2-crossStart" class="marker cross flowchart-v2" viewBox="0 0 11 11" refX="-1" refY="5.2" markerUnits="userSpaceOnUse" markerWidth="11" markerHeight="11" orient="auto"><path d="M 1,1 l 9,9 M 10,1 l -9,9" class="arrowMarkerPath" style="stroke-width: 2; stroke-dasharray: 1, 0;"/></marker><g class="root"><g class="clusters"/><g class="edgePaths"><path d="M75.621,87.5L79.704,87.417C83.787,87.333,91.954,87.167,99.537,87.083C107.121,87,114.121,87,117.621,87L121.121,87" id="L_Q_AD_0" class="edge-thickness-normal edge-pattern-solid edge-thickness-normal edge-pattern-solid flowchart-link" style=";" data-edge="true" data-et="edge" data-id="L_Q_AD_0" data-points="W3sieCI6NzUuNjIwNTg3NDMxODI2NywieSI6ODcuNTAwMDAwMDAwMDAwMDF9LHsieCI6MTAwLjEyMDU5MDIwOTk2MDk0LCJ5Ijo4N30seyJ4IjoxMjUuMTIwNTkwMjA5OTYwOTQsInkiOjg3fV0=" marker-end="url(#my-svg_flowchart-v2-pointEnd)"/><path d="M275.677,60L285.969,55.833C296.262,51.667,316.848,43.333,337.019,39.167C357.191,35,376.949,35,386.828,35L396.707,35" id="L_AD_BM_0" class="edge-thickness-normal edge-pattern-solid edge-thickness-normal edge-pattern-solid flowchart-link" style=";" data-edge="true" data-et="edge" data-id="L_AD_BM_0" data-points="W3sieCI6Mjc1LjY3Njc4MDExMzgwNzEsInkiOjYwfSx7IngiOjMzNy40MzMwOTAyMDk5NjA5NCwieSI6MzV9LHsieCI6NDAwLjcwNjUyNzcwOTk2MDk0LCJ5IjozNX1d" marker-end="url(#my-svg_flowchart-v2-pointEnd)"/><path d="M275.677,114L285.969,118.167C296.262,122.333,316.848,130.667,333.906,134.833C350.964,139,364.496,139,371.261,139L378.027,139" id="L_AD_SEM_0" class="edge-thickness-normal edge-pattern-solid edge-thickness-normal edge-pattern-solid flowchart-link" style=";" data-edge="true" data-et="edge" data-id="L_AD_SEM_0" data-points="W3sieCI6Mjc1LjY3Njc4MDExMzgwNzEsInkiOjExNH0seyJ4IjozMzcuNDMzMDkwMjA5OTYwOTQsInkiOjEzOX0seyJ4IjozODIuMDI2ODQwMjA5OTYwOTQsInkiOjEzOX1d" marker-end="url(#my-svg_flowchart-v2-pointEnd)"/><path d="M541.566,35L548.846,35C556.126,35,570.686,35,584.889,38.843C599.093,42.686,612.94,50.372,619.863,54.216L626.787,58.059" id="L_BM_RRF_0" class="edge-thickness-normal edge-pattern-solid edge-thickness-normal edge-pattern-solid flowchart-link" style=";" data-edge="true" data-et="edge" data-id="L_BM_RRF_0" data-points="W3sieCI6NTQxLjU2NTkwMjcwOTk2MDksInkiOjM1fSx7IngiOjU4NS4yNDU1OTAyMDk5NjA5LCJ5IjozNX0seyJ4Ijo2MzAuMjgzOTAxNTA4MDM3OCwieSI6NjB9XQ==" marker-end="url(#my-svg_flowchart-v2-pointEnd)"/><path d="M560.246,139L564.412,139C568.579,139,576.912,139,588.002,135.157C599.093,131.314,612.94,123.628,619.863,119.784L626.787,115.941" id="L_SEM_RRF_0" class="edge-thickness-normal edge-pattern-solid edge-thickness-normal edge-pattern-solid flowchart-link" style=";" data-edge="true" data-et="edge" data-id="L_SEM_RRF_0" data-points="W3sieCI6NTYwLjI0NTU5MDIwOTk2MDksInkiOjEzOX0seyJ4Ijo1ODUuMjQ1NTkwMjA5OTYwOSwieSI6MTM5fSx7IngiOjYzMC4yODM5MDE1MDgwMzc4LCJ5IjoxMTR9XQ==" marker-end="url(#my-svg_flowchart-v2-pointEnd)"/><path d="M747.605,87L751.772,87C755.938,87,764.272,87,772.022,87.07C779.772,87.141,786.939,87.281,790.522,87.351L794.106,87.422" id="L_RRF_TOP_0" class="edge-thickness-normal edge-pattern-solid edge-thickness-normal edge-pattern-solid flowchart-link" style=";" data-edge="true" data-et="edge" data-id="L_RRF_TOP_0" data-points="W3sieCI6NzQ3LjYwNDk2NTIwOTk2MDksInkiOjg3fSx7IngiOjc3Mi42MDQ5NjUyMDk5NjA5LCJ5Ijo4N30seyJ4Ijo3OTguMTA0OTY1MjA5OTU5LCJ5Ijo4Ny41fV0=" marker-end="url(#my-svg_flowchart-v2-pointEnd)"/></g><g class="edgeLabels"><g class="edgeLabel"><g class="label" data-id="L_Q_AD_0" transform="translate(0, 0)"></g></g><g class="edgeLabel" transform="translate(337.43309020996094, 35)"><g class="label" data-id="L_AD_BM_0" transform="translate(-19.59375, -12)"><text x="19.59" y="12.00" text-anchor="middle" dominant-baseline="middle" font-family="Arial, sans-serif" font-size="14" fill="#333">alpha</text></g></g><g class="edgeLabel" transform="translate(337.43309020996094, 139)"><g class="label" data-id="L_AD_SEM_0" transform="translate(-19.59375, -12)"><text x="19.59" y="12.00" text-anchor="middle" dominant-baseline="middle" font-family="Arial, sans-serif" font-size="14" fill="#333">alpha</text></g></g><g class="edgeLabel"><g class="label" data-id="L_BM_RRF_0" transform="translate(0, 0)"></g></g><g class="edgeLabel"><g class="label" data-id="L_SEM_RRF_0" transform="translate(0, 0)"></g></g><g class="edgeLabel"><g class="label" data-id="L_RRF_TOP_0" transform="translate(0, 0)"></g></g></g><g class="nodes"><g class="node default" id="flowchart-Q-0" transform="translate(41.56029510498047, 87)"><g class="basic label-container outer-path"><path d="M-14.0703125 -19.5 C-7.344765363999848 -19.5, -0.6192182279996956 -19.5, 14.0703125 -19.5 C14.0703125 -19.5, 14.070312499999998 -19.5, 14.070312499999998 -19.5 C14.533959477066864 -19.48513174387956, 14.997606454133729 -19.47026348775912, 15.3196817896239 -19.45993515863156 C15.624426922880595 -19.43053676213593, 15.92917205613729 -19.4011383656403, 16.563917152847864 -19.3399052695533 C16.819464002442146 -19.298590436706313, 17.075010852036428 -19.257275603859327, 17.79790575967676 -19.140403561325776 C18.085231610015565 -19.07482331096234, 18.372557460354376 -19.00924306059891, 19.01657688623539 -18.862249829261074 C19.394583059403228 -18.750059581259755, 19.77258923257106 -18.637869333258433, 20.214922751460602 -18.50658706670804 C20.682522644810597 -18.33450598350921, 21.150122538160588 -18.162424900310384, 21.388019095147794 -18.074876768247425 C21.763078388037325 -17.908849145023854, 22.13813768092686 -17.742821521800284, 22.53104541279238 -17.568892924097174 C22.868746279325965 -17.392714598334333, 23.20644714585955 -17.216536272571492, 23.639304764076783 -16.990714730406097 C23.86162710746651 -16.855941619332135, 24.083949450856235 -16.72116850825817, 24.708243073605697 -16.342718045390892 C25.014241677734304 -16.129266665616854, 25.32024028186291 -15.915815285842816, 25.733467844578712 -15.627565626425154 C25.942730583501998 -15.460684160849189, 26.15199332242528 -15.293802695273223, 26.71076620850187 -14.848196188198123 C26.900152465640232 -14.676200600350839, 27.089538722778595 -14.504205012503553, 27.636122236767985 -14.007812326905688 C27.95791985346029 -13.675529867595206, 28.279717470152594 -13.343247408284723, 28.505733442968648 -13.10986736009568 C28.692024147130205 -12.891039698746159, 28.87831485129176 -12.672212037396639, 29.316026408126582 -12.158051136245305 C29.56127136651268 -11.829445234283263, 29.806516324898784 -11.50083933232122, 30.063671464640635 -11.156274872382312 C30.24599568150131 -10.876175914376914, 30.428319898361988 -10.596076956371517, 30.745596378604247 -10.108655082055241 C30.968980507493814 -9.712013941115924, 31.192364636383385 -9.315372800176606, 31.3589989742735 -9.019496659696287 C31.512252020994463 -8.70126342909031, 31.665505067715422 -8.383030198484336, 31.90135864880834 -7.893275190886684 C32.06302263508864 -7.493962019213801, 32.22468662136894 -7.094648847540919, 32.370446729970325 -6.734618561215508 C32.50108737451505 -6.341149754606804, 32.63172801905978 -5.9476809479981005, 32.76433563421488 -5.548287939305138 C32.88438199423102 -5.090499140142056, 33.00442835424716 -4.632710340978973, 33.08140678754556 -4.339158212148133 C33.16774011423578 -3.8958548261489354, 33.254073440925985 -3.4525514401497377, 33.320357276581774 -3.1121979531509023 C33.35572157171795 -2.837919463544698, 33.39108586685412 -2.5636409739384938, 33.48020520250937 -1.872449005199798 C33.50622040445846 -1.4672412357495745, 33.53223560640756 -1.062033466299351, 33.56029371591342 -0.6250057626472757 C33.56029371591342 -0.333298747857191, 33.56029371591342 -0.041591733067106285, 33.56029371591342 0.625005762647271 C33.53025953616209 1.0928123554276916, 33.500225356410766 1.5606189482081123, 33.48020520250937 1.8724490051997846 C33.42131021392164 2.3292269065552262, 33.36241522533391 2.7860048079106683, 33.320357276581774 3.1121979531508885 C33.26031786528068 3.420487640847915, 33.20027845397959 3.7287773285449415, 33.08140678754556 4.339158212148129 C33.01543992215252 4.5907184601121305, 32.949473056759466 4.842278708076131, 32.76433563421489 5.548287939305125 C32.63979055894997 5.923397862440128, 32.51524548368504 6.29850778557513, 32.370446729970325 6.734618561215495 C32.22649811898832 7.0901744133981275, 32.0825495080063 7.44573026558076, 31.901358648808344 7.893275190886679 C31.771743677011546 8.16242345313885, 31.64212870521475 8.43157171539102, 31.358998974273504 9.019496659696284 C31.19995760497907 9.301890715563529, 31.04091623568463 9.584284771430774, 30.74559637860425 10.108655082055236 C30.52937568922654 10.440828124324137, 30.31315499984883 10.773001166593039, 30.06367146464064 11.156274872382301 C29.766912869100086 11.553904355142429, 29.470154273559526 11.951533837902554, 29.316026408126582 12.158051136245302 C29.07877783682364 12.436736807923877, 28.8415292655207 12.715422479602454, 28.50573344296866 13.10986736009567 C28.18538672523626 13.440651647109028, 27.865040007503865 13.771435934122385, 27.63612223676799 14.007812326905684 C27.432999289309485 14.192283213448812, 27.229876341850986 14.376754099991938, 26.710766208501887 14.848196188198111 C26.329114670370114 15.15255313368424, 25.947463132238337 15.456910079170369, 25.733467844578715 15.627565626425152 C25.420475277993724 15.845895691645012, 25.107482711408732 16.06422575686487, 24.708243073605708 16.34271804539089 C24.286996908749373 16.59807994604404, 23.865750743893035 16.853441846697198, 23.639304764076787 16.990714730406093 C23.219394016666886 17.209781898364167, 22.79948326925699 17.428849066322243, 22.531045412792388 17.56889292409717 C22.255260639787345 17.690974662241878, 21.979475866782302 17.813056400386586, 21.388019095147804 18.07487676824742 C21.14448297324286 18.164500312331676, 20.90094685133791 18.254123856415926, 20.214922751460616 18.506587066708033 C19.81036783762682 18.626656841581827, 19.40581292379303 18.74672661645562, 19.016576886235413 18.86224982926107 C18.651821228161026 18.945502927963435, 18.28706557008664 19.028756026665796, 17.797905759676766 19.140403561325773 C17.343612251972313 19.21385021255266, 16.88931874426786 19.287296863779545, 16.56391715284788 19.3399052695533 C16.29308038269993 19.366032567040598, 16.022243612551986 19.3921598645279, 15.3196817896239 19.45993515863156 C14.989704777394449 19.470516879152466, 14.659727765164996 19.481098599673373, 14.070312500000004 19.5 C14.070312500000002 19.5, 14.070312500000002 19.5, 14.0703125 19.5 C4.909852063986577 19.5, -4.250608372026846 19.5, -14.070312499999996 19.5 C-14.47093082755269 19.487152949991653, -14.871549155105384 19.47430589998331, -15.319681789623893 19.45993515863156 C-15.7614130241838 19.4173218776931, -16.20314425874371 19.37470859675464, -16.56391715284787 19.3399052695533 C-16.888708930763883 19.287395453697695, -17.213500708679895 19.234885637842087, -17.79790575967676 19.140403561325773 C-18.062894533446315 19.079921602926223, -18.327883307215874 19.019439644526674, -19.016576886235388 18.862249829261074 C-19.27632173884516 18.785158920435048, -19.536066591454926 18.708068011609026, -20.21492275146059 18.506587066708043 C-20.61417027068474 18.359660289029947, -21.013417789908882 18.21273351135185, -21.388019095147797 18.074876768247425 C-21.732798180359353 17.922253294732446, -22.077577265570913 17.769629821217467, -22.53104541279238 17.568892924097174 C-22.78929133994793 17.434166189314535, -23.04753726710348 17.299439454531896, -23.63930476407678 16.990714730406097 C-23.999141722323117 16.77257945168048, -24.358978680569457 16.55444417295486, -24.708243073605686 16.3427180453909 C-25.109248728033602 16.062993860116986, -25.510254382461518 15.783269674843071, -25.733467844578712 15.627565626425156 C-26.09774783760224 15.337062025886627, -26.46202783062576 15.046558425348097, -26.71076620850187 14.848196188198125 C-27.00985204774542 14.5765743423748, -27.30893788698897 14.304952496551472, -27.636122236767974 14.007812326905697 C-27.909310355190495 13.725723165472798, -28.182498473613013 13.443634004039902, -28.505733442968655 13.109867360095677 C-28.74069731052163 12.83386543144514, -28.975661178074603 12.557863502794604, -29.31602640812658 12.158051136245307 C-29.516990261212527 11.888777881293786, -29.71795411429848 11.619504626342264, -30.063671464640635 11.156274872382316 C-30.239155599437 10.886684117246908, -30.41463973423337 10.6170933621115, -30.745596378604244 10.108655082055249 C-30.870409423352452 9.887036882413533, -30.99522246810066 9.665418682771815, -31.3589989742735 9.019496659696289 C-31.571725378680725 8.577765729328787, -31.78445178308795 8.136034798961287, -31.90135864880834 7.893275190886686 C-32.051800811567915 7.521680140269194, -32.20224297432749 7.150085089651702, -32.370446729970325 6.73461856121551 C-32.48837993816943 6.379422528224787, -32.606313146368535 6.024226495234064, -32.76433563421488 5.5482879393051325 C-32.868242371679095 5.152046515889215, -32.9721491091433 4.755805092473297, -33.08140678754556 4.339158212148136 C-33.1582218433262 3.9447291355823224, -33.235036899106845 3.5503000590165095, -33.320357276581774 3.112197953150904 C-33.3807505594741 2.6437995770406406, -33.441143842366436 2.175401200930377, -33.48020520250937 1.872449005199809 C-33.50197023257215 1.5334410935559402, -33.52373526263493 1.194433181912071, -33.56029371591342 0.6250057626472781 C-33.56029371591342 0.33752053197658816, -33.56029371591342 0.05003530130589817, -33.56029371591342 -0.6250057626472687 C-33.529317398660716 -1.107486907491324, -33.498341081408014 -1.5899680523353796, -33.48020520250937 -1.8724490051997822 C-33.44554608227541 -2.141258297516914, -33.41088696204146 -2.4100675898340453, -33.320357276581774 -3.112197953150895 C-33.26730370409284 -3.3846168350050703, -33.214250131603904 -3.6570357168592458, -33.08140678754556 -4.339158212148126 C-32.96901587071983 -4.767753488536117, -32.856624953894105 -5.1963487649241085, -32.76433563421489 -5.548287939305123 C-32.681872158053686 -5.796654790732012, -32.599408681892484 -6.0450216421589005, -32.37044672997033 -6.734618561215485 C-32.19904371271317 -7.157987327692576, -32.02764069545601 -7.581356094169667, -31.901358648808344 -7.893275190886676 C-31.735329411671284 -8.238038454258362, -31.569300174534227 -8.582801717630048, -31.358998974273504 -9.019496659696282 C-31.180338258116173 -9.336726852592896, -31.00167754195884 -9.65395704548951, -30.745596378604247 -10.108655082055243 C-30.480591365443118 -10.515773946080648, -30.21558635228199 -10.92289281010605, -30.06367146464064 -11.156274872382308 C-29.913904092771396 -11.356949506598836, -29.764136720902147 -11.557624140815363, -29.316026408126586 -12.158051136245302 C-29.099555831974843 -12.412329792517863, -28.883085255823097 -12.666608448790425, -28.505733442968662 -13.10986736009567 C-28.16740286986229 -13.459221454284641, -27.829072296755914 -13.808575548473614, -27.636122236767996 -14.007812326905677 C-27.334030654925602 -14.282163908629682, -27.031939073083205 -14.556515490353688, -26.710766208501887 -14.848196188198107 C-26.486531278788032 -15.027017577502825, -26.262296349074173 -15.205838966807542, -25.73346784457872 -15.627565626425149 C-25.513110014463543 -15.781277709576775, -25.292752184348362 -15.934989792728402, -24.70824307360571 -16.342718045390885 C-24.426438415465725 -16.51354968522334, -24.144633757325735 -16.68438132505579, -23.63930476407679 -16.99071473040609 C-23.263653228957264 -17.186691895661657, -22.88800169383774 -17.38266906091722, -22.531045412792388 -17.56889292409717 C-22.13175211249345 -17.745648223524597, -21.732458812194512 -17.922403522952024, -21.388019095147804 -18.07487676824742 C-21.142618224084895 -18.165186557259357, -20.89721735302199 -18.25549634627129, -20.21492275146062 -18.506587066708033 C-19.878936390325382 -18.60630605506457, -19.54295002919014 -18.706025043421114, -19.016576886235413 -18.862249829261067 C-18.631853505392982 -18.95006043038367, -18.247130124550548 -19.03787103150627, -17.797905759676766 -19.140403561325773 C-17.53860788643965 -19.18232483058571, -17.279310013202537 -19.224246099845647, -16.563917152847882 -19.3399052695533 C-16.285990689103848 -19.36671650125521, -16.00806422535981 -19.39352773295712, -15.319681789623903 -19.45993515863156 C-14.940504837347968 -19.472094625467882, -14.56132788507203 -19.48425409230421, -14.070312500000005 -19.5 C-14.070312500000004 -19.5, -14.070312500000002 -19.5, -14.0703125 -19.5" stroke="none" stroke-width="0" fill="#ECECFF" style=""/><path d="M-14.0703125 -19.5 C-4.9729721608679025 -19.5, 4.124368178264195 -19.5, 14.0703125 -19.5 M-14.0703125 -19.5 C-4.269925988707106 -19.5, 5.530460522585788 -19.5, 14.0703125 -19.5 M14.0703125 -19.5 C14.0703125 -19.5, 14.0703125 -19.5, 14.070312499999998 -19.5 M14.0703125 -19.5 C14.0703125 -19.5, 14.070312499999998 -19.5, 14.070312499999998 -19.5 M14.070312499999998 -19.5 C14.542408605246207 -19.48486079678408, 15.014504710492414 -19.469721593568156, 15.3196817896239 -19.45993515863156 M14.070312499999998 -19.5 C14.424869782918883 -19.488630038040675, 14.779427065837767 -19.477260076081354, 15.3196817896239 -19.45993515863156 M15.3196817896239 -19.45993515863156 C15.703948909690528 -19.42286537170756, 16.088216029757156 -19.385795584783555, 16.563917152847864 -19.3399052695533 M15.3196817896239 -19.45993515863156 C15.654397740618897 -19.427645513393898, 15.989113691613895 -19.395355868156237, 16.563917152847864 -19.3399052695533 M16.563917152847864 -19.3399052695533 C16.87466601931567 -19.289665802716236, 17.185414885783473 -19.239426335879173, 17.79790575967676 -19.140403561325776 M16.563917152847864 -19.3399052695533 C17.025017896677348 -19.265358077180622, 17.486118640506835 -19.19081088480795, 17.79790575967676 -19.140403561325776 M17.79790575967676 -19.140403561325776 C18.112027997406834 -19.068707210403055, 18.426150235136905 -18.997010859480334, 19.01657688623539 -18.862249829261074 M17.79790575967676 -19.140403561325776 C18.270599872498277 -19.032514214691624, 18.7432939853198 -18.924624868057467, 19.01657688623539 -18.862249829261074 M19.01657688623539 -18.862249829261074 C19.289098270192127 -18.78136691299665, 19.561619654148863 -18.700483996732228, 20.214922751460602 -18.50658706670804 M19.01657688623539 -18.862249829261074 C19.36338909297713 -18.759317786754547, 19.710201299718868 -18.656385744248023, 20.214922751460602 -18.50658706670804 M20.214922751460602 -18.50658706670804 C20.513973582490856 -18.396533596493327, 20.81302441352111 -18.286480126278615, 21.388019095147794 -18.074876768247425 M20.214922751460602 -18.50658706670804 C20.589491760629034 -18.36874220885609, 20.964060769797467 -18.230897351004145, 21.388019095147794 -18.074876768247425 M21.388019095147794 -18.074876768247425 C21.841806318141884 -17.87399862574764, 22.295593541135972 -17.67312048324785, 22.53104541279238 -17.568892924097174 M21.388019095147794 -18.074876768247425 C21.78232182834479 -17.900330644836114, 22.176624561541786 -17.725784521424806, 22.53104541279238 -17.568892924097174 M22.53104541279238 -17.568892924097174 C22.860695163584346 -17.39691486025975, 23.190344914376315 -17.224936796422323, 23.639304764076783 -16.990714730406097 M22.53104541279238 -17.568892924097174 C22.903127102113945 -17.37477814510781, 23.275208791435507 -17.18066336611845, 23.639304764076783 -16.990714730406097 M23.639304764076783 -16.990714730406097 C23.934218977570445 -16.811936001077946, 24.22913319106411 -16.633157271749795, 24.708243073605697 -16.342718045390892 M23.639304764076783 -16.990714730406097 C23.982775968914964 -16.782500467572344, 24.32624717375315 -16.57428620473859, 24.708243073605697 -16.342718045390892 M24.708243073605697 -16.342718045390892 C25.00482255365175 -16.135837038829536, 25.301402033697798 -15.928956032268179, 25.733467844578712 -15.627565626425154 M24.708243073605697 -16.342718045390892 C25.09503794133886 -16.072906689740197, 25.481832809072017 -15.803095334089504, 25.733467844578712 -15.627565626425154 M25.733467844578712 -15.627565626425154 C25.96937511720542 -15.439435854261529, 26.205282389832128 -15.251306082097903, 26.71076620850187 -14.848196188198123 M25.733467844578712 -15.627565626425154 C26.098478726859092 -15.336479161154065, 26.46348960913947 -15.045392695882974, 26.71076620850187 -14.848196188198123 M26.71076620850187 -14.848196188198123 C27.027811138830703 -14.560264371022656, 27.344856069159537 -14.272332553847187, 27.636122236767985 -14.007812326905688 M26.71076620850187 -14.848196188198123 C27.072707050929147 -14.51949109153559, 27.434647893356424 -14.190785994873057, 27.636122236767985 -14.007812326905688 M27.636122236767985 -14.007812326905688 C27.917071854870553 -13.717708779822164, 28.19802147297312 -13.427605232738639, 28.505733442968648 -13.10986736009568 M27.636122236767985 -14.007812326905688 C27.86959459335018 -13.766732950297612, 28.103066949932373 -13.525653573689537, 28.505733442968648 -13.10986736009568 M28.505733442968648 -13.10986736009568 C28.772430970467823 -12.796589268775932, 29.039128497967 -12.483311177456184, 29.316026408126582 -12.158051136245305 M28.505733442968648 -13.10986736009568 C28.675182455566688 -12.910822907976064, 28.844631468164728 -12.711778455856445, 29.316026408126582 -12.158051136245305 M29.316026408126582 -12.158051136245305 C29.55751581031805 -11.83447733744586, 29.799005212509524 -11.510903538646414, 30.063671464640635 -11.156274872382312 M29.316026408126582 -12.158051136245305 C29.589689667896778 -11.79136729938909, 29.863352927666973 -11.424683462532874, 30.063671464640635 -11.156274872382312 M30.063671464640635 -11.156274872382312 C30.268925832959397 -10.840949044129479, 30.474180201278163 -10.525623215876646, 30.745596378604247 -10.108655082055241 M30.063671464640635 -11.156274872382312 C30.24887922061916 -10.871746023953229, 30.434086976597683 -10.587217175524145, 30.745596378604247 -10.108655082055241 M30.745596378604247 -10.108655082055241 C30.881132429376912 -9.867997099395001, 31.016668480149576 -9.627339116734762, 31.3589989742735 -9.019496659696287 M30.745596378604247 -10.108655082055241 C30.942177759969034 -9.759604933418661, 31.138759141333825 -9.410554784782082, 31.3589989742735 -9.019496659696287 M31.3589989742735 -9.019496659696287 C31.55337568376798 -8.615869263435673, 31.747752393262463 -8.21224186717506, 31.90135864880834 -7.893275190886684 M31.3589989742735 -9.019496659696287 C31.570639864810346 -8.580019822106904, 31.78228075534719 -8.14054298451752, 31.90135864880834 -7.893275190886684 M31.90135864880834 -7.893275190886684 C32.05853593280772 -7.505044260592153, 32.2157132168071 -7.116813330297623, 32.370446729970325 -6.734618561215508 M31.90135864880834 -7.893275190886684 C32.057319959378546 -7.5080477384714674, 32.21328126994875 -7.122820286056251, 32.370446729970325 -6.734618561215508 M32.370446729970325 -6.734618561215508 C32.49337128068355 -6.364389399834693, 32.61629583139677 -5.994160238453879, 32.76433563421488 -5.548287939305138 M32.370446729970325 -6.734618561215508 C32.484792863910286 -6.3902262243706565, 32.59913899785025 -6.045833887525804, 32.76433563421488 -5.548287939305138 M32.76433563421488 -5.548287939305138 C32.883718573798596 -5.093029049779124, 33.00310151338231 -4.63777016025311, 33.08140678754556 -4.339158212148133 M32.76433563421488 -5.548287939305138 C32.866545143116056 -5.158518783983589, 32.96875465201723 -4.768749628662041, 33.08140678754556 -4.339158212148133 M33.08140678754556 -4.339158212148133 C33.16288713785516 -3.9207738341864826, 33.244367488164755 -3.502389456224832, 33.320357276581774 -3.1121979531509023 M33.08140678754556 -4.339158212148133 C33.14865589696221 -3.9938482483979323, 33.21590500637886 -3.648538284647731, 33.320357276581774 -3.1121979531509023 M33.320357276581774 -3.1121979531509023 C33.35430760703457 -2.8488858944100515, 33.388257937487374 -2.5855738356692006, 33.48020520250937 -1.872449005199798 M33.320357276581774 -3.1121979531509023 C33.381046263368276 -2.641506156030747, 33.441735250154785 -2.170814358910592, 33.48020520250937 -1.872449005199798 M33.48020520250937 -1.872449005199798 C33.499609055168264 -1.570218337529517, 33.51901290782716 -1.267987669859236, 33.56029371591342 -0.6250057626472757 M33.48020520250937 -1.872449005199798 C33.50045363624544 -1.55706330551895, 33.52070206998151 -1.2416776058381023, 33.56029371591342 -0.6250057626472757 M33.56029371591342 -0.6250057626472757 C33.56029371591342 -0.247732437051003, 33.56029371591342 0.12954088854526968, 33.56029371591342 0.625005762647271 M33.56029371591342 -0.6250057626472757 C33.56029371591342 -0.15150727881271558, 33.56029371591342 0.32199120502184453, 33.56029371591342 0.625005762647271 M33.56029371591342 0.625005762647271 C33.54171617681956 0.9143659295536894, 33.52313863772571 1.2037260964601078, 33.48020520250937 1.8724490051997846 M33.56029371591342 0.625005762647271 C33.53594894533912 1.0041952150870312, 33.51160417476483 1.3833846675267913, 33.48020520250937 1.8724490051997846 M33.48020520250937 1.8724490051997846 C33.43927136439098 2.1899237703453656, 33.39833752627259 2.507398535490946, 33.320357276581774 3.1121979531508885 M33.48020520250937 1.8724490051997846 C33.445273104932234 2.143375455885122, 33.4103410073551 2.4143019065704596, 33.320357276581774 3.1121979531508885 M33.320357276581774 3.1121979531508885 C33.23200545660984 3.5658658755430266, 33.1436536366379 4.019533797935164, 33.08140678754556 4.339158212148129 M33.320357276581774 3.1121979531508885 C33.2522000900301 3.462170701067257, 33.18404290347843 3.812143448983626, 33.08140678754556 4.339158212148129 M33.08140678754556 4.339158212148129 C33.00571527960184 4.627802736844609, 32.930023771658114 4.91644726154109, 32.76433563421489 5.548287939305125 M33.08140678754556 4.339158212148129 C33.00224871805033 4.641022238457778, 32.9230906485551 4.942886264767428, 32.76433563421489 5.548287939305125 M32.76433563421489 5.548287939305125 C32.66469926163043 5.8483768186293785, 32.565062889045976 6.1484656979536325, 32.370446729970325 6.734618561215495 M32.76433563421489 5.548287939305125 C32.650471014238114 5.891230032811679, 32.53660639426134 6.234172126318232, 32.370446729970325 6.734618561215495 M32.370446729970325 6.734618561215495 C32.20386687900737 7.14607401369631, 32.037287028044425 7.557529466177126, 31.901358648808344 7.893275190886679 M32.370446729970325 6.734618561215495 C32.209230482032666 7.132825810525629, 32.04801423409501 7.531033059835763, 31.901358648808344 7.893275190886679 M31.901358648808344 7.893275190886679 C31.77441061893253 8.156885491176507, 31.647462589056722 8.420495791466333, 31.358998974273504 9.019496659696284 M31.901358648808344 7.893275190886679 C31.71444230197693 8.281410984451247, 31.527525955145517 8.669546778015814, 31.358998974273504 9.019496659696284 M31.358998974273504 9.019496659696284 C31.139244636183996 9.40969273951392, 30.919490298094487 9.799888819331557, 30.74559637860425 10.108655082055236 M31.358998974273504 9.019496659696284 C31.14912734533237 9.392144988688162, 30.939255716391237 9.764793317680041, 30.74559637860425 10.108655082055236 M30.74559637860425 10.108655082055236 C30.552062636235743 10.40597488141973, 30.35852889386723 10.703294680784223, 30.06367146464064 11.156274872382301 M30.74559637860425 10.108655082055236 C30.5103419737703 10.470069022533172, 30.275087568936343 10.831482963011107, 30.06367146464064 11.156274872382301 M30.06367146464064 11.156274872382301 C29.908452785859446 11.364253761236565, 29.75323410707825 11.57223265009083, 29.316026408126582 12.158051136245302 M30.06367146464064 11.156274872382301 C29.809538731980982 11.496789582178021, 29.55540599932132 11.837304291973743, 29.316026408126582 12.158051136245302 M29.316026408126582 12.158051136245302 C29.092753034407348 12.420320745630784, 28.869479660688114 12.682590355016268, 28.50573344296866 13.10986736009567 M29.316026408126582 12.158051136245302 C29.114483925797796 12.394794404080814, 28.912941443469013 12.631537671916327, 28.50573344296866 13.10986736009567 M28.50573344296866 13.10986736009567 C28.19230634619817 13.43350657035441, 27.87887924942768 13.75714578061315, 27.63612223676799 14.007812326905684 M28.50573344296866 13.10986736009567 C28.20523659232354 13.420155029637014, 27.904739741678426 13.730442699178358, 27.63612223676799 14.007812326905684 M27.63612223676799 14.007812326905684 C27.374190588443252 14.245691719582569, 27.11225894011851 14.483571112259453, 26.710766208501887 14.848196188198111 M27.63612223676799 14.007812326905684 C27.326312501524743 14.289173331337196, 27.016502766281494 14.570534335768707, 26.710766208501887 14.848196188198111 M26.710766208501887 14.848196188198111 C26.35197481435529 15.13432277719004, 25.993183420208695 15.420449366181968, 25.733467844578715 15.627565626425152 M26.710766208501887 14.848196188198111 C26.506411761212373 15.01116342181127, 26.30205731392286 15.17413065542443, 25.733467844578715 15.627565626425152 M25.733467844578715 15.627565626425152 C25.33922098017656 15.902575172360404, 24.9449741157744 16.177584718295655, 24.708243073605708 16.34271804539089 M25.733467844578715 15.627565626425152 C25.46533318383982 15.81460475839422, 25.19719852310093 16.001643890363287, 24.708243073605708 16.34271804539089 M24.708243073605708 16.34271804539089 C24.31518451658095 16.58099245252777, 23.922125959556187 16.81926685966465, 23.639304764076787 16.990714730406093 M24.708243073605708 16.34271804539089 C24.3026381166035 16.58859815392493, 23.89703315960129 16.834478262458973, 23.639304764076787 16.990714730406093 M23.639304764076787 16.990714730406093 C23.27262848143459 17.182009512193158, 22.90595219879239 17.373304293980226, 22.531045412792388 17.56889292409717 M23.639304764076787 16.990714730406093 C23.321396148755078 17.156567451389243, 23.003487533433365 17.322420172372393, 22.531045412792388 17.56889292409717 M22.531045412792388 17.56889292409717 C22.299779404275554 17.671267525805174, 22.06851339575872 17.77364212751318, 21.388019095147804 18.07487676824742 M22.531045412792388 17.56889292409717 C22.10702876448976 17.75659251629377, 21.68301211618713 17.94429210849037, 21.388019095147804 18.07487676824742 M21.388019095147804 18.07487676824742 C20.94509876389521 18.237875544459033, 20.502178432642616 18.40087432067065, 20.214922751460616 18.506587066708033 M21.388019095147804 18.07487676824742 C20.9820370446761 18.224281915677942, 20.576054994204398 18.373687063108463, 20.214922751460616 18.506587066708033 M20.214922751460616 18.506587066708033 C19.812756581666658 18.62594787488958, 19.410590411872697 18.745308683071123, 19.016576886235413 18.86224982926107 M20.214922751460616 18.506587066708033 C19.79093713163671 18.632423773125836, 19.366951511812804 18.75826047954364, 19.016576886235413 18.86224982926107 M19.016576886235413 18.86224982926107 C18.640045419330374 18.948190679484696, 18.263513952425335 19.034131529708322, 17.797905759676766 19.140403561325773 M19.016576886235413 18.86224982926107 C18.6729855951916 18.940672299299106, 18.329394304147787 19.019094769337144, 17.797905759676766 19.140403561325773 M17.797905759676766 19.140403561325773 C17.427603043013942 19.20027123281536, 17.05730032635112 19.26013890430495, 16.56391715284788 19.3399052695533 M17.797905759676766 19.140403561325773 C17.549060493534924 19.180634934131724, 17.300215227393082 19.220866306937676, 16.56391715284788 19.3399052695533 M16.56391715284788 19.3399052695533 C16.293176327880087 19.36602331132446, 16.022435502912295 19.39214135309562, 15.3196817896239 19.45993515863156 M16.56391715284788 19.3399052695533 C16.266601773099662 19.36858692666355, 15.969286393351444 19.3972685837738, 15.3196817896239 19.45993515863156 M15.3196817896239 19.45993515863156 C14.880361354287981 19.47402330990743, 14.44104091895206 19.4881114611833, 14.070312500000004 19.5 M15.3196817896239 19.45993515863156 C14.967421596967256 19.471231457377186, 14.615161404310612 19.482527756122817, 14.070312500000004 19.5 M14.070312500000004 19.5 C14.070312500000002 19.5, 14.070312500000002 19.5, 14.0703125 19.5 M14.070312500000004 19.5 C14.070312500000002 19.5, 14.070312500000002 19.5, 14.0703125 19.5 M14.0703125 19.5 C3.0090160372352805 19.5, -8.052280425529439 19.5, -14.070312499999996 19.5 M14.0703125 19.5 C8.04097873014312 19.5, 2.011644960286242 19.5, -14.070312499999996 19.5 M-14.070312499999996 19.5 C-14.474387683020177 19.487042095365172, -14.878462866040358 19.47408419073035, -15.319681789623893 19.45993515863156 M-14.070312499999996 19.5 C-14.567987511620492 19.484040531042975, -15.065662523240988 19.46808106208595, -15.319681789623893 19.45993515863156 M-15.319681789623893 19.45993515863156 C-15.572127838880991 19.43558199187052, -15.82457388813809 19.411228825109482, -16.56391715284787 19.3399052695533 M-15.319681789623893 19.45993515863156 C-15.670215259627813 19.42611961635846, -16.020748729631734 19.392304074085356, -16.56391715284787 19.3399052695533 M-16.56391715284787 19.3399052695533 C-16.93468667093228 19.27996212922997, -17.305456189016684 19.220018988906638, -17.79790575967676 19.140403561325773 M-16.56391715284787 19.3399052695533 C-16.9115049499072 19.28370997010837, -17.25909274696653 19.227514670663442, -17.79790575967676 19.140403561325773 M-17.79790575967676 19.140403561325773 C-18.211675559549352 19.045963304605134, -18.62544535942195 18.951523047884496, -19.016576886235388 18.862249829261074 M-17.79790575967676 19.140403561325773 C-18.097812074494794 19.07195190204016, -18.397718389312825 19.003500242754544, -19.016576886235388 18.862249829261074 M-19.016576886235388 18.862249829261074 C-19.396109491619782 18.749606544190286, -19.77564209700418 18.636963259119497, -20.21492275146059 18.506587066708043 M-19.016576886235388 18.862249829261074 C-19.347328957750467 18.76408435058845, -19.67808102926554 18.665918871915828, -20.21492275146059 18.506587066708043 M-20.21492275146059 18.506587066708043 C-20.622504339867373 18.356593274531445, -21.030085928274154 18.20659948235485, -21.388019095147797 18.074876768247425 M-20.21492275146059 18.506587066708043 C-20.613403777233014 18.35994236570557, -21.011884803005433 18.213297664703095, -21.388019095147797 18.074876768247425 M-21.388019095147797 18.074876768247425 C-21.815110704251907 17.88581598211948, -22.242202313356014 17.69675519599154, -22.53104541279238 17.568892924097174 M-21.388019095147797 18.074876768247425 C-21.67877544573091 17.946167556824975, -21.96953179631402 17.817458345402525, -22.53104541279238 17.568892924097174 M-22.53104541279238 17.568892924097174 C-22.79158359173915 17.432970323023312, -23.052121770685925 17.297047721949447, -23.63930476407678 16.990714730406097 M-22.53104541279238 17.568892924097174 C-22.79813770661517 17.429551045490605, -23.065230000437957 17.290209166884036, -23.63930476407678 16.990714730406097 M-23.63930476407678 16.990714730406097 C-23.986742304710333 16.780096051504415, -24.33417984534389 16.569477372602734, -24.708243073605686 16.3427180453909 M-23.63930476407678 16.990714730406097 C-23.94666209315147 16.804392911288865, -24.254019422226158 16.618071092171636, -24.708243073605686 16.3427180453909 M-24.708243073605686 16.3427180453909 C-24.982841234608713 16.15117025543799, -25.25743939561174 15.959622465485083, -25.733467844578712 15.627565626425156 M-24.708243073605686 16.3427180453909 C-25.03656844705782 16.113692477847035, -25.364893820509952 15.884666910303173, -25.733467844578712 15.627565626425156 M-25.733467844578712 15.627565626425156 C-26.019400997304885 15.399541546126786, -26.305334150031054 15.171517465828414, -26.71076620850187 14.848196188198125 M-25.733467844578712 15.627565626425156 C-26.04023590490972 15.382926261752102, -26.347003965240734 15.13828689707905, -26.71076620850187 14.848196188198125 M-26.71076620850187 14.848196188198125 C-27.07165571814411 14.520445884154219, -27.432545227786353 14.192695580110312, -27.636122236767974 14.007812326905697 M-26.71076620850187 14.848196188198125 C-26.907493244346284 14.669533899356363, -27.104220280190702 14.490871610514601, -27.636122236767974 14.007812326905697 M-27.636122236767974 14.007812326905697 C-27.954852268582712 13.678697400834707, -28.27358230039745 13.349582474763718, -28.505733442968655 13.109867360095677 M-27.636122236767974 14.007812326905697 C-27.926414390112363 13.708061845148585, -28.216706543456755 13.408311363391473, -28.505733442968655 13.109867360095677 M-28.505733442968655 13.109867360095677 C-28.732804424147368 12.843136864898304, -28.95987540532608 12.57640636970093, -29.31602640812658 12.158051136245307 M-28.505733442968655 13.109867360095677 C-28.723527413919747 12.854034168988505, -28.941321384870836 12.598200977881332, -29.31602640812658 12.158051136245307 M-29.31602640812658 12.158051136245307 C-29.563158138979187 11.826917131066654, -29.810289869831795 11.495783125888002, -30.063671464640635 11.156274872382316 M-29.31602640812658 12.158051136245307 C-29.53687269151099 11.862137236020512, -29.757718974895397 11.56622333579572, -30.063671464640635 11.156274872382316 M-30.063671464640635 11.156274872382316 C-30.301801254749495 10.790443567973062, -30.53993104485836 10.42461226356381, -30.745596378604244 10.108655082055249 M-30.063671464640635 11.156274872382316 C-30.287604177582125 10.812254090951157, -30.51153689052362 10.468233309519997, -30.745596378604244 10.108655082055249 M-30.745596378604244 10.108655082055249 C-30.98542982378916 9.682806514359648, -31.225263268974075 9.256957946664047, -31.3589989742735 9.019496659696289 M-30.745596378604244 10.108655082055249 C-30.90459980208647 9.826328402820012, -31.0636032255687 9.544001723584776, -31.3589989742735 9.019496659696289 M-31.3589989742735 9.019496659696289 C-31.49691683801521 8.733107264667082, -31.63483470175692 8.446717869637874, -31.90135864880834 7.893275190886686 M-31.3589989742735 9.019496659696289 C-31.538703163902692 8.64633706487758, -31.718407353531884 8.27317747005887, -31.90135864880834 7.893275190886686 M-31.90135864880834 7.893275190886686 C-32.03018892150554 7.575061926560722, -32.15901919420274 7.256848662234759, -32.370446729970325 6.73461856121551 M-31.90135864880834 7.893275190886686 C-32.03156254501978 7.571669049923342, -32.16176644123122 7.250062908959999, -32.370446729970325 6.73461856121551 M-32.370446729970325 6.73461856121551 C-32.472087344835124 6.428493223475492, -32.57372795969992 6.122367885735473, -32.76433563421488 5.5482879393051325 M-32.370446729970325 6.73461856121551 C-32.52433988759115 6.271116890006431, -32.678233045211975 5.807615218797353, -32.76433563421488 5.5482879393051325 M-32.76433563421488 5.5482879393051325 C-32.85263459996173 5.211565713898551, -32.94093356570859 4.87484348849197, -33.08140678754556 4.339158212148136 M-32.76433563421488 5.5482879393051325 C-32.87129400759501 5.140409305554435, -32.97825238097514 4.7325306718037385, -33.08140678754556 4.339158212148136 M-33.08140678754556 4.339158212148136 C-33.17696779537535 3.8484726337683144, -33.27252880320514 3.357787055388493, -33.320357276581774 3.112197953150904 M-33.08140678754556 4.339158212148136 C-33.13507152965769 4.06360110344964, -33.188736271769805 3.7880439947511446, -33.320357276581774 3.112197953150904 M-33.320357276581774 3.112197953150904 C-33.36890283644147 2.735688177284184, -33.41744839630117 2.359178401417464, -33.48020520250937 1.872449005199809 M-33.320357276581774 3.112197953150904 C-33.37685584383735 2.6740062224207506, -33.433354411092914 2.235814491690597, -33.48020520250937 1.872449005199809 M-33.48020520250937 1.872449005199809 C-33.510941038922226 1.3937135435488728, -33.54167687533509 0.9149780818979365, -33.56029371591342 0.6250057626472781 M-33.48020520250937 1.872449005199809 C-33.509290171525016 1.4194271358166635, -33.538375140540666 0.9664052664335178, -33.56029371591342 0.6250057626472781 M-33.56029371591342 0.6250057626472781 C-33.56029371591342 0.32546918572460315, -33.56029371591342 0.02593260880192816, -33.56029371591342 -0.6250057626472687 M-33.56029371591342 0.6250057626472781 C-33.56029371591342 0.30677743024941345, -33.56029371591342 -0.011450902148451236, -33.56029371591342 -0.6250057626472687 M-33.56029371591342 -0.6250057626472687 C-33.54389405083938 -0.8804437837468136, -33.52749438576534 -1.1358818048463586, -33.48020520250937 -1.8724490051997822 M-33.56029371591342 -0.6250057626472687 C-33.530375135268315 -1.0910118060383835, -33.500456554623206 -1.5570178494294982, -33.48020520250937 -1.8724490051997822 M-33.48020520250937 -1.8724490051997822 C-33.44678609741057 -2.131640984997281, -33.41336699231178 -2.39083296479478, -33.320357276581774 -3.112197953150895 M-33.48020520250937 -1.8724490051997822 C-33.427242128892296 -2.2832201454319465, -33.374279055275224 -2.693991285664111, -33.320357276581774 -3.112197953150895 M-33.320357276581774 -3.112197953150895 C-33.271871816586014 -3.3611605428235176, -33.22338635659026 -3.61012313249614, -33.08140678754556 -4.339158212148126 M-33.320357276581774 -3.112197953150895 C-33.23175426066508 -3.5671557136290857, -33.14315124474838 -4.022113474107276, -33.08140678754556 -4.339158212148126 M-33.08140678754556 -4.339158212148126 C-32.96936505191562 -4.766421909300507, -32.85732331628567 -5.193685606452887, -32.76433563421489 -5.548287939305123 M-33.08140678754556 -4.339158212148126 C-33.007953039668564 -4.619269187858832, -32.93449929179157 -4.899380163569537, -32.76433563421489 -5.548287939305123 M-32.76433563421489 -5.548287939305123 C-32.65722663198822 -5.870883188509871, -32.55011762976156 -6.193478437714619, -32.37044672997033 -6.734618561215485 M-32.76433563421489 -5.548287939305123 C-32.63862290171563 -5.926914659989036, -32.51291016921637 -6.305541380672948, -32.37044672997033 -6.734618561215485 M-32.37044672997033 -6.734618561215485 C-32.18619547615847 -7.189722720386453, -32.001944222346594 -7.644826879557422, -31.901358648808344 -7.893275190886676 M-32.37044672997033 -6.734618561215485 C-32.223423874174536 -7.097767857524641, -32.076401018378746 -7.460917153833796, -31.901358648808344 -7.893275190886676 M-31.901358648808344 -7.893275190886676 C-31.73158744391048 -8.245808730378956, -31.561816239012618 -8.598342269871235, -31.358998974273504 -9.019496659696282 M-31.901358648808344 -7.893275190886676 C-31.721855966229633 -8.266016352003502, -31.54235328365092 -8.638757513120328, -31.358998974273504 -9.019496659696282 M-31.358998974273504 -9.019496659696282 C-31.165807525123913 -9.362527640416918, -30.972616075974322 -9.705558621137556, -30.745596378604247 -10.108655082055243 M-31.358998974273504 -9.019496659696282 C-31.204956436735902 -9.293014783592666, -31.050913899198296 -9.56653290748905, -30.745596378604247 -10.108655082055243 M-30.745596378604247 -10.108655082055243 C-30.519609659681098 -10.455831368252062, -30.293622940757952 -10.80300765444888, -30.06367146464064 -11.156274872382308 M-30.745596378604247 -10.108655082055243 C-30.509089610286775 -10.471992989150545, -30.272582841969307 -10.835330896245848, -30.06367146464064 -11.156274872382308 M-30.06367146464064 -11.156274872382308 C-29.865782235150615 -11.421428411819265, -29.667893005660588 -11.686581951256223, -29.316026408126586 -12.158051136245302 M-30.06367146464064 -11.156274872382308 C-29.769478333593103 -11.550466866440411, -29.475285202545564 -11.944658860498514, -29.316026408126586 -12.158051136245302 M-29.316026408126586 -12.158051136245302 C-29.018219906469692 -12.507871598761483, -28.7204134048128 -12.857692061277664, -28.505733442968662 -13.10986736009567 M-29.316026408126586 -12.158051136245302 C-29.009365823731073 -12.518272108157843, -28.702705239335565 -12.878493080070385, -28.505733442968662 -13.10986736009567 M-28.505733442968662 -13.10986736009567 C-28.26764932692486 -13.355708756980347, -28.02956521088106 -13.601550153865025, -27.636122236767996 -14.007812326905677 M-28.505733442968662 -13.10986736009567 C-28.326278075682048 -13.29516976037876, -28.146822708395433 -13.480472160661849, -27.636122236767996 -14.007812326905677 M-27.636122236767996 -14.007812326905677 C-27.405512776084525 -14.217245737506433, -27.174903315401053 -14.42667914810719, -26.710766208501887 -14.848196188198107 M-27.636122236767996 -14.007812326905677 C-27.43446024686119 -14.190956410455172, -27.232798256954382 -14.374100494004667, -26.710766208501887 -14.848196188198107 M-26.710766208501887 -14.848196188198107 C-26.440693334644564 -15.063572118158318, -26.17062046078724 -15.278948048118528, -25.73346784457872 -15.627565626425149 M-26.710766208501887 -14.848196188198107 C-26.46064461913268 -15.047661499705024, -26.210523029763472 -15.247126811211942, -25.73346784457872 -15.627565626425149 M-25.73346784457872 -15.627565626425149 C-25.45444187979308 -15.82220206062027, -25.175415915007445 -16.016838494815392, -24.70824307360571 -16.342718045390885 M-25.73346784457872 -15.627565626425149 C-25.361335770823896 -15.88714885173868, -24.989203697069073 -16.14673207705221, -24.70824307360571 -16.342718045390885 M-24.70824307360571 -16.342718045390885 C-24.42475052484855 -16.514572894434615, -24.14125797609139 -16.686427743478344, -23.63930476407679 -16.99071473040609 M-24.70824307360571 -16.342718045390885 C-24.345742290476547 -16.562468150414844, -23.983241507347383 -16.782218255438803, -23.63930476407679 -16.99071473040609 M-23.63930476407679 -16.99071473040609 C-23.30426130615636 -17.165506687797603, -22.969217848235928 -17.340298645189115, -22.531045412792388 -17.56889292409717 M-23.63930476407679 -16.99071473040609 C-23.2540724835167 -17.19169016442124, -22.86884020295661 -17.392665598436384, -22.531045412792388 -17.56889292409717 M-22.531045412792388 -17.56889292409717 C-22.121343543938387 -17.750255788064706, -21.711641675084383 -17.931618652032245, -21.388019095147804 -18.07487676824742 M-22.531045412792388 -17.56889292409717 C-22.29729688857284 -17.672366461865554, -22.06354836435329 -17.77583999963394, -21.388019095147804 -18.07487676824742 M-21.388019095147804 -18.07487676824742 C-20.992856545079864 -18.220300239514994, -20.597693995011923 -18.365723710782564, -20.21492275146062 -18.506587066708033 M-21.388019095147804 -18.07487676824742 C-21.093603931882797 -18.18322426987288, -20.799188768617785 -18.291571771498337, -20.21492275146062 -18.506587066708033 M-20.21492275146062 -18.506587066708033 C-19.884132936562693 -18.604763747418566, -19.553343121664767 -18.7029404281291, -19.016576886235413 -18.862249829261067 M-20.21492275146062 -18.506587066708033 C-19.763066585812975 -18.64069560483084, -19.311210420165335 -18.774804142953645, -19.016576886235413 -18.862249829261067 M-19.016576886235413 -18.862249829261067 C-18.6713808584004 -18.941038569999808, -18.326184830565392 -19.019827310738552, -17.797905759676766 -19.140403561325773 M-19.016576886235413 -18.862249829261067 C-18.607490507579676 -18.955621125651138, -18.19840412892394 -19.04899242204121, -17.797905759676766 -19.140403561325773 M-17.797905759676766 -19.140403561325773 C-17.53294915110207 -19.18323969103094, -17.267992542527374 -19.226075820736114, -16.563917152847882 -19.3399052695533 M-17.797905759676766 -19.140403561325773 C-17.310945762904165 -19.21913147717279, -16.823985766131564 -19.29785939301981, -16.563917152847882 -19.3399052695533 M-16.563917152847882 -19.3399052695533 C-16.220417652895712 -19.373042253195095, -15.87691815294354 -19.40617923683689, -15.319681789623903 -19.45993515863156 M-16.563917152847882 -19.3399052695533 C-16.183140059912226 -19.376638377757345, -15.80236296697657 -19.413371485961395, -15.319681789623903 -19.45993515863156 M-15.319681789623903 -19.45993515863156 C-15.049102342116193 -19.468612114862186, -14.778522894608482 -19.477289071092816, -14.070312500000005 -19.5 M-15.319681789623903 -19.45993515863156 C-14.902026827133989 -19.47332854036254, -14.484371864644077 -19.486721922093526, -14.070312500000005 -19.5 M-14.070312500000005 -19.5 C-14.070312500000004 -19.5, -14.070312500000004 -19.5, -14.0703125 -19.5 M-14.070312500000005 -19.5 C-14.070312500000004 -19.5, -14.070312500000002 -19.5, -14.0703125 -19.5" stroke="#9370DB" stroke-width="1.3" fill="none" stroke-dasharray="0 0" style=""/></g><g class="label" style="" transform="translate(-21.1953125, -12)"><rect/><text x="21.20" y="12.00" text-anchor="middle" dominant-baseline="middle" font-family="Arial, sans-serif" font-size="14" fill="#333">Query</text></g></g><g class="node default" id="flowchart-AD-1" transform="translate(208.97996520996094, 87)"><rect class="basic label-container" style="fill:#c4b5fd !important;stroke:#7c3aed !important;stroke-width:2px !important" x="-83.859375" y="-27" width="167.71875" height="54"/><g class="label" style="color:#0f172a !important" transform="translate(-53.859375, -12)"><rect/><text x="53.86" y="12.00" text-anchor="middle" dominant-baseline="middle" font-family="Arial, sans-serif" font-size="14" fill="#333">Alpha Detector</text></g></g><g class="node default" id="flowchart-BM-3" transform="translate(471.13621520996094, 35)"><rect class="basic label-container" style="fill:#fef08a !important;stroke:#ca8a04 !important;stroke-width:2px !important" x="-70.4296875" y="-27" width="140.859375" height="54"/><g class="label" style="color:#0f172a !important" transform="translate(-40.4296875, -12)"><rect/><text x="40.43" y="12.00" text-anchor="middle" dominant-baseline="middle" font-family="Arial, sans-serif" font-size="14" fill="#333">BM25 Index</text></g></g><g class="node default" id="flowchart-SEM-5" transform="translate(471.13621520996094, 139)"><rect class="basic label-container" style="fill:#bae6fd !important;stroke:#0284c7 !important;stroke-width:2px !important" x="-89.109375" y="-27" width="178.21875" height="54"/><g class="label" style="color:#0f172a !important" transform="translate(-59.109375, -12)"><rect/><text x="59.11" y="12.00" text-anchor="middle" dominant-baseline="middle" font-family="Arial, sans-serif" font-size="14" fill="#333">Semantic Search</text></g></g><g class="node default" id="flowchart-RRF-7" transform="translate(678.9252777099609, 87)"><rect class="basic label-container" style="fill:#e2e8f0 !important;stroke:#64748b !important;stroke-width:2px !important" x="-68.6796875" y="-27" width="137.359375" height="54"/><g class="label" style="color:#0f172a !important" transform="translate(-38.6796875, -12)"><rect/><text x="38.68" y="12.00" text-anchor="middle" dominant-baseline="middle" font-family="Arial, sans-serif" font-size="14" fill="#333">RRF Fusion</text></g></g><g class="node default" id="flowchart-TOP-11" transform="translate(857.3996353149414, 87)"><g class="basic label-container outer-path"><path d="M-40.3046875 -19.5 C-19.001019318454592 -19.5, 2.302648863090816 -19.5, 40.3046875 -19.5 C40.3046875 -19.5, 40.3046875 -19.5, 40.3046875 -19.5 C40.59812688816085 -19.490589969966802, 40.891566276321704 -19.481179939933604, 41.5540567896239 -19.45993515863156 C41.95894924464368 -19.420875670450222, 42.36384169966345 -19.381816182268885, 42.798292152847864 -19.3399052695533 C43.19726658658704 -19.275402177199293, 43.59624102032622 -19.210899084845288, 44.03228075967676 -19.140403561325776 C44.29654187316238 -19.080087686637608, 44.560802986648014 -19.019771811949436, 45.25095188623539 -18.862249829261074 C45.698362406924126 -18.729460735226407, 46.14577292761285 -18.59667164119174, 46.449297751460605 -18.50658706670804 C46.8653561111155 -18.35347374435372, 47.28141447077041 -18.2003604219994, 47.6223940951478 -18.074876768247425 C47.873463350399405 -17.963735856652377, 48.12453260565101 -17.85259494505733, 48.76542041279238 -17.568892924097174 C49.05535193384617 -17.417635835273416, 49.34528345489996 -17.266378746449654, 49.87367976407678 -16.990714730406097 C50.09363734944022 -16.857375149544527, 50.31359493480367 -16.72403556868296, 50.9426180736057 -16.342718045390892 C51.27068628914285 -16.11387186007633, 51.59875450468001 -15.885025674761769, 51.96784284457871 -15.627565626425154 C52.334744446901816 -15.33497136223416, 52.70164604922493 -15.042377098043168, 52.945141208501866 -14.848196188198123 C53.18491474194662 -14.630440209183648, 53.42468827539138 -14.412684230169171, 53.87049723676799 -14.007812326905688 C54.15575924800485 -13.713255879856941, 54.441021259241715 -13.418699432808195, 54.74010844296865 -13.10986736009568 C54.98542463842586 -12.821704998024682, 55.23074083388307 -12.533542635953685, 55.55040140812658 -12.158051136245305 C55.824279513369625 -11.791079426028299, 56.098157618612674 -11.42410771581129, 56.298046464640635 -11.156274872382312 C56.5039885407085 -10.83989254035147, 56.70993061677637 -10.523510208320626, 56.97997137860425 -10.108655082055241 C57.12893355843231 -9.844157647714152, 57.27789573826037 -9.579660213373062, 57.593373974273504 -9.019496659696287 C57.74067639804321 -8.713620024971513, 57.88797882181293 -8.40774339024674, 58.13573364880834 -7.893275190886684 C58.25218010947546 -7.6056501816997395, 58.36862657014258 -7.318025172512795, 58.604821729970325 -6.734618561215508 C58.7458571156996 -6.309842450336033, 58.886892501428875 -5.885066339456557, 58.99871063421488 -5.548287939305138 C59.09889007512556 -5.166260313068393, 59.19906951603623 -4.784232686831647, 59.31578178754556 -4.339158212148133 C59.38424558665811 -3.9876110735342674, 59.45270938577065 -3.6360639349204016, 59.554732276581774 -3.1121979531509023 C59.607483968914565 -2.7030662444177, 59.66023566124735 -2.2939345356844973, 59.71458020250937 -1.872449005199798 C59.743420399186945 -1.423239662558803, 59.772260595864516 -0.9740303199178083, 59.79466871591342 -0.6250057626472757 C59.79466871591342 -0.15016292276403242, 59.79466871591342 0.32467991711921085, 59.79466871591342 0.625005762647271 C59.76560150435252 1.077751045339154, 59.73653429279162 1.5304963280310369, 59.71458020250937 1.8724490051997846 C59.67271820074026 2.1971224243336662, 59.630856198971166 2.521795843467548, 59.554732276581774 3.1121979531508885 C59.47441009320177 3.5246353887077437, 59.39408790982177 3.937072824264599, 59.31578178754556 4.339158212148129 C59.23584291013903 4.643999797427867, 59.155904032732494 4.948841382707606, 58.99871063421489 5.548287939305125 C58.89192821269562 5.869899579452772, 58.78514579117634 6.191511219600419, 58.604821729970325 6.734618561215495 C58.486338413465546 7.02727464370139, 58.36785509696077 7.319930726187286, 58.13573364880834 7.893275190886679 C58.01941261600924 8.134818304365401, 57.90309158321014 8.376361417844123, 57.593373974273504 9.019496659696284 C57.38946322925614 9.381560835676563, 57.18555248423877 9.743625011656842, 56.97997137860425 10.108655082055236 C56.763267752687945 10.441570044534034, 56.54656412677164 10.774485007012833, 56.29804646464064 11.156274872382301 C56.09884465617661 11.423187148066024, 55.89964284771258 11.690099423749745, 55.55040140812658 12.158051136245302 C55.24511036110233 12.516663371632683, 54.93981931407807 12.875275607020065, 54.74010844296866 13.10986736009567 C54.4565665884486 13.402647604106823, 54.17302473392854 13.695427848117975, 53.87049723676799 14.007812326905684 C53.55714887442576 14.292387018841548, 53.24380051208353 14.576961710777413, 52.94514120850189 14.848196188198111 C52.60661310536421 15.118163341839244, 52.268085002226535 15.388130495480379, 51.96784284457871 15.627565626425152 C51.69743873453652 15.816187827985326, 51.42703462449432 16.0048100295455, 50.94261807360571 16.34271804539089 C50.591252922447936 16.55571766487355, 50.23988777129017 16.76871728435621, 49.87367976407678 16.990714730406093 C49.46583336718611 17.203487934425873, 49.05798697029543 17.416261138445655, 48.76542041279239 17.56889292409717 C48.53296924815047 17.671792159265344, 48.30051808350855 17.774691394433518, 47.622394095147804 18.07487676824742 C47.21155454893321 18.226069519013524, 46.80071500271861 18.37726226977963, 46.44929775146062 18.506587066708033 C46.12792981783006 18.60196738251488, 45.806561884199496 18.69734769832172, 45.25095188623541 18.86224982926107 C44.774733576691354 18.97094355079961, 44.298515267147295 19.07963727233815, 44.032280759676766 19.140403561325773 C43.69017919691616 19.195711888955664, 43.34807763415556 19.25102021658556, 42.79829215284788 19.3399052695533 C42.468288859133935 19.371740290410855, 42.13828556542 19.403575311268412, 41.5540567896239 19.45993515863156 C41.127219489586494 19.473623000055355, 40.70038218954908 19.48731084147915, 40.30468750000001 19.5 C40.30468750000001 19.5, 40.3046875 19.5, 40.3046875 19.5 C16.160900417394707 19.5, -7.982886665210586 19.5, -40.30468749999999 19.5 C-40.665610293512046 19.48842590850567, -41.02653308702409 19.476851817011337, -41.55405678962389 19.45993515863156 C-41.952158974914276 19.421530719604522, -42.35026116020466 19.383126280577486, -42.79829215284787 19.3399052695533 C-43.079092400284694 19.294507663186156, -43.359892647721516 19.24911005681901, -44.03228075967676 19.140403561325773 C-44.48654873483863 19.03671986037065, -44.94081671000049 18.933036159415526, -45.250951886235384 18.862249829261074 C-45.62291280210415 18.751853781893914, -45.99487371797293 18.641457734526753, -46.44929775146059 18.506587066708043 C-46.73061439282633 18.403059942222924, -47.011931034192074 18.299532817737806, -47.6223940951478 18.074876768247425 C-47.897645919260306 17.953030950768074, -48.172897743372815 17.831185133288724, -48.76542041279238 17.568892924097174 C-49.076157207585204 17.406781737290174, -49.38689400237803 17.244670550483175, -49.87367976407678 16.990714730406097 C-50.285736232316786 16.740923677846414, -50.69779270055679 16.49113262528673, -50.942618073605686 16.3427180453909 C-51.19549695483947 16.16632068479255, -51.448375836073254 15.989923324194198, -51.96784284457871 15.627565626425156 C-52.16888786542512 15.467237572332834, -52.369932886271535 15.306909518240515, -52.945141208501866 14.848196188198125 C-53.26639713762871 14.55644005333123, -53.58765306675555 14.264683918464335, -53.870497236767974 14.007812326905697 C-54.185275983192156 13.68277742740702, -54.50005472961634 13.357742527908345, -54.740108442968655 13.109867360095677 C-55.04784303017352 12.748384803370774, -55.35557761737839 12.386902246645871, -55.550401408126575 12.158051136245307 C-55.71882805839444 11.93237476886986, -55.88725470866231 11.706698401494412, -56.298046464640635 11.156274872382316 C-56.50182979563479 10.843208952488906, -56.705613126628954 10.530143032595499, -56.97997137860425 10.108655082055249 C-57.113512901666084 9.871538585313413, -57.24705442472792 9.63442208857158, -57.593373974273504 9.019496659696289 C-57.719953662512395 8.756651228696771, -57.84653335075129 8.493805797697252, -58.13573364880834 7.893275190886686 C-58.234716719997074 7.648785091343021, -58.33369979118581 7.4042949917993575, -58.604821729970325 6.73461856121551 C-58.7473036851459 6.305485613643326, -58.88978564032147 5.876352666071143, -58.99871063421488 5.5482879393051325 C-59.079643199191565 5.239656992653504, -59.16057576416824 4.931026046001876, -59.31578178754556 4.339158212148136 C-59.403296160660936 3.889790402369993, -59.490810533776305 3.4404225925918497, -59.554732276581774 3.112197953150904 C-59.598003346155345 2.776596082377474, -59.641274415728915 2.4409942116040435, -59.71458020250937 1.872449005199809 C-59.74151311846926 1.4529470992660665, -59.76844603442915 1.033445193332324, -59.79466871591342 0.6250057626472781 C-59.79466871591342 0.3123645012606556, -59.79466871591342 -0.0002767601259668906, -59.79466871591342 -0.6250057626472687 C-59.76586831452317 -1.0735952615659812, -59.73706791313292 -1.5221847604846936, -59.71458020250937 -1.8724490051997822 C-59.667037149032794 -2.241183539526272, -59.61949409555622 -2.609918073852762, -59.554732276581774 -3.112197953150895 C-59.50300879239242 -3.377787112700975, -59.45128530820307 -3.6433762722510545, -59.31578178754556 -4.339158212148126 C-59.24037765670209 -4.62670684341134, -59.164973525858606 -4.914255474674555, -58.99871063421489 -5.548287939305123 C-58.914825646133146 -5.8009361581495185, -58.830940658051404 -6.053584376993914, -58.60482172997033 -6.734618561215485 C-58.49956904969656 -6.994594716413845, -58.39431636942278 -7.254570871612204, -58.13573364880834 -7.893275190886676 C-57.943957891670145 -8.291501653928009, -57.75218213453194 -8.68972811696934, -57.593373974273504 -9.019496659696282 C-57.35119107541237 -9.449516920301981, -57.10900817655125 -9.87953718090768, -56.97997137860425 -10.108655082055243 C-56.74572127211222 -10.468526150588119, -56.51147116562019 -10.828397219120992, -56.29804646464064 -11.156274872382308 C-56.02280537363197 -11.525072859354701, -55.747564282623294 -11.893870846327095, -55.55040140812659 -12.158051136245302 C-55.23423578448734 -12.52943726810559, -54.91807016084809 -12.90082339996588, -54.74010844296866 -13.10986736009567 C-54.53176436196968 -13.324999729094284, -54.3234202809707 -13.540132098092897, -53.870497236767996 -14.007812326905677 C-53.55812805050607 -14.291497757032987, -53.245758864244145 -14.575183187160299, -52.94514120850189 -14.848196188198107 C-52.67059214484158 -15.067141760409786, -52.39604308118127 -15.286087332621465, -51.96784284457872 -15.627565626425149 C-51.63525354153876 -15.859565526666946, -51.30266423849879 -16.091565426908744, -50.942618073605715 -16.342718045390885 C-50.57906905746384 -16.56310359542725, -50.215520041321966 -16.783489145463616, -49.87367976407679 -16.99071473040609 C-49.5395617342436 -17.165023892557254, -49.205443704410406 -17.33933305470842, -48.76542041279239 -17.56889292409717 C-48.47813980785554 -17.69606352602635, -48.19085920291869 -17.82323412795553, -47.622394095147804 -18.07487676824742 C-47.31561218078643 -18.187775348593338, -47.00883026642505 -18.30067392893925, -46.44929775146062 -18.506587066708033 C-46.151357997000105 -18.595014021914228, -45.8534182425396 -18.683440977120423, -45.25095188623541 -18.862249829261067 C-44.99021288775442 -18.92176180418338, -44.72947388927342 -18.98127377910569, -44.032280759676766 -19.140403561325773 C-43.595113173685206 -19.211081426343625, -43.157945587693646 -19.281759291361478, -42.79829215284788 -19.3399052695533 C-42.41594252994009 -19.376790077832514, -42.03359290703231 -19.41367488611173, -41.5540567896239 -19.45993515863156 C-41.2836148598337 -19.468607704936648, -41.013172930043496 -19.477280251241737, -40.30468750000001 -19.5 C-40.30468750000001 -19.5, -40.30468750000001 -19.5, -40.3046875 -19.5" stroke="none" stroke-width="0" fill="#ECECFF" style=""/><path d="M-40.3046875 -19.5 C-13.222654987330085 -19.5, 13.85937752533983 -19.5, 40.3046875 -19.5 M-40.3046875 -19.5 C-10.866092581191037 -19.5, 18.572502337617927 -19.5, 40.3046875 -19.5 M40.3046875 -19.5 C40.3046875 -19.5, 40.3046875 -19.5, 40.3046875 -19.5 M40.3046875 -19.5 C40.3046875 -19.5, 40.3046875 -19.5, 40.3046875 -19.5 M40.3046875 -19.5 C40.68397937413437 -19.487836847843358, 41.06327124826874 -19.475673695686716, 41.5540567896239 -19.45993515863156 M40.3046875 -19.5 C40.713580349481674 -19.486887602178772, 41.122473198963355 -19.473775204357544, 41.5540567896239 -19.45993515863156 M41.5540567896239 -19.45993515863156 C41.85216056637747 -19.431177445810388, 42.150264343131035 -19.402419732989216, 42.798292152847864 -19.3399052695533 M41.5540567896239 -19.45993515863156 C41.92982978727407 -19.423684789481396, 42.30560278492425 -19.387434420331232, 42.798292152847864 -19.3399052695533 M42.798292152847864 -19.3399052695533 C43.077436104907086 -19.294775440178043, 43.356580056966315 -19.249645610802787, 44.03228075967676 -19.140403561325776 M42.798292152847864 -19.3399052695533 C43.185337924713295 -19.277330710742884, 43.57238369657873 -19.214756151932473, 44.03228075967676 -19.140403561325776 M44.03228075967676 -19.140403561325776 C44.28557521721719 -19.08259075429298, 44.53886967475762 -19.024777947260183, 45.25095188623539 -18.862249829261074 M44.03228075967676 -19.140403561325776 C44.35176822942637 -19.06748263120601, 44.67125569917597 -18.994561701086237, 45.25095188623539 -18.862249829261074 M45.25095188623539 -18.862249829261074 C45.646753508816936 -18.744777985283985, 46.04255513139847 -18.6273061413069, 46.449297751460605 -18.50658706670804 M45.25095188623539 -18.862249829261074 C45.719246076608954 -18.723262571684568, 46.187540266982516 -18.584275314108062, 46.449297751460605 -18.50658706670804 M46.449297751460605 -18.50658706670804 C46.82616575878834 -18.367896156281763, 47.20303376611607 -18.229205245855486, 47.6223940951478 -18.074876768247425 M46.449297751460605 -18.50658706670804 C46.85035711040044 -18.358993515266107, 47.25141646934027 -18.211399963824174, 47.6223940951478 -18.074876768247425 M47.6223940951478 -18.074876768247425 C47.915032124542826 -17.945334593432957, 48.207670153937855 -17.81579241861849, 48.76542041279238 -17.568892924097174 M47.6223940951478 -18.074876768247425 C48.07092717036449 -17.876324481109933, 48.51946024558118 -17.677772193972444, 48.76542041279238 -17.568892924097174 M48.76542041279238 -17.568892924097174 C48.996707348090276 -17.448230678098614, 49.22799428338818 -17.327568432100055, 49.87367976407678 -16.990714730406097 M48.76542041279238 -17.568892924097174 C49.057433361369355 -17.416549955867787, 49.34944630994633 -17.2642069876384, 49.87367976407678 -16.990714730406097 M49.87367976407678 -16.990714730406097 C50.09877622645633 -16.85425993209797, 50.32387268883588 -16.717805133789845, 50.9426180736057 -16.342718045390892 M49.87367976407678 -16.990714730406097 C50.16396322757193 -16.81474318894036, 50.45424669106707 -16.638771647474616, 50.9426180736057 -16.342718045390892 M50.9426180736057 -16.342718045390892 C51.206872506783625 -16.158385592196012, 51.47112693996155 -15.974053139001134, 51.96784284457871 -15.627565626425154 M50.9426180736057 -16.342718045390892 C51.33524290225709 -16.06883996137858, 51.727867730908486 -15.794961877366264, 51.96784284457871 -15.627565626425154 M51.96784284457871 -15.627565626425154 C52.22868062956788 -15.41955443408126, 52.489518414557054 -15.211543241737365, 52.945141208501866 -14.848196188198123 M51.96784284457871 -15.627565626425154 C52.244446801854515 -15.406981331238134, 52.521050759130326 -15.186397036051112, 52.945141208501866 -14.848196188198123 M52.945141208501866 -14.848196188198123 C53.293226728976265 -14.532074128341467, 53.641312249450664 -14.21595206848481, 53.87049723676799 -14.007812326905688 M52.945141208501866 -14.848196188198123 C53.15027106154798 -14.661902683100141, 53.3554009145941 -14.475609178002157, 53.87049723676799 -14.007812326905688 M53.87049723676799 -14.007812326905688 C54.21482846840181 -13.652262060123894, 54.559159700035636 -13.2967117933421, 54.74010844296865 -13.10986736009568 M53.87049723676799 -14.007812326905688 C54.20377571488984 -13.663674935572947, 54.537054193011684 -13.319537544240207, 54.74010844296865 -13.10986736009568 M54.74010844296865 -13.10986736009568 C54.95678638499797 -12.855345120063866, 55.17346432702729 -12.600822880032052, 55.55040140812658 -12.158051136245305 M54.74010844296865 -13.10986736009568 C54.96648569123301 -12.843951763054026, 55.192862939497374 -12.578036166012371, 55.55040140812658 -12.158051136245305 M55.55040140812658 -12.158051136245305 C55.823153430634356 -11.792588274305313, 56.09590545314213 -11.427125412365319, 56.298046464640635 -11.156274872382312 M55.55040140812658 -12.158051136245305 C55.772413716151014 -11.86057486922991, 55.994426024175446 -11.563098602214513, 56.298046464640635 -11.156274872382312 M56.298046464640635 -11.156274872382312 C56.50645397613268 -10.836104969477821, 56.714861487624724 -10.51593506657333, 56.97997137860425 -10.108655082055241 M56.298046464640635 -11.156274872382312 C56.45972950744537 -10.907886300658157, 56.621412550250106 -10.659497728934003, 56.97997137860425 -10.108655082055241 M56.97997137860425 -10.108655082055241 C57.12573746314426 -9.849832638537825, 57.271503547684276 -9.591010195020408, 57.593373974273504 -9.019496659696287 M56.97997137860425 -10.108655082055241 C57.126636867356986 -9.848235655283586, 57.27330235610972 -9.58781622851193, 57.593373974273504 -9.019496659696287 M57.593373974273504 -9.019496659696287 C57.72776040298536 -8.740440365067172, 57.86214683169722 -8.461384070438058, 58.13573364880834 -7.893275190886684 M57.593373974273504 -9.019496659696287 C57.73809568584889 -8.718978929061421, 57.88281739742428 -8.418461198426556, 58.13573364880834 -7.893275190886684 M58.13573364880834 -7.893275190886684 C58.23345984031327 -7.651889608462132, 58.3311860318182 -7.410504026037579, 58.604821729970325 -6.734618561215508 M58.13573364880834 -7.893275190886684 C58.30128939694551 -7.484349292185225, 58.46684514508269 -7.075423393483766, 58.604821729970325 -6.734618561215508 M58.604821729970325 -6.734618561215508 C58.69485455106376 -6.46345404886405, 58.7848873721572 -6.192289536512592, 58.99871063421488 -5.548287939305138 M58.604821729970325 -6.734618561215508 C58.74716097331137 -6.305915438950887, 58.889500216652415 -5.877212316686265, 58.99871063421488 -5.548287939305138 M58.99871063421488 -5.548287939305138 C59.11583579638589 -5.1016389335807, 59.232960958556895 -4.654989927856262, 59.31578178754556 -4.339158212148133 M58.99871063421488 -5.548287939305138 C59.120579348193736 -5.08354971466902, 59.24244806217259 -4.618811490032901, 59.31578178754556 -4.339158212148133 M59.31578178754556 -4.339158212148133 C59.4017685785548 -3.897634213630401, 59.48775536956404 -3.456110215112669, 59.554732276581774 -3.1121979531509023 M59.31578178754556 -4.339158212148133 C59.40345740118622 -3.8889624663508133, 59.49113301482689 -3.438766720553494, 59.554732276581774 -3.1121979531509023 M59.554732276581774 -3.1121979531509023 C59.61379295255245 -2.654135013171974, 59.67285362852313 -2.1960720731930454, 59.71458020250937 -1.872449005199798 M59.554732276581774 -3.1121979531509023 C59.61303553068818 -2.660009427581383, 59.671338784794585 -2.2078209020118638, 59.71458020250937 -1.872449005199798 M59.71458020250937 -1.872449005199798 C59.73130422059562 -1.6119589241220444, 59.74802823868187 -1.351468843044291, 59.79466871591342 -0.6250057626472757 M59.71458020250937 -1.872449005199798 C59.745137994323386 -1.3964867318908813, 59.775695786137405 -0.9205244585819647, 59.79466871591342 -0.6250057626472757 M59.79466871591342 -0.6250057626472757 C59.79466871591342 -0.33377284196056944, 59.79466871591342 -0.04253992127386319, 59.79466871591342 0.625005762647271 M59.79466871591342 -0.6250057626472757 C59.79466871591342 -0.24300658203984637, 59.79466871591342 0.13899259856758295, 59.79466871591342 0.625005762647271 M59.79466871591342 0.625005762647271 C59.765390957303225 1.0810304855823754, 59.73611319869303 1.5370552085174798, 59.71458020250937 1.8724490051997846 M59.79466871591342 0.625005762647271 C59.76552992941878 1.0788658827063182, 59.73639114292415 1.5327260027653653, 59.71458020250937 1.8724490051997846 M59.71458020250937 1.8724490051997846 C59.658579246897844 2.306781358283243, 59.60257829128632 2.741113711366702, 59.554732276581774 3.1121979531508885 M59.71458020250937 1.8724490051997846 C59.66139458350279 2.284946163526388, 59.608208964496214 2.697443321852992, 59.554732276581774 3.1121979531508885 M59.554732276581774 3.1121979531508885 C59.4696358636406 3.5491500484705973, 59.38453945069942 3.9861021437903066, 59.31578178754556 4.339158212148129 M59.554732276581774 3.1121979531508885 C59.49797444979057 3.4036373979527994, 59.44121662299936 3.6950768427547107, 59.31578178754556 4.339158212148129 M59.31578178754556 4.339158212148129 C59.19173062220615 4.8122190697024685, 59.067679456866735 5.285279927256807, 58.99871063421489 5.548287939305125 M59.31578178754556 4.339158212148129 C59.24717773035483 4.600775215402864, 59.178573673164095 4.8623922186575985, 58.99871063421489 5.548287939305125 M58.99871063421489 5.548287939305125 C58.881077011631945 5.902581668152454, 58.763443389049 6.256875396999782, 58.604821729970325 6.734618561215495 M58.99871063421489 5.548287939305125 C58.84328072984651 6.0164180468704735, 58.68785082547814 6.484548154435822, 58.604821729970325 6.734618561215495 M58.604821729970325 6.734618561215495 C58.488817128063424 7.021152170721949, 58.372812526156515 7.307685780228404, 58.13573364880834 7.893275190886679 M58.604821729970325 6.734618561215495 C58.51023987309362 6.968237576316775, 58.4156580162169 7.201856591418055, 58.13573364880834 7.893275190886679 M58.13573364880834 7.893275190886679 C57.980488143438194 8.215645804509478, 57.82524263806805 8.538016418132276, 57.593373974273504 9.019496659696284 M58.13573364880834 7.893275190886679 C57.9222693026398 8.336538473110986, 57.708804956471255 8.779801755335294, 57.593373974273504 9.019496659696284 M57.593373974273504 9.019496659696284 C57.387710306025284 9.384673328375673, 57.182046637777056 9.749849997055062, 56.97997137860425 10.108655082055236 M57.593373974273504 9.019496659696284 C57.38828437414541 9.383654012297686, 57.18319477401731 9.74781136489909, 56.97997137860425 10.108655082055236 M56.97997137860425 10.108655082055236 C56.76437926459115 10.439862463767978, 56.54878715057804 10.771069845480723, 56.29804646464064 11.156274872382301 M56.97997137860425 10.108655082055236 C56.80840567422036 10.372226075831179, 56.63683996983647 10.635797069607122, 56.29804646464064 11.156274872382301 M56.29804646464064 11.156274872382301 C56.099933544997334 11.421728136246067, 55.90182062535402 11.687181400109832, 55.55040140812658 12.158051136245302 M56.29804646464064 11.156274872382301 C56.09562003383383 11.427507848236209, 55.893193603027015 11.698740824090116, 55.55040140812658 12.158051136245302 M55.55040140812658 12.158051136245302 C55.35328100276537 12.389599980851393, 55.15616059740416 12.621148825457485, 54.74010844296866 13.10986736009567 M55.55040140812658 12.158051136245302 C55.37991856034432 12.358309989999194, 55.20943571256206 12.558568843753084, 54.74010844296866 13.10986736009567 M54.74010844296866 13.10986736009567 C54.3989798637725 13.462110625292917, 54.057851284576344 13.814353890490164, 53.87049723676799 14.007812326905684 M54.74010844296866 13.10986736009567 C54.41334072757652 13.447281854366423, 54.08657301218438 13.784696348637176, 53.87049723676799 14.007812326905684 M53.87049723676799 14.007812326905684 C53.56453574681566 14.285678456782975, 53.25857425686333 14.563544586660266, 52.94514120850189 14.848196188198111 M53.87049723676799 14.007812326905684 C53.55330757504243 14.295875585306277, 53.23611791331687 14.58393884370687, 52.94514120850189 14.848196188198111 M52.94514120850189 14.848196188198111 C52.64357705901439 15.088685572455345, 52.34201290952689 15.329174956712578, 51.96784284457871 15.627565626425152 M52.94514120850189 14.848196188198111 C52.748362086582176 15.005122301416728, 52.551582964662465 15.162048414635343, 51.96784284457871 15.627565626425152 M51.96784284457871 15.627565626425152 C51.686794258316525 15.823612953804444, 51.40574567205434 16.019660281183736, 50.94261807360571 16.34271804539089 M51.96784284457871 15.627565626425152 C51.579242641690016 15.898636305728651, 51.19064243880132 16.16970698503215, 50.94261807360571 16.34271804539089 M50.94261807360571 16.34271804539089 C50.62486208386452 16.535343593713463, 50.307106094123334 16.727969142036038, 49.87367976407678 16.990714730406093 M50.94261807360571 16.34271804539089 C50.53219943928528 16.59151623340354, 50.12178080496486 16.840314421416192, 49.87367976407678 16.990714730406093 M49.87367976407678 16.990714730406093 C49.50632348025244 17.18236426837432, 49.1389671964281 17.374013806342553, 48.76542041279239 17.56889292409717 M49.87367976407678 16.990714730406093 C49.62307703452649 17.12145401389377, 49.372474304976194 17.252193297381453, 48.76542041279239 17.56889292409717 M48.76542041279239 17.56889292409717 C48.4150835745786 17.72397665000135, 48.06474673636481 17.87906037590553, 47.622394095147804 18.07487676824742 M48.76542041279239 17.56889292409717 C48.49097699722629 17.690380883093614, 48.21653358166019 17.811868842090057, 47.622394095147804 18.07487676824742 M47.622394095147804 18.07487676824742 C47.20280632201949 18.2292889473855, 46.78321854889117 18.383701126523576, 46.44929775146062 18.506587066708033 M47.622394095147804 18.07487676824742 C47.29455519496102 18.19552451402573, 46.96671629477424 18.31617225980404, 46.44929775146062 18.506587066708033 M46.44929775146062 18.506587066708033 C46.15561702500614 18.593749964758132, 45.861936298551655 18.680912862808235, 45.25095188623541 18.86224982926107 M46.44929775146062 18.506587066708033 C46.019013247133685 18.634293248982814, 45.588728742806744 18.7619994312576, 45.25095188623541 18.86224982926107 M45.25095188623541 18.86224982926107 C44.99751618510867 18.92009487422074, 44.744080483981925 18.977939919180415, 44.032280759676766 19.140403561325773 M45.25095188623541 18.86224982926107 C44.84667393279751 18.95452363397308, 44.4423959793596 19.046797438685083, 44.032280759676766 19.140403561325773 M44.032280759676766 19.140403561325773 C43.643181512557966 19.203310110090214, 43.254082265439166 19.266216658854653, 42.79829215284788 19.3399052695533 M44.032280759676766 19.140403561325773 C43.56772186750916 19.215509840303415, 43.10316297534155 19.29061611928106, 42.79829215284788 19.3399052695533 M42.79829215284788 19.3399052695533 C42.41189453560193 19.37718058297789, 42.02549691835599 19.414455896402483, 41.5540567896239 19.45993515863156 M42.79829215284788 19.3399052695533 C42.50800190981916 19.367909220173186, 42.21771166679043 19.39591317079307, 41.5540567896239 19.45993515863156 M41.5540567896239 19.45993515863156 C41.254175627111614 19.469551763830054, 40.954294464599336 19.47916836902855, 40.30468750000001 19.5 M41.5540567896239 19.45993515863156 C41.24162290421422 19.46995430522098, 40.929189018804536 19.479973451810405, 40.30468750000001 19.5 M40.30468750000001 19.5 C40.30468750000001 19.5, 40.3046875 19.5, 40.3046875 19.5 M40.30468750000001 19.5 C40.30468750000001 19.5, 40.3046875 19.5, 40.3046875 19.5 M40.3046875 19.5 C15.46479719787764 19.5, -9.37509310424472 19.5, -40.30468749999999 19.5 M40.3046875 19.5 C20.397378255293702 19.5, 0.4900690105874048 19.5, -40.30468749999999 19.5 M-40.30468749999999 19.5 C-40.75500959360473 19.485559046956876, -41.20533168720948 19.471118093913756, -41.55405678962389 19.45993515863156 M-40.30468749999999 19.5 C-40.72965105841056 19.48637224582316, -41.15461461682112 19.47274449164632, -41.55405678962389 19.45993515863156 M-41.55405678962389 19.45993515863156 C-42.025446515495204 19.414460758705843, -42.496836241366516 19.368986358780127, -42.79829215284787 19.3399052695533 M-41.55405678962389 19.45993515863156 C-41.998088640887964 19.417099939966548, -42.44212049215203 19.374264721301532, -42.79829215284787 19.3399052695533 M-42.79829215284787 19.3399052695533 C-43.23916191818784 19.268628864889227, -43.68003168352781 19.19735246022515, -44.03228075967676 19.140403561325773 M-42.79829215284787 19.3399052695533 C-43.247515302212804 19.267278354541528, -43.69673845157774 19.19465143952976, -44.03228075967676 19.140403561325773 M-44.03228075967676 19.140403561325773 C-44.5187409079022 19.02937220694245, -45.005201056127646 18.91834085255913, -45.250951886235384 18.862249829261074 M-44.03228075967676 19.140403561325773 C-44.50685658074937 19.032084727062603, -44.98143240182198 18.92376589279943, -45.250951886235384 18.862249829261074 M-45.250951886235384 18.862249829261074 C-45.726069023687515 18.72123755680603, -46.20118616113964 18.580225284350988, -46.44929775146059 18.506587066708043 M-45.250951886235384 18.862249829261074 C-45.68686364172374 18.73287350837963, -46.12277539721209 18.603497187498185, -46.44929775146059 18.506587066708043 M-46.44929775146059 18.506587066708043 C-46.81799222717972 18.37090409146903, -47.18668670289886 18.235221116230015, -47.6223940951478 18.074876768247425 M-46.44929775146059 18.506587066708043 C-46.912457176296655 18.33614011696958, -47.37561660113273 18.16569316723112, -47.6223940951478 18.074876768247425 M-47.6223940951478 18.074876768247425 C-47.95791546596526 17.92635141027437, -48.293436836782725 17.77782605230132, -48.76542041279238 17.568892924097174 M-47.6223940951478 18.074876768247425 C-48.050534738673996 17.885351605699324, -48.478675382200194 17.69582644315122, -48.76542041279238 17.568892924097174 M-48.76542041279238 17.568892924097174 C-49.112671733476006 17.387732132521613, -49.45992305415963 17.206571340946052, -49.87367976407678 16.990714730406097 M-48.76542041279238 17.568892924097174 C-49.0870739717312 17.40108646842773, -49.40872753067001 17.23328001275829, -49.87367976407678 16.990714730406097 M-49.87367976407678 16.990714730406097 C-50.29413270384163 16.735833687464908, -50.71458564360648 16.48095264452372, -50.942618073605686 16.3427180453909 M-49.87367976407678 16.990714730406097 C-50.1866729226967 16.800976438298736, -50.49966608131662 16.611238146191376, -50.942618073605686 16.3427180453909 M-50.942618073605686 16.3427180453909 C-51.29790949540931 16.09488212985846, -51.65320091721293 15.847046214326014, -51.96784284457871 15.627565626425156 M-50.942618073605686 16.3427180453909 C-51.240667747260076 16.134811495412023, -51.53871742091446 15.926904945433147, -51.96784284457871 15.627565626425156 M-51.96784284457871 15.627565626425156 C-52.236246839256594 15.41352058319981, -52.50465083393448 15.199475539974465, -52.945141208501866 14.848196188198125 M-51.96784284457871 15.627565626425156 C-52.303090137483046 15.36021483163908, -52.63833743038739 15.092864036853005, -52.945141208501866 14.848196188198125 M-52.945141208501866 14.848196188198125 C-53.27477197587114 14.548834246825532, -53.60440274324041 14.249472305452937, -53.870497236767974 14.007812326905697 M-52.945141208501866 14.848196188198125 C-53.188556987786875 14.627132417880075, -53.43197276707188 14.406068647562025, -53.870497236767974 14.007812326905697 M-53.870497236767974 14.007812326905697 C-54.070316560420174 13.801482469763231, -54.27013588407237 13.595152612620767, -54.740108442968655 13.109867360095677 M-53.870497236767974 14.007812326905697 C-54.09078218374798 13.780350033418346, -54.311067130727984 13.552887739930995, -54.740108442968655 13.109867360095677 M-54.740108442968655 13.109867360095677 C-54.90789602160028 12.912774522851278, -55.075683600231905 12.71568168560688, -55.550401408126575 12.158051136245307 M-54.740108442968655 13.109867360095677 C-54.98160824014724 12.826187956601965, -55.22310803732582 12.542508553108252, -55.550401408126575 12.158051136245307 M-55.550401408126575 12.158051136245307 C-55.82301519704454 11.792773494722322, -56.095628985962506 11.42749585319934, -56.298046464640635 11.156274872382316 M-55.550401408126575 12.158051136245307 C-55.8010535721393 11.822200071350155, -56.05170573615203 11.486349006455, -56.298046464640635 11.156274872382316 M-56.298046464640635 11.156274872382316 C-56.47681268484166 10.881641952702013, -56.655578905042695 10.607009033021713, -56.97997137860425 10.108655082055249 M-56.298046464640635 11.156274872382316 C-56.46106309320807 10.905837554808741, -56.624079721775495 10.655400237235167, -56.97997137860425 10.108655082055249 M-56.97997137860425 10.108655082055249 C-57.20225038483969 9.713976198294143, -57.424529391075126 9.319297314533035, -57.593373974273504 9.019496659696289 M-56.97997137860425 10.108655082055249 C-57.191139627971616 9.73370447219954, -57.40230787733898 9.358753862343828, -57.593373974273504 9.019496659696289 M-57.593373974273504 9.019496659696289 C-57.755931295114706 8.681942904800055, -57.91848861595591 8.34438914990382, -58.13573364880834 7.893275190886686 M-57.593373974273504 9.019496659696289 C-57.722472985999026 8.751419799571897, -57.85157199772455 8.483342939447505, -58.13573364880834 7.893275190886686 M-58.13573364880834 7.893275190886686 C-58.253453247524256 7.602505506104767, -58.37117284624017 7.311735821322847, -58.604821729970325 6.73461856121551 M-58.13573364880834 7.893275190886686 C-58.233234551088884 7.652446077202032, -58.330735453369435 7.4116169635173765, -58.604821729970325 6.73461856121551 M-58.604821729970325 6.73461856121551 C-58.71840782016662 6.392515355030069, -58.831993910362904 6.050412148844629, -58.99871063421488 5.5482879393051325 M-58.604821729970325 6.73461856121551 C-58.69969110746552 6.448887111582578, -58.79456048496071 6.163155661949646, -58.99871063421488 5.5482879393051325 M-58.99871063421488 5.5482879393051325 C-59.07093837653611 5.272852254132738, -59.143166118857344 4.997416568960344, -59.31578178754556 4.339158212148136 M-58.99871063421488 5.5482879393051325 C-59.06801758493759 5.283990498376968, -59.13732453566031 5.019693057448805, -59.31578178754556 4.339158212148136 M-59.31578178754556 4.339158212148136 C-59.38884897458111 3.963973649476033, -59.46191616161666 3.5887890868039305, -59.554732276581774 3.112197953150904 M-59.31578178754556 4.339158212148136 C-59.40954623285489 3.857697602607245, -59.503310678164226 3.3762369930663536, -59.554732276581774 3.112197953150904 M-59.554732276581774 3.112197953150904 C-59.61022209094758 2.6818299106329833, -59.66571190531339 2.2514618681150624, -59.71458020250937 1.872449005199809 M-59.554732276581774 3.112197953150904 C-59.606956913938454 2.7071539787336465, -59.65918155129513 2.302110004316389, -59.71458020250937 1.872449005199809 M-59.71458020250937 1.872449005199809 C-59.74065450015283 1.466320772608669, -59.76672879779629 1.0601925400175292, -59.79466871591342 0.6250057626472781 M-59.71458020250937 1.872449005199809 C-59.73520969608777 1.5511279908886189, -59.75583918966618 1.2298069765774284, -59.79466871591342 0.6250057626472781 M-59.79466871591342 0.6250057626472781 C-59.79466871591342 0.2295917948286214, -59.79466871591342 -0.16582217299003532, -59.79466871591342 -0.6250057626472687 M-59.79466871591342 0.6250057626472781 C-59.79466871591342 0.32765187826265646, -59.79466871591342 0.03029799387803478, -59.79466871591342 -0.6250057626472687 M-59.79466871591342 -0.6250057626472687 C-59.76767907364827 -1.0453912265740875, -59.74068943138312 -1.4657766905009064, -59.71458020250937 -1.8724490051997822 M-59.79466871591342 -0.6250057626472687 C-59.773676064350525 -0.9519832557026802, -59.75268341278763 -1.2789607487580916, -59.71458020250937 -1.8724490051997822 M-59.71458020250937 -1.8724490051997822 C-59.66825195741 -2.2317617256436915, -59.62192371231063 -2.591074446087601, -59.554732276581774 -3.112197953150895 M-59.71458020250937 -1.8724490051997822 C-59.67636591655442 -2.1688314608020707, -59.63815163059947 -2.465213916404359, -59.554732276581774 -3.112197953150895 M-59.554732276581774 -3.112197953150895 C-59.46607544318868 -3.567432054996088, -59.377418609795576 -4.0226661568412805, -59.31578178754556 -4.339158212148126 M-59.554732276581774 -3.112197953150895 C-59.47939297581472 -3.4990493396228657, -59.40405367504766 -3.8859007260948366, -59.31578178754556 -4.339158212148126 M-59.31578178754556 -4.339158212148126 C-59.20355188076633 -4.767139487446634, -59.09132197398709 -5.195120762745143, -58.99871063421489 -5.548287939305123 M-59.31578178754556 -4.339158212148126 C-59.23443885737921 -4.649354059121362, -59.15309592721286 -4.959549906094598, -58.99871063421489 -5.548287939305123 M-58.99871063421489 -5.548287939305123 C-58.91910479263729 -5.788048050668439, -58.839498951059696 -6.0278081620317545, -58.60482172997033 -6.734618561215485 M-58.99871063421489 -5.548287939305123 C-58.907749513898864 -5.822248341010605, -58.81678839358284 -6.096208742716087, -58.60482172997033 -6.734618561215485 M-58.60482172997033 -6.734618561215485 C-58.461433458965416 -7.088790362821247, -58.31804518796051 -7.442962164427009, -58.13573364880834 -7.893275190886676 M-58.60482172997033 -6.734618561215485 C-58.49193529574019 -7.013450236274658, -58.37904886151006 -7.292281911333832, -58.13573364880834 -7.893275190886676 M-58.13573364880834 -7.893275190886676 C-57.964975463465144 -8.247858216391688, -57.79421727812195 -8.602441241896699, -57.593373974273504 -9.019496659696282 M-58.13573364880834 -7.893275190886676 C-57.998767833739535 -8.177687636476028, -57.86180201867072 -8.462100082065378, -57.593373974273504 -9.019496659696282 M-57.593373974273504 -9.019496659696282 C-57.38054157680144 -9.39740213302515, -57.16770917932938 -9.775307606354017, -56.97997137860425 -10.108655082055243 M-57.593373974273504 -9.019496659696282 C-57.34877869085788 -9.45380035335892, -57.10418340744225 -9.888104047021558, -56.97997137860425 -10.108655082055243 M-56.97997137860425 -10.108655082055243 C-56.71823590483595 -10.510751055579, -56.456500431067646 -10.912847029102759, -56.29804646464064 -11.156274872382308 M-56.97997137860425 -10.108655082055243 C-56.8280985914107 -10.341972466738133, -56.67622580421715 -10.575289851421022, -56.29804646464064 -11.156274872382308 M-56.29804646464064 -11.156274872382308 C-56.094418097005665 -11.429118334087258, -55.89078972937069 -11.701961795792208, -55.55040140812659 -12.158051136245302 M-56.29804646464064 -11.156274872382308 C-56.10246856456821 -11.418331440966131, -55.906890664495776 -11.680388009549953, -55.55040140812659 -12.158051136245302 M-55.55040140812659 -12.158051136245302 C-55.2659319901322 -12.492205101389944, -54.981462572137815 -12.826359066534586, -54.74010844296866 -13.10986736009567 M-55.55040140812659 -12.158051136245302 C-55.36017488180006 -12.381502038264426, -55.16994835547353 -12.60495294028355, -54.74010844296866 -13.10986736009567 M-54.74010844296866 -13.10986736009567 C-54.513105559801346 -13.344266474249237, -54.28610267663403 -13.578665588402805, -53.870497236767996 -14.007812326905677 M-54.74010844296866 -13.10986736009567 C-54.47489364971479 -13.383723408669772, -54.20967885646091 -13.657579457243873, -53.870497236767996 -14.007812326905677 M-53.870497236767996 -14.007812326905677 C-53.51854010093547 -14.32745048539326, -53.16658296510295 -14.647088643880842, -52.94514120850189 -14.848196188198107 M-53.870497236767996 -14.007812326905677 C-53.577539691362354 -14.273868618411184, -53.28458214595671 -14.539924909916689, -52.94514120850189 -14.848196188198107 M-52.94514120850189 -14.848196188198107 C-52.59194513996966 -15.129860653910443, -52.23874907143744 -15.411525119622778, -51.96784284457872 -15.627565626425149 M-52.94514120850189 -14.848196188198107 C-52.61168598474526 -15.11411785552785, -52.27823076098862 -15.380039522857594, -51.96784284457872 -15.627565626425149 M-51.96784284457872 -15.627565626425149 C-51.6411874269036 -15.855426305110193, -51.31453200922847 -16.083286983795237, -50.942618073605715 -16.342718045390885 M-51.96784284457872 -15.627565626425149 C-51.655482565294 -15.845454635395615, -51.343122286009276 -16.063343644366082, -50.942618073605715 -16.342718045390885 M-50.942618073605715 -16.342718045390885 C-50.670772647284686 -16.507512340367743, -50.39892722096366 -16.6723066353446, -49.87367976407679 -16.99071473040609 M-50.942618073605715 -16.342718045390885 C-50.53715988762969 -16.58850918046633, -50.131701701653675 -16.83430031554177, -49.87367976407679 -16.99071473040609 M-49.87367976407679 -16.99071473040609 C-49.450279293511244 -17.21160248469919, -49.026878822945704 -17.43249023899229, -48.76542041279239 -17.56889292409717 M-49.87367976407679 -16.99071473040609 C-49.50294926417431 -17.184124594740997, -49.132218764271826 -17.377534459075903, -48.76542041279239 -17.56889292409717 M-48.76542041279239 -17.56889292409717 C-48.43145501050961 -17.716729500956085, -48.09748960822682 -17.864566077815002, -47.622394095147804 -18.07487676824742 M-48.76542041279239 -17.56889292409717 C-48.37923761902363 -17.739844591193048, -47.99305482525486 -17.910796258288922, -47.622394095147804 -18.07487676824742 M-47.622394095147804 -18.07487676824742 C-47.32507302424147 -18.184293670746804, -47.027751953335134 -18.293710573246187, -46.44929775146062 -18.506587066708033 M-47.622394095147804 -18.07487676824742 C-47.192647063821724 -18.233027648313428, -46.76290003249565 -18.391178528379434, -46.44929775146062 -18.506587066708033 M-46.44929775146062 -18.506587066708033 C-46.09481469379123 -18.611795777504767, -45.740331636121844 -18.7170044883015, -45.25095188623541 -18.862249829261067 M-46.44929775146062 -18.506587066708033 C-46.103809124195436 -18.609126277773527, -45.75832049693025 -18.711665488839024, -45.25095188623541 -18.862249829261067 M-45.25095188623541 -18.862249829261067 C-44.93631968161943 -18.93406257679765, -44.62168747700345 -19.005875324334237, -44.032280759676766 -19.140403561325773 M-45.25095188623541 -18.862249829261067 C-44.958618084840325 -18.928973111773164, -44.666284283445236 -18.995696394285257, -44.032280759676766 -19.140403561325773 M-44.032280759676766 -19.140403561325773 C-43.566668800750094 -19.215680091970366, -43.10105684182343 -19.290956622614964, -42.79829215284788 -19.3399052695533 M-44.032280759676766 -19.140403561325773 C-43.58793830474735 -19.21224140351156, -43.14359584981793 -19.284079245697345, -42.79829215284788 -19.3399052695533 M-42.79829215284788 -19.3399052695533 C-42.39374887101771 -19.378931073416975, -41.989205589187556 -19.417956877280652, -41.5540567896239 -19.45993515863156 M-42.79829215284788 -19.3399052695533 C-42.39426218785849 -19.3788815543587, -41.990232222869096 -19.417857839164103, -41.5540567896239 -19.45993515863156 M-41.5540567896239 -19.45993515863156 C-41.203085719133135 -19.471190117738452, -40.85211464864236 -19.482445076845345, -40.30468750000001 -19.5 M-41.5540567896239 -19.45993515863156 C-41.10351369739445 -19.474383198670427, -40.652970605164995 -19.4888312387093, -40.30468750000001 -19.5 M-40.30468750000001 -19.5 C-40.30468750000001 -19.5, -40.3046875 -19.5, -40.3046875 -19.5 M-40.30468750000001 -19.5 C-40.30468750000001 -19.5, -40.3046875 -19.5, -40.3046875 -19.5" stroke="#9370DB" stroke-width="1.3" fill="none" stroke-dasharray="0 0" style=""/></g><g class="label" style="" transform="translate(-47.4296875, -12)"><rect/><text x="47.43" y="12.00" text-anchor="middle" dominant-baseline="middle" font-family="Arial, sans-serif" font-size="14" fill="#333">Top-K Results</text></g></g></g></g></g></svg>