<svg id="my-svg" width="100%" xmlns="http://www.w3.org/2000/svg" xmlns:xlink="http://www.w3.org/1999/xlink" class="flowchart" style="max-width: 925.194px; background-color: white;" viewBox="0 0 925.1943359375 174" role="graphics-document document" aria-roledescription="flowchart-v2"><style>#my-svg{font-family:"trebuchet ms",verdana,arial,sans-serif;font-size:16px;fill:#333;}@keyframes edge-animation-frame{from{stroke-dashoffset:0;}}@keyframes dash{to{stroke-dashoffset:0;}}#my-svg .edge-animation-slow{stroke-dasharray:9,5!important;stroke-dashoffset:900;animation:dash 50s linear infinite;stroke-linecap:round;}#my-svg .edge-animation-fast{stroke-dasharray:9,5!important;stroke-dashoffset:900;animation:dash 20s linear infinite;stroke-linecap:round;}#my-svg .error-icon{fill:#552222;}#my-svg .error-text{fill:#552222;stroke:#552222;}#my-svg .edge-thickness-normal{stroke-width:1px;}#my-svg .edge-thickness-thick{stroke-width:3.5px;}#my-svg .edge-pattern-solid{stroke-dasharray:0;}#my-svg .edge-thickness-invisible{stroke-width:0;fill:none;}#my-svg .edge-pattern-dashed{stroke-dasharray:3;}#my-svg .edge-pattern-dotted{stroke-dasharray:2;}#my-svg .marker{fill:#333333;stroke:#333333;}#my-svg .marker.cross{stroke:#333333;}#my-svg svg{font-family:"trebuchet ms",verdana,arial,sans-serif;font-size:16px;}#my-svg p{margin:0;}#my-svg .label{font-family:"trebuchet ms",verdana,arial,sans-serif;color:#333;}#my-svg .cluster-label text{fill:#333;}#my-svg .cluster-label span{color:#333;}#my-svg .cluster-label span p{background-color:transparent;}#my-svg .label text,#my-svg span{fill:#333;color:#333;}#my-svg .node rect,#my-svg .node circle,#my-svg .node ellipse,#my-svg .node polygon,#my-svg .node path{fill:#ECECFF;stroke:#9370DB;stroke-width:1px;}#my-svg .rough-node .label text,#my-svg .node .label text,#my-svg .image-shape .label,#my-svg .icon-shape .label{text-anchor:middle;}#my-svg .node .katex path{fill:#000;stroke:#000;stroke-width:1px;}#my-svg .rough-node .label,#my-svg .node .label,#my-svg .image-shape .label,#my-svg .icon-shape .label{text-align:center;}#my-svg .node.clickable{cursor:pointer;}#my-svg .root .anchor path{fill:#333333!important;stroke-width:0;stroke:#333333;}#my-svg .arrowheadPath{fill:#333333;}#my-svg .edgePath .path{stroke:#333333;stroke-width:2.0px;}#my-svg .flowchart-link{stroke:#333333;fill:none;}#my-svg .edgeLabel{background-color:rgba(232,232,232, 0.8);text-align:center;}#my-svg .edgeLabel p{background-color:rgba(232,232,232, 0.8);}#my-svg .edgeLabel rect{opacity:0.5;background-color:rgba(232,232,232, 0.8);fill:rgba(232,232,232, 0.8);}#my-svg .labelBkg{background-color:rgba(232, 232, 232, 0.5);}#my-svg .cluster rect{fill:#ffffde;stroke:#aaaa33;stroke-width:1px;}#my-svg .cluster text{fill:#333;}#my-svg .cluster span{color:#333;}#my-svg div.mermaidTooltip{position:absolute;text-align:center;max-width:200px;padding:2px;font-family:"trebuchet ms",verdana,arial,sans-serif;font-size:12px;background:hsl(80, 100%, 96.2745098039%);border:1px solid #aaaa33;border-radius:2px;pointer-events:none;z-index:100;}#my-svg .flowchartTitleText{text-anchor:middle;font-size:18px;fill:#333;}#my-svg rect.text{fill:none;stroke-width:0;}#my-svg .icon-shape,#my-svg .image-shape{background-color:rgba(232,232,232, 0.8);text-align:center;}#my-svg .icon-shape p,#my-svg .image-shape p{background-color:rgba(232,232,232, 0.8);padding:2px;}#my-svg .icon-shape rect,#my-svg .image-shape rect{opacity:0.5;background-color:rgba(232,232,232, 0.8);fill:rgba(232,232,232, 0.8);}#my-svg .label-icon{display:inline-block;height:1em;overflow:visible;vertical-align:-0.125em;}#my-svg .node .label-icon path{fill:currentColor;stroke:revert;stroke-width:revert;}#my-svg :root{--mermaid-font-family:"trebuchet ms",verdana,arial,sans-serif;}</style><g><marker id="my-svg_flowchart-v2-pointEnd" class="marker flowchart-v2" viewBox="0 0 10 10" refX="5" refY="5" markerUnits="userSpaceOnUse" markerWidth="8" markerHeight="8" orient="auto"><path d="M 0 0 L 10 5 L 0 10 z" class="arrowMarkerPath" style="stroke-width: 1; stroke-dasharray: 1, 0;"/></marker><marker id="my-svg_flowchart-v2-pointStart" class="marker flowchart-v2" viewBox="0 0 10 10" refX="4.5" refY="5" markerUnits="userSpaceOnUse" markerWidth="8" markerHeight="8" orient="auto"><path d="M 0 5 L 10 10 L 10 0 z" class="arrowMarkerPath" style="stroke-width: 1; stroke-dasharray: 1, 0;"/></marker><marker id="my-svg_flowchart-v2-circleEnd" class="marker flowchart-v2" viewBox="0 0 10 10" refX="11" refY="5" markerUnits="userSpaceOnUse" markerWidth="11" markerHeight="11" orient="auto"><circle cx="5" cy="5" r="5" class="arrowMarkerPath" style="stroke-width: 1; stroke-dasharray: 1, 0;"/></marker><marker id="my-svg_flowchart-v2-circleStart" class="marker flowchart-v2" viewBox="0 0 10 10" refX="-1" refY="5" markerUnits="userSpaceOnUse" markerWidth="11" markerHeight="11" orient="auto"><circle cx="5" cy="5" r="5" class="arrowMarkerPath" style="stroke-width: 1; stroke-dasharray: 1, 0;"/></marker><marker id="my-svg_flowchart-v2-crossEnd" class="marker cross flowchart-v2" viewBox="0 0 11 11" refX="12" refY="5.2" markerUnits="userSpaceOnUse" markerWidth="11" markerHeight="11" orient="auto"><path d="M 1,1 l 9,9 M 10,1 l -9,9" class="arrowMarkerPath" style="stroke-width: 2; stroke-dasharray: 1, 0;"/></marker><marker id="my-svg_flowchart-v2-crossStart" class="marker cross flowchart-v2" viewBox="0 0 11 11" refX="-1" refY="5.2" markerUnits="userSpaceOnUse" markerWidth="11" markerHeight="11" orient="auto"><path d="M 1,1 l 9,9 M 10,1 l -9,9" class="arrowMarkerPath" style="stroke-width: 2; stroke-dasharray: 1, 0;"/></marker><g class="root"><g class="clusters"/><g class="edgePaths"><path d="M75.621,87.5L79.704,87.417C83.787,87.333,91.954,87.167,99.537,87.083C107.121,87,114.121,87,117.621,87L121.121,87" id="L_Q_AD_0" class="edge-thickness-normal edge-pattern-solid edge-thickness-normal edge-pattern-solid flowchart-link" style=";" data-edge="true" data-et="edge" data-id="L_Q_AD_0" data-points="W3sieCI6NzUuNjIwNTg3NDMxODI2NywieSI6ODcuNTAwMDAwMDAwMDAwMDF9LHsieCI6MTAwLjEyMDU5MDIwOTk2MDk0LCJ5Ijo4N30seyJ4IjoxMjUuMTIwNTkwMjA5OTYwOTQsInkiOjg3fV0=" marker-end="url(#my-svg_flowchart-v2-pointEnd)"/><path d="M275.677,60L285.969,55.833C296.262,51.667,316.848,43.333,337.019,39.167C357.191,35,376.949,35,386.828,35L396.707,35" id="L_AD_BM_0" class="edge-thickness-normal edge-pattern-solid edge-thickness-normal edge-pattern-solid flowchart-link" style=";" data-edge="true" data-et="edge" data-id="L_AD_BM_0" data-points="W3sieCI6Mjc1LjY3Njc4MDExMzgwNzEsInkiOjYwfSx7IngiOjMzNy40MzMwOTAyMDk5NjA5NCwieSI6MzV9LHsieCI6NDAwLjcwNjUyNzcwOTk2MDk0LCJ5IjozNX1d" marker-end="url(#my-svg_flowchart-v2-pointEnd)"/><path d="M275.677,114L285.969,118.167C296.262,122.333,316.848,130.667,333.906,134.833C350.964,139,364.496,139,371.261,139L378.027,139" id="L_AD_SEM_0" class="edge-thickness-normal edge-pattern-solid edge-thickness-normal edge-pattern-solid flowchart-link" style=";" data-edge="true" data-et="edge" data-id="L_AD_SEM_0" data-points="W3sieCI6Mjc1LjY3Njc4MDExMzgwNzEsInkiOjExNH0seyJ4IjozMzcuNDMzMDkwMjA5OTYwOTQsInkiOjEzOX0seyJ4IjozODIuMDI2ODQwMjA5OTYwOTQsInkiOjEzOX1d" marker-end="url(#my-svg_flowchart-v2-pointEnd)"/><path d="M541.566,35L548.846,35C556.126,35,570.686,35,584.889,38.843C599.093,42.686,612.94,50.372,619.863,54.216L626.787,58.059" id="L_BM_RRF_0" class="edge-thickness-normal edge-pattern-solid edge-thickness-normal edge-pattern-solid flowchart-link" style=";" data-edge="true" data-et="edge" data-id="L_BM_RRF_0" data-points="W3sieCI6NTQxLjU2NTkwMjcwOTk2MDksInkiOjM1fSx7IngiOjU4NS4yNDU1OTAyMDk5NjA5LCJ5IjozNX0seyJ4Ijo2MzAuMjgzOTAxNTA4MDM3OCwieSI6NjB9XQ==" marker-end="url(#my-svg_flowchart-v2-pointEnd)"/><path d="M560.246,139L564.412,139C568.579,139,576.912,139,588.002,135.157C599.093,131.314,612.94,123.628,619.863,119.784L626.787,115.941" id="L_SEM_RRF_0" class="edge-thickness-normal edge-pattern-solid edge-thickness-normal edge-pattern-solid flowchart-link" style=";" data-edge="true" data-et="edge" data-id="L_SEM_RRF_0" data-points="W3sieCI6NTYwLjI0NTU5MDIwOTk2MDksInkiOjEzOX0seyJ4Ijo1ODUuMjQ1NTkwMjA5OTYwOSwieSI6MTM5fSx7IngiOjYzMC4yODM5MDE1MDgwMzc4LCJ5IjoxMTR9XQ==" marker-end="url(#my-svg_flowchart-v2-pointEnd)"/><path d="M747.605,87L751.772,87C755.938,87,764.272,87,772.022,87.07C779.772,87.141,786.939,87.281,790.522,87.351L794.106,87.422" id="L_RRF_TOP_0" class="edge-thickness-normal edge-pattern-solid edge-thickness-normal edge-pattern-solid flowchart-link" style=";" data-edge="true" data-et="edge" data-id="L_RRF_TOP_0" data-points="W3sieCI6NzQ3LjYwNDk2NTIwOTk2MDksInkiOjg3fSx7IngiOjc3Mi42MDQ5NjUyMDk5NjA5LCJ5Ijo4N30seyJ4Ijo3OTguMTA0OTY1MjA5OTU5LCJ5Ijo4Ny41fV0=" marker-end="url(#my-svg_flowchart-v2-pointEnd)"/></g><g class="edgeLabels"><g class="edgeLabel"><g class="label" data-id="L_Q_AD_0" transform="translate(0, 0)"></g></g><g class="edgeLabel" transform="translate(337.43309020996094, 35)"><g class="label" data-id="L_AD_BM_0" transform="translate(-19.59375, -12)"><text x="19.59" y="12.00" text-anchor="middle" dominant-baseline="middle" font-family="Arial, sans-serif" font-size="14" fill="#333">alpha</text></g></g><g class="edgeLabel" transform="translate(337.43309020996094, 139)"><g class="label" data-id="L_AD_SEM_0" transform="translate(-19.59375, -12)"><text x="19.59" y="12.00" text-anchor="middle" dominant-baseline="middle" font-family="Arial, sans-serif" font-size="14" fill="#333">alpha</text></g></g><g class="edgeLabel"><g class="label" data-id="L_BM_RRF_0" transform="translate(0, 0)"></g></g><g class="edgeLabel"><g class="label" data-id="L_SEM_RRF_0" transform="translate(0, 0)"></g></g><g class="edgeLabel"><g class="label" data-id="L_RRF_TOP_0" transform="translate(0, 0)"></g></g></g><g class="nodes"><g class="node default" id="flowchart-Q-0" transform="translate(41.56029510498047, 87)"><g class="basic label-container outer-path"><path d="M-14.0703125 -19.5 C-8.19744669421431 -19.5, -2.3245808884286223 -19.5, 14.0703125 -19.5 C14.0703125 -19.5, 14.070312499999998 -19.5, 14.070312499999998 -19.5 C14.370703935707997 -19.490367031333303, 14.671095371415998 -19.48073406266661, 15.3196817896239 -19.45993515863156 C15.781209776833295 -19.41541210877408, 16.24273776404269 -19.370889058916607, 16.563917152847864 -19.3399052695533 C16.92615574775533 -19.28134134273092, 17.2883943426628 -19.22277741590854, 17.79790575967676 -19.140403561325776 C18.096865912504 -19.072167857340276, 18.395826065331242 -19.003932153354775, 19.01657688623539 -18.862249829261074 C19.422620318745786 -18.74173826985746, 19.828663751256183 -18.621226710453843, 20.214922751460602 -18.50658706670804 C20.53175440737482 -18.389990088571885, 20.848586063289034 -18.273393110435734, 21.388019095147794 -18.074876768247425 C21.669701980839186 -17.950184110577766, 21.951384866530578 -17.825491452908107, 22.53104541279238 -17.568892924097174 C22.84915968763094 -17.402932910675815, 23.167273962469505 -17.236972897254457, 23.639304764076783 -16.990714730406097 C23.89888584460001 -16.833355153925165, 24.158466925123232 -16.67599557744423, 24.708243073605697 -16.342718045390892 C25.081917551915147 -16.082058905429676, 25.455592030224594 -15.821399765468458, 25.733467844578712 -15.627565626425154 C26.106593336969844 -15.330007975529583, 26.479718829360976 -15.032450324634011, 26.71076620850187 -14.848196188198123 C26.94377763741782 -14.636581373601226, 27.17678906633377 -14.42496655900433, 27.636122236767985 -14.007812326905688 C27.90805756518782 -13.72701677400653, 28.179992893607658 -13.446221221107374, 28.505733442968648 -13.10986736009568 C28.69995492363298 -12.881723757392031, 28.894176404297315 -12.653580154688381, 29.316026408126582 -12.158051136245305 C29.594085072753334 -11.785477857310923, 29.87214373738009 -11.412904578376542, 30.063671464640635 -11.156274872382312 C30.286516257620487 -10.813925428159644, 30.50936105060034 -10.471575983936978, 30.745596378604247 -10.108655082055241 C30.93297142190107 -9.775951718901153, 31.120346465197894 -9.443248355747064, 31.3589989742735 -9.019496659696287 C31.538190397607522 -8.647401835060942, 31.717381820941544 -8.275307010425596, 31.90135864880834 -7.893275190886684 C32.007218987926066 -7.631798106595486, 32.113079327043785 -7.370321022304288, 32.370446729970325 -6.734618561215508 C32.490077181867406 -6.3743107006255455, 32.609707633764486 -6.014002840035583, 32.76433563421488 -5.548287939305138 C32.879168088637854 -5.110382021889766, 32.99400054306083 -4.672476104474394, 33.08140678754556 -4.339158212148133 C33.17679798351734 -3.8493445817694387, 33.272189179489125 -3.3595309513907443, 33.320357276581774 -3.1121979531509023 C33.382617500917334 -2.6293199478762226, 33.444877725252894 -2.146441942601543, 33.48020520250937 -1.872449005199798 C33.49878748484228 -1.5830149585163518, 33.5173697671752 -1.2935809118329056, 33.56029371591342 -0.6250057626472757 C33.56029371591342 -0.19480489557991476, 33.56029371591342 0.23539597148744618, 33.56029371591342 0.625005762647271 C33.53692939660389 0.988923895232247, 33.513565077294366 1.352842027817223, 33.48020520250937 1.8724490051997846 C33.434624015172716 2.225967693159343, 33.38904282783606 2.579486381118901, 33.320357276581774 3.1121979531508885 C33.26210178299936 3.4113276003936566, 33.20384628941695 3.7104572476364246, 33.08140678754556 4.339158212148129 C33.016116783009636 4.588137296310569, 32.95082677847371 4.837116380473008, 32.76433563421489 5.548287939305125 C32.64734403701292 5.900647989997792, 32.53035243981096 6.253008040690459, 32.370446729970325 6.734618561215495 C32.21711796669874 7.113343570906292, 32.06378920342715 7.49206858059709, 31.901358648808344 7.893275190886679 C31.711988904565192 8.286505516671012, 31.522619160322044 8.679735842455344, 31.358998974273504 9.019496659696284 C31.15171390068772 9.387552297737606, 30.944428827101937 9.75560793577893, 30.74559637860425 10.108655082055236 C30.56679212835264 10.383346426105735, 30.387987878101022 10.658037770156234, 30.06367146464064 11.156274872382301 C29.84139058477023 11.454111001203911, 29.61910970489982 11.75194713002552, 29.316026408126582 12.158051136245302 C29.064896123218638 12.453043058616196, 28.81376583831069 12.74803498098709, 28.50573344296866 13.10986736009567 C28.295327231544498 13.32712904806234, 28.084921020120337 13.54439073602901, 27.63612223676799 14.007812326905684 C27.43510537462021 14.190370522493575, 27.234088512472436 14.372928718081464, 26.710766208501887 14.848196188198111 C26.480840267167366 15.03155600782613, 26.25091432583284 15.21491582745415, 25.733467844578715 15.627565626425152 C25.358299132683324 15.889267079051596, 24.983130420787933 16.15096853167804, 24.708243073605708 16.34271804539089 C24.439761685791225 16.505473040455794, 24.17128029797674 16.6682280355207, 23.639304764076787 16.990714730406093 C23.205124777278602 17.21722615141315, 22.77094479048042 17.44373757242021, 22.531045412792388 17.56889292409717 C22.1410278470078 17.741542131009982, 21.75101028122321 17.914191337922794, 21.388019095147804 18.07487676824742 C20.952216860203105 18.23525601921877, 20.516414625258403 18.395635270190116, 20.214922751460616 18.506587066708033 C19.80564188382037 18.628059479864543, 19.396361016180126 18.749531893021057, 19.016576886235413 18.86224982926107 C18.631259224852975 18.950196071038885, 18.24594156347054 19.0381423128167, 17.797905759676766 19.140403561325773 C17.32309720603943 19.21716692608253, 16.848288652402093 19.29393029083929, 16.56391715284788 19.3399052695533 C16.221599761765027 19.372928216574167, 15.87928237068218 19.40595116359503, 15.3196817896239 19.45993515863156 C15.03705575107492 19.468998425589614, 14.754429712525939 19.478061692547666, 14.070312500000004 19.5 C14.070312500000002 19.5, 14.070312500000002 19.5, 14.0703125 19.5 C5.625955953707818 19.5, -2.8184005925843643 19.5, -14.070312499999996 19.5 C-14.451002766987402 19.487792004106367, -14.831693033974807 19.475584008212735, -15.319681789623893 19.45993515863156 C-15.624369638522722 19.43054228828904, -15.92905748742155 19.40114941794652, -16.56391715284787 19.3399052695533 C-16.81245456156354 19.29972366874854, -17.06099197027921 19.25954206794378, -17.79790575967676 19.140403561325773 C-18.089432941611193 19.073864384441887, -18.380960123545627 19.007325207558004, -19.016576886235388 18.862249829261074 C-19.454718772998376 18.732211617123514, -19.892860659761368 18.602173404985955, -20.21492275146059 18.506587066708043 C-20.524684932323975 18.392591720740107, -20.83444711318736 18.27859637477217, -21.388019095147797 18.074876768247425 C-21.697008972540136 17.938096115384884, -22.005998849932478 17.801315462522346, -22.53104541279238 17.568892924097174 C-22.90990827083277 17.371240413730746, -23.288771128873154 17.173587903364318, -23.63930476407678 16.990714730406097 C-23.884367096421478 16.84215650439262, -24.12942942876618 16.693598278379145, -24.708243073605686 16.3427180453909 C-25.071344639743103 16.0894341112669, -25.43444620588052 15.836150177142901, -25.733467844578712 15.627565626425156 C-26.113688821173724 15.324349515695754, -26.493909797768733 15.021133404966355, -26.71076620850187 14.848196188198125 C-26.946508579977166 14.63410120382561, -27.182250951452463 14.420006219453095, -27.636122236767974 14.007812326905697 C-27.878183360627325 13.757864342933052, -28.120244484486673 13.507916358960408, -28.505733442968655 13.109867360095677 C-28.75191859578267 12.820684271268302, -28.998103748596684 12.531501182440927, -29.31602640812658 12.158051136245307 C-29.60917014490292 11.765265234908828, -29.902313881679255 11.372479333572349, -30.063671464640635 11.156274872382316 C-30.25720887208931 10.85894944247047, -30.45074627953799 10.561624012558624, -30.745596378604244 10.108655082055249 C-30.91556568782881 9.806857362268145, -31.08553499705338 9.505059642481042, -31.3589989742735 9.019496659696289 C-31.50967656290313 8.706611422922938, -31.66035415153276 8.393726186149589, -31.90135864880834 7.893275190886686 C-32.04398586630905 7.540983206150273, -32.18661308380976 7.18869122141386, -32.370446729970325 6.73461856121551 C-32.51259405972905 6.306493452083572, -32.65474138948776 5.878368342951634, -32.76433563421488 5.5482879393051325 C-32.83416453988853 5.282000057932326, -32.90399344556219 5.015712176559518, -33.08140678754556 4.339158212148136 C-33.14667379348613 4.004025930829905, -33.2119407994267 3.6688936495116744, -33.320357276581774 3.112197953150904 C-33.35607222954337 2.8351998306959465, -33.39178718250497 2.5582017082409894, -33.48020520250937 1.872449005199809 C-33.51179166848066 1.3804643015604217, -33.54337813445196 0.8884795979210341, -33.56029371591342 0.6250057626472781 C-33.56029371591342 0.21013611154010525, -33.56029371591342 -0.20473353956706764, -33.56029371591342 -0.6250057626472687 C-33.52830883226714 -1.1231961431714135, -33.49632394862086 -1.6213865236955582, -33.48020520250937 -1.8724490051997822 C-33.4179807521409 -2.355049554650077, -33.35575630177243 -2.8376501041003723, -33.320357276581774 -3.112197953150895 C-33.23107003516567 -3.5706690669574117, -33.14178279374958 -4.029140180763928, -33.08140678754556 -4.339158212148126 C-33.0088512154054 -4.615844054502444, -32.93629564326524 -4.892529896856763, -32.76433563421489 -5.548287939305123 C-32.67462821598791 -5.818472390068708, -32.58492079776093 -6.088656840832292, -32.37044672997033 -6.734618561215485 C-32.229052686562646 -7.083864582100327, -32.08765864315496 -7.4331106029851695, -31.901358648808344 -7.893275190886676 C-31.685357357805202 -8.341806493341947, -31.469356066802064 -8.790337795797218, -31.358998974273504 -9.019496659696282 C-31.227585821604947 -9.252834019283979, -31.09617266893639 -9.486171378871674, -30.745596378604247 -10.108655082055243 C-30.555557005038533 -10.400606592569234, -30.365517631472823 -10.692558103083227, -30.06367146464064 -11.156274872382308 C-29.829516927468262 -11.470020620276122, -29.595362390295882 -11.783766368169937, -29.316026408126586 -12.158051136245302 C-28.995102474296928 -12.535026650010765, -28.674178540467274 -12.91200216377623, -28.505733442968662 -13.10986736009567 C-28.21762674311694 -13.407361181692535, -27.92952004326522 -13.704855003289397, -27.636122236767996 -14.007812326905677 C-27.37646483516405 -14.243626308884009, -27.1168074335601 -14.479440290862339, -26.710766208501887 -14.848196188198107 C-26.484771790282977 -15.02842072276365, -26.258777372064067 -15.208645257329193, -25.73346784457872 -15.627565626425149 C-25.504967984640377 -15.786957237118626, -25.27646812470203 -15.946348847812102, -24.70824307360571 -16.342718045390885 C-24.48054593123 -16.480749391195975, -24.25284878885429 -16.618780737001067, -23.63930476407679 -16.99071473040609 C-23.242044473490726 -17.19796516954748, -22.844784182904665 -17.40521560868887, -22.531045412792388 -17.56889292409717 C-22.250609578109977 -17.693033549277608, -21.970173743427562 -17.817174174458046, -21.388019095147804 -18.07487676824742 C-20.96915896241871 -18.22902116899235, -20.550298829689613 -18.38316556973728, -20.21492275146062 -18.506587066708033 C-19.87413544836774 -18.60773094943694, -19.533348145274854 -18.708874832165854, -19.016576886235413 -18.862249829261067 C-18.691331039788974 -18.936485071284967, -18.366085193342535 -19.01072031330887, -17.797905759676766 -19.140403561325773 C-17.439185452701775 -19.19839867863996, -17.08046514572678 -19.25639379595415, -16.563917152847882 -19.3399052695533 C-16.279353381799062 -19.36735679430837, -15.994789610750244 -19.394808319063447, -15.319681789623903 -19.45993515863156 C-14.863935298449068 -19.474550061546804, -14.408188807274232 -19.489164964462052, -14.070312500000005 -19.5 C-14.070312500000004 -19.5, -14.070312500000002 -19.5, -14.0703125 -19.5" stroke="none" stroke-width="0" fill="#ECECFF" style=""/><path d="M-14.0703125 -19.5 C-5.200051268961905 -19.5, 3.670209962076189 -19.5, 14.0703125 -19.5 M-14.0703125 -19.5 C-6.121332739414801 -19.5, 1.8276470211703977 -19.5, 14.0703125 -19.5 M14.0703125 -19.5 C14.0703125 -19.5, 14.070312499999998 -19.5, 14.070312499999998 -19.5 M14.0703125 -19.5 C14.0703125 -19.5, 14.070312499999998 -19.5, 14.070312499999998 -19.5 M14.070312499999998 -19.5 C14.40100534122432 -19.489395324236504, 14.73169818244864 -19.47879064847301, 15.3196817896239 -19.45993515863156 M14.070312499999998 -19.5 C14.329627898724672 -19.491684259889702, 14.588943297449344 -19.483368519779408, 15.3196817896239 -19.45993515863156 M15.3196817896239 -19.45993515863156 C15.739139829388112 -19.419470546007606, 16.158597869152324 -19.37900593338365, 16.563917152847864 -19.3399052695533 M15.3196817896239 -19.45993515863156 C15.744273394321803 -19.418975317172467, 16.168864999019707 -19.378015475713376, 16.563917152847864 -19.3399052695533 M16.563917152847864 -19.3399052695533 C16.86189070014505 -19.291731217245662, 17.15986424744224 -19.243557164938025, 17.79790575967676 -19.140403561325776 M16.563917152847864 -19.3399052695533 C16.815757266736423 -19.299189712989048, 17.06759738062498 -19.2584741564248, 17.79790575967676 -19.140403561325776 M17.79790575967676 -19.140403561325776 C18.1249724876649 -19.065752714972344, 18.452039215653038 -18.991101868618912, 19.01657688623539 -18.862249829261074 M17.79790575967676 -19.140403561325776 C18.242433626072057 -19.038942976636474, 18.686961492467354 -18.937482391947167, 19.01657688623539 -18.862249829261074 M19.01657688623539 -18.862249829261074 C19.305578624593412 -18.776475630317496, 19.594580362951437 -18.690701431373913, 20.214922751460602 -18.50658706670804 M19.01657688623539 -18.862249829261074 C19.493527549890306 -18.72069337585342, 19.97047821354522 -18.579136922445763, 20.214922751460602 -18.50658706670804 M20.214922751460602 -18.50658706670804 C20.62699974451831 -18.354938924064836, 21.03907673757602 -18.20329078142163, 21.388019095147794 -18.074876768247425 M20.214922751460602 -18.50658706670804 C20.498653249813184 -18.402171620538315, 20.782383748165767 -18.297756174368587, 21.388019095147794 -18.074876768247425 M21.388019095147794 -18.074876768247425 C21.669327935347912 -17.95034968942109, 21.950636775548027 -17.825822610594752, 22.53104541279238 -17.568892924097174 M21.388019095147794 -18.074876768247425 C21.700677141780954 -17.936472325674348, 22.013335188414118 -17.79806788310127, 22.53104541279238 -17.568892924097174 M22.53104541279238 -17.568892924097174 C22.75359198224055 -17.452790521363944, 22.97613855168872 -17.336688118630715, 23.639304764076783 -16.990714730406097 M22.53104541279238 -17.568892924097174 C22.823237772064353 -17.416456357423122, 23.11543013133633 -17.264019790749074, 23.639304764076783 -16.990714730406097 M23.639304764076783 -16.990714730406097 C24.060067526902944 -16.73564587090442, 24.480830289729106 -16.48057701140274, 24.708243073605697 -16.342718045390892 M23.639304764076783 -16.990714730406097 C23.99351014901282 -16.77599334451598, 24.347715533948854 -16.561271958625866, 24.708243073605697 -16.342718045390892 M24.708243073605697 -16.342718045390892 C25.05537385781013 -16.100574637379335, 25.402504642014563 -15.858431229367778, 25.733467844578712 -15.627565626425154 M24.708243073605697 -16.342718045390892 C25.107452705647617 -16.06424668758489, 25.506662337689537 -15.78577532977889, 25.733467844578712 -15.627565626425154 M25.733467844578712 -15.627565626425154 C26.11252640654519 -15.325276510428855, 26.491584968511667 -15.022987394432558, 26.71076620850187 -14.848196188198123 M25.733467844578712 -15.627565626425154 C26.013126674493662 -15.40454515160199, 26.292785504408613 -15.181524676778826, 26.71076620850187 -14.848196188198123 M26.71076620850187 -14.848196188198123 C26.95365297921138 -14.627612849471541, 27.19653974992089 -14.407029510744959, 27.636122236767985 -14.007812326905688 M26.71076620850187 -14.848196188198123 C27.030701977544062 -14.557638987790583, 27.35063774658626 -14.267081787383042, 27.636122236767985 -14.007812326905688 M27.636122236767985 -14.007812326905688 C27.970642204940184 -13.662392995167734, 28.305162173112382 -13.31697366342978, 28.505733442968648 -13.10986736009568 M27.636122236767985 -14.007812326905688 C27.857626611631872 -13.779090874011336, 28.07913098649576 -13.550369421116985, 28.505733442968648 -13.10986736009568 M28.505733442968648 -13.10986736009568 C28.69696820805545 -12.885232123458332, 28.88820297314225 -12.660596886820983, 29.316026408126582 -12.158051136245305 M28.505733442968648 -13.10986736009568 C28.771529538033803 -12.797648142605889, 29.037325633098963 -12.485428925116098, 29.316026408126582 -12.158051136245305 M29.316026408126582 -12.158051136245305 C29.515819381966743 -11.890346752813842, 29.715612355806908 -11.622642369382381, 30.063671464640635 -11.156274872382312 M29.316026408126582 -12.158051136245305 C29.595575120379884 -11.783481329237478, 29.875123832633186 -11.408911522229653, 30.063671464640635 -11.156274872382312 M30.063671464640635 -11.156274872382312 C30.305167187377556 -10.785272591576893, 30.54666291011448 -10.414270310771474, 30.745596378604247 -10.108655082055241 M30.063671464640635 -11.156274872382312 C30.22693234339263 -10.90546232093489, 30.390193222144624 -10.654649769487467, 30.745596378604247 -10.108655082055241 M30.745596378604247 -10.108655082055241 C30.926876358997088 -9.786774120279217, 31.10815633938993 -9.464893158503195, 31.3589989742735 -9.019496659696287 M30.745596378604247 -10.108655082055241 C30.876396653288424 -9.876405949389442, 31.007196927972597 -9.644156816723644, 31.3589989742735 -9.019496659696287 M31.3589989742735 -9.019496659696287 C31.50040425717166 -8.725865564169892, 31.641809540069822 -8.432234468643498, 31.90135864880834 -7.893275190886684 M31.3589989742735 -9.019496659696287 C31.518772585273677 -8.687723337846798, 31.67854619627385 -8.35595001599731, 31.90135864880834 -7.893275190886684 M31.90135864880834 -7.893275190886684 C32.08514982684225 -7.4393074277822455, 32.26894100487615 -6.985339664677807, 32.370446729970325 -6.734618561215508 M31.90135864880834 -7.893275190886684 C32.05038177313094 -7.525185192643763, 32.19940489745354 -7.157095194400841, 32.370446729970325 -6.734618561215508 M32.370446729970325 -6.734618561215508 C32.45060247815385 -6.493202218770861, 32.53075822633737 -6.251785876326215, 32.76433563421488 -5.548287939305138 M32.370446729970325 -6.734618561215508 C32.51495388677679 -6.299386029003144, 32.65946104358325 -5.864153496790781, 32.76433563421488 -5.548287939305138 M32.76433563421488 -5.548287939305138 C32.87255497705274 -5.135600682504524, 32.98077431989059 -4.722913425703911, 33.08140678754556 -4.339158212148133 M32.76433563421488 -5.548287939305138 C32.84665170031219 -5.234381103267386, 32.92896776640949 -4.920474267229634, 33.08140678754556 -4.339158212148133 M33.08140678754556 -4.339158212148133 C33.158012463514716 -3.945804256661861, 33.23461813948387 -3.552450301175589, 33.320357276581774 -3.1121979531509023 M33.08140678754556 -4.339158212148133 C33.130235693527695 -4.088432099922817, 33.17906459950982 -3.8377059876975004, 33.320357276581774 -3.1121979531509023 M33.320357276581774 -3.1121979531509023 C33.354758690063775 -2.8453873835119596, 33.389160103545784 -2.578576813873017, 33.48020520250937 -1.872449005199798 M33.320357276581774 -3.1121979531509023 C33.3672641448067 -2.7483975460072148, 33.41417101303163 -2.3845971388635276, 33.48020520250937 -1.872449005199798 M33.48020520250937 -1.872449005199798 C33.498360583112586 -1.5896642975452224, 33.516515963715804 -1.306879589890647, 33.56029371591342 -0.6250057626472757 M33.48020520250937 -1.872449005199798 C33.50935158041156 -1.4184706428403644, 33.538497958313755 -0.9644922804809309, 33.56029371591342 -0.6250057626472757 M33.56029371591342 -0.6250057626472757 C33.56029371591342 -0.20470289693505395, 33.56029371591342 0.2155999687771678, 33.56029371591342 0.625005762647271 M33.56029371591342 -0.6250057626472757 C33.56029371591342 -0.3451641686527084, 33.56029371591342 -0.06532257465814106, 33.56029371591342 0.625005762647271 M33.56029371591342 0.625005762647271 C33.541257310441864 0.9215131437765911, 33.52222090497032 1.2180205249059113, 33.48020520250937 1.8724490051997846 M33.56029371591342 0.625005762647271 C33.53278703072832 1.0534445874017375, 33.505280345543234 1.4818834121562041, 33.48020520250937 1.8724490051997846 M33.48020520250937 1.8724490051997846 C33.42603464218091 2.292585173920246, 33.37186408185244 2.712721342640708, 33.320357276581774 3.1121979531508885 M33.48020520250937 1.8724490051997846 C33.429993559572765 2.26188059240564, 33.37978191663617 2.651312179611496, 33.320357276581774 3.1121979531508885 M33.320357276581774 3.1121979531508885 C33.24040787719921 3.522721221668819, 33.16045847781665 3.933244490186749, 33.08140678754556 4.339158212148129 M33.320357276581774 3.1121979531508885 C33.22486356898851 3.6025379590400473, 33.129369861395254 4.0928779649292055, 33.08140678754556 4.339158212148129 M33.08140678754556 4.339158212148129 C33.00986039204154 4.611995626608941, 32.93831399653751 4.884833041069753, 32.76433563421489 5.548287939305125 M33.08140678754556 4.339158212148129 C32.995464089043494 4.6668949693376565, 32.90952139054143 4.994631726527185, 32.76433563421489 5.548287939305125 M32.76433563421489 5.548287939305125 C32.661690184309585 5.857439680088412, 32.55904473440428 6.166591420871698, 32.370446729970325 6.734618561215495 M32.76433563421489 5.548287939305125 C32.607204830941996 6.021540883369432, 32.45007402766911 6.494793827433738, 32.370446729970325 6.734618561215495 M32.370446729970325 6.734618561215495 C32.222401130701954 7.100294053675324, 32.07435553143358 7.465969546135153, 31.901358648808344 7.893275190886679 M32.370446729970325 6.734618561215495 C32.22459527829154 7.094874466708087, 32.07874382661275 7.45513037220068, 31.901358648808344 7.893275190886679 M31.901358648808344 7.893275190886679 C31.713283759875942 8.283816721912778, 31.52520887094354 8.674358252938877, 31.358998974273504 9.019496659696284 M31.901358648808344 7.893275190886679 C31.72373030392775 8.262124249668966, 31.546101959047153 8.630973308451253, 31.358998974273504 9.019496659696284 M31.358998974273504 9.019496659696284 C31.122389187340527 9.43962129573477, 30.88577940040755 9.859745931773258, 30.74559637860425 10.108655082055236 M31.358998974273504 9.019496659696284 C31.23616158654283 9.237606880246402, 31.113324198812155 9.455717100796521, 30.74559637860425 10.108655082055236 M30.74559637860425 10.108655082055236 C30.530175277415218 10.439599742146838, 30.31475417622618 10.77054440223844, 30.06367146464064 11.156274872382301 M30.74559637860425 10.108655082055236 C30.546019584292967 10.41525863199049, 30.346442789981683 10.721862181925744, 30.06367146464064 11.156274872382301 M30.06367146464064 11.156274872382301 C29.878172547069262 11.404826522628909, 29.692673629497882 11.653378172875515, 29.316026408126582 12.158051136245302 M30.06367146464064 11.156274872382301 C29.86627219376443 11.420771911912892, 29.668872922888223 11.685268951443483, 29.316026408126582 12.158051136245302 M29.316026408126582 12.158051136245302 C29.147466866926738 12.356050764648243, 28.978907325726894 12.554050393051185, 28.50573344296866 13.10986736009567 M29.316026408126582 12.158051136245302 C29.001346579703707 12.527691968500298, 28.686666751280832 12.897332800755292, 28.50573344296866 13.10986736009567 M28.50573344296866 13.10986736009567 C28.17653439349321 13.449792406423681, 27.84733534401776 13.789717452751692, 27.63612223676799 14.007812326905684 M28.50573344296866 13.10986736009567 C28.291759657440306 13.330812861228198, 28.077785871911953 13.551758362360726, 27.63612223676799 14.007812326905684 M27.63612223676799 14.007812326905684 C27.408333050387423 14.21468443900491, 27.180543864006857 14.421556551104137, 26.710766208501887 14.848196188198111 M27.63612223676799 14.007812326905684 C27.31479601586646 14.299632298902536, 26.993469794964927 14.591452270899387, 26.710766208501887 14.848196188198111 M26.710766208501887 14.848196188198111 C26.41287842188999 15.08575377089418, 26.114990635278094 15.323311353590247, 25.733467844578715 15.627565626425152 M26.710766208501887 14.848196188198111 C26.49176683313673 15.022842362233693, 26.27276745777157 15.197488536269274, 25.733467844578715 15.627565626425152 M25.733467844578715 15.627565626425152 C25.37555362973572 15.877231088842983, 25.017639414892724 16.126896551260813, 24.708243073605708 16.34271804539089 M25.733467844578715 15.627565626425152 C25.51410539592536 15.780583374558383, 25.294742947272002 15.933601122691611, 24.708243073605708 16.34271804539089 M24.708243073605708 16.34271804539089 C24.4373905457397 16.506910439489392, 24.16653801787369 16.6711028335879, 23.639304764076787 16.990714730406093 M24.708243073605708 16.34271804539089 C24.300128656159224 16.590119403593476, 23.89201423871274 16.837520761796064, 23.639304764076787 16.990714730406093 M23.639304764076787 16.990714730406093 C23.299393882693906 17.16804601950023, 22.959483001311025 17.34537730859437, 22.531045412792388 17.56889292409717 M23.639304764076787 16.990714730406093 C23.28220567962051 17.177013094034052, 22.925106595164237 17.36331145766201, 22.531045412792388 17.56889292409717 M22.531045412792388 17.56889292409717 C22.091520078305855 17.763457751618553, 21.65199474381932 17.95802257913994, 21.388019095147804 18.07487676824742 M22.531045412792388 17.56889292409717 C22.114326853705347 17.753361868688152, 21.697608294618306 17.937830813279138, 21.388019095147804 18.07487676824742 M21.388019095147804 18.07487676824742 C21.13388545872803 18.16840029563548, 20.879751822308258 18.26192382302354, 20.214922751460616 18.506587066708033 M21.388019095147804 18.07487676824742 C21.1123754256997 18.176316186626472, 20.83673175625159 18.277755605005524, 20.214922751460616 18.506587066708033 M20.214922751460616 18.506587066708033 C19.90025537009376 18.599978693774926, 19.585587988726903 18.693370320841822, 19.016576886235413 18.86224982926107 M20.214922751460616 18.506587066708033 C19.760281770153046 18.641522123500913, 19.305640788845476 18.77645718029379, 19.016576886235413 18.86224982926107 M19.016576886235413 18.86224982926107 C18.771300096032846 18.918232656044168, 18.526023305830282 18.974215482827265, 17.797905759676766 19.140403561325773 M19.016576886235413 18.86224982926107 C18.579587548737265 18.9619897939231, 18.142598211239118 19.061729758585123, 17.797905759676766 19.140403561325773 M17.797905759676766 19.140403561325773 C17.3893400910167 19.20645729016065, 16.98077442235663 19.27251101899553, 16.56391715284788 19.3399052695533 M17.797905759676766 19.140403561325773 C17.460983690192275 19.194874508650354, 17.124061620707785 19.249345455974932, 16.56391715284788 19.3399052695533 M16.56391715284788 19.3399052695533 C16.181168748196885 19.376828547827674, 15.798420343545892 19.413751826102054, 15.3196817896239 19.45993515863156 M16.56391715284788 19.3399052695533 C16.170968299378234 19.377812572857376, 15.778019445908594 19.415719876161454, 15.3196817896239 19.45993515863156 M15.3196817896239 19.45993515863156 C15.027505880166197 19.46930467136196, 14.735329970708493 19.47867418409236, 14.070312500000004 19.5 M15.3196817896239 19.45993515863156 C14.837586736994224 19.475395008628297, 14.355491684364546 19.49085485862504, 14.070312500000004 19.5 M14.070312500000004 19.5 C14.070312500000002 19.5, 14.070312500000002 19.5, 14.0703125 19.5 M14.070312500000004 19.5 C14.070312500000004 19.5, 14.070312500000002 19.5, 14.0703125 19.5 M14.0703125 19.5 C4.624799336850094 19.5, -4.820713826299812 19.5, -14.070312499999996 19.5 M14.0703125 19.5 C3.0143193880498558 19.5, -8.041673723900288 19.5, -14.070312499999996 19.5 M-14.070312499999996 19.5 C-14.49294440020625 19.486447017563474, -14.915576300412503 19.47289403512695, -15.319681789623893 19.45993515863156 M-14.070312499999996 19.5 C-14.415896664991093 19.488917788467507, -14.761480829982192 19.477835576935014, -15.319681789623893 19.45993515863156 M-15.319681789623893 19.45993515863156 C-15.648698877865037 19.42819527582988, -15.977715966106182 19.396455393028194, -16.56391715284787 19.3399052695533 M-15.319681789623893 19.45993515863156 C-15.59472238932431 19.433402322763175, -15.869762989024727 19.406869486894795, -16.56391715284787 19.3399052695533 M-16.56391715284787 19.3399052695533 C-16.92970029736047 19.28076828743915, -17.295483441873067 19.22163130532501, -17.79790575967676 19.140403561325773 M-16.56391715284787 19.3399052695533 C-16.856069934333334 19.292672273521386, -17.1482227158188 19.245439277489474, -17.79790575967676 19.140403561325773 M-17.79790575967676 19.140403561325773 C-18.27405127117399 19.03172645546637, -18.75019678267122 18.923049349606966, -19.016576886235388 18.862249829261074 M-17.79790575967676 19.140403561325773 C-18.15612717328603 19.05864186128264, -18.514348586895306 18.97688016123951, -19.016576886235388 18.862249829261074 M-19.016576886235388 18.862249829261074 C-19.28971469077472 18.781183962603393, -19.56285249531405 18.700118095945715, -20.21492275146059 18.506587066708043 M-19.016576886235388 18.862249829261074 C-19.437848948058868 18.737218492614044, -19.859121009882347 18.61218715596701, -20.21492275146059 18.506587066708043 M-20.21492275146059 18.506587066708043 C-20.50186133480689 18.400991015605417, -20.788799918153185 18.295394964502794, -21.388019095147797 18.074876768247425 M-20.21492275146059 18.506587066708043 C-20.631784311790696 18.353178159080542, -21.048645872120805 18.19976925145304, -21.388019095147797 18.074876768247425 M-21.388019095147797 18.074876768247425 C-21.719626065962192 17.92808419903918, -22.051233036776587 17.781291629830935, -22.53104541279238 17.568892924097174 M-21.388019095147797 18.074876768247425 C-21.752287089555928 17.913626132749073, -22.116555083964062 17.752375497250725, -22.53104541279238 17.568892924097174 M-22.53104541279238 17.568892924097174 C-22.8511152560639 17.40191269187694, -23.171185099335418 17.234932459656708, -23.63930476407678 16.990714730406097 M-22.53104541279238 17.568892924097174 C-22.970577606287662 17.33958926028449, -23.410109799782944 17.11028559647181, -23.63930476407678 16.990714730406097 M-23.63930476407678 16.990714730406097 C-23.96229660909431 16.794915175845702, -24.285288454111843 16.599115621285307, -24.708243073605686 16.3427180453909 M-23.63930476407678 16.990714730406097 C-23.922459393443315 16.8190647300828, -24.20561402280985 16.6474147297595, -24.708243073605686 16.3427180453909 M-24.708243073605686 16.3427180453909 C-25.117585363754063 16.057178583925534, -25.52692765390244 15.77163912246017, -25.733467844578712 15.627565626425156 M-24.708243073605686 16.3427180453909 C-24.979972844033558 16.153171120532594, -25.25170261446143 15.963624195674289, -25.733467844578712 15.627565626425156 M-25.733467844578712 15.627565626425156 C-25.98107452146682 15.430105890697286, -26.228681198354927 15.232646154969416, -26.71076620850187 14.848196188198125 M-25.733467844578712 15.627565626425156 C-25.93218761935489 15.469091894196445, -26.130907394131075 15.310618161967737, -26.71076620850187 14.848196188198125 M-26.71076620850187 14.848196188198125 C-26.947774783843023 14.632951270976559, -27.184783359184173 14.417706353754994, -27.636122236767974 14.007812326905697 M-26.71076620850187 14.848196188198125 C-27.04957073339218 14.540502882969246, -27.38837525828249 14.232809577740365, -27.636122236767974 14.007812326905697 M-27.636122236767974 14.007812326905697 C-27.9537654146853 13.679819666716147, -28.27140859260263 13.351827006526598, -28.505733442968655 13.109867360095677 M-27.636122236767974 14.007812326905697 C-27.864779477549583 13.771704952690087, -28.09343671833119 13.535597578474476, -28.505733442968655 13.109867360095677 M-28.505733442968655 13.109867360095677 C-28.819963466009 12.740754894837652, -29.134193489049345 12.371642429579628, -29.31602640812658 12.158051136245307 M-28.505733442968655 13.109867360095677 C-28.81562890686904 12.74584651464685, -29.12552437076943 12.38182566919802, -29.31602640812658 12.158051136245307 M-29.31602640812658 12.158051136245307 C-29.566439001466524 11.82252107422634, -29.816851594806472 11.486991012207376, -30.063671464640635 11.156274872382316 M-29.31602640812658 12.158051136245307 C-29.546930485434313 11.848660708447131, -29.77783456274205 11.539270280648957, -30.063671464640635 11.156274872382316 M-30.063671464640635 11.156274872382316 C-30.25136485280009 10.867927425437621, -30.439058240959547 10.579579978492928, -30.745596378604244 10.108655082055249 M-30.063671464640635 11.156274872382316 C-30.309747076723156 10.77823665166957, -30.555822688805677 10.400198430956822, -30.745596378604244 10.108655082055249 M-30.745596378604244 10.108655082055249 C-30.93638726269826 9.76988654767435, -31.127178146792282 9.431118013293451, -31.3589989742735 9.019496659696289 M-30.745596378604244 10.108655082055249 C-30.944258711994944 9.755909992377417, -31.14292104538565 9.403164902699585, -31.3589989742735 9.019496659696289 M-31.3589989742735 9.019496659696289 C-31.54708614051358 8.628929634578107, -31.73517330675366 8.238362609459925, -31.90135864880834 7.893275190886686 M-31.3589989742735 9.019496659696289 C-31.556516814461798 8.609346638340531, -31.7540346546501 8.199196616984775, -31.90135864880834 7.893275190886686 M-31.90135864880834 7.893275190886686 C-32.01150256540949 7.6212175873941055, -32.121646482010625 7.349159983901524, -32.370446729970325 6.73461856121551 M-31.90135864880834 7.893275190886686 C-32.0740737923517 7.466665447114452, -32.24678893589506 7.040055703342219, -32.370446729970325 6.73461856121551 M-32.370446729970325 6.73461856121551 C-32.51218611216522 6.307722125148207, -32.6539254943601 5.880825689080906, -32.76433563421488 5.5482879393051325 M-32.370446729970325 6.73461856121551 C-32.521088799328986 6.280908649861501, -32.671730868687646 5.827198738507493, -32.76433563421488 5.5482879393051325 M-32.76433563421488 5.5482879393051325 C-32.878303979435394 5.113677244786039, -32.992272324655914 4.679066550266945, -33.08140678754556 4.339158212148136 M-32.76433563421488 5.5482879393051325 C-32.88353908148144 5.093713531776919, -33.00274252874799 4.639139124248706, -33.08140678754556 4.339158212148136 M-33.08140678754556 4.339158212148136 C-33.15984821289708 3.9363780715691763, -33.23828963824861 3.533597930990217, -33.320357276581774 3.112197953150904 M-33.08140678754556 4.339158212148136 C-33.167561014457675 3.896774465656735, -33.25371524136979 3.4543907191653345, -33.320357276581774 3.112197953150904 M-33.320357276581774 3.112197953150904 C-33.361135147720766 2.795932837098338, -33.40191301885976 2.4796677210457716, -33.48020520250937 1.872449005199809 M-33.320357276581774 3.112197953150904 C-33.379817273014844 2.6510379625203915, -33.43927726944791 2.189877971889879, -33.48020520250937 1.872449005199809 M-33.48020520250937 1.872449005199809 C-33.508997072795125 1.4239923851197864, -33.537788943080876 0.975535765039764, -33.56029371591342 0.6250057626472781 M-33.48020520250937 1.872449005199809 C-33.510626327326406 1.3986154306844143, -33.54104745214345 0.9247818561690193, -33.56029371591342 0.6250057626472781 M-33.56029371591342 0.6250057626472781 C-33.56029371591342 0.172555655282232, -33.56029371591342 -0.27989445208281416, -33.56029371591342 -0.6250057626472687 M-33.56029371591342 0.6250057626472781 C-33.56029371591342 0.27763463007832184, -33.56029371591342 -0.06973650249063446, -33.56029371591342 -0.6250057626472687 M-33.56029371591342 -0.6250057626472687 C-33.534300512940796 -1.0298708802816752, -33.50830730996817 -1.4347359979160816, -33.48020520250937 -1.8724490051997822 M-33.56029371591342 -0.6250057626472687 C-33.529120840016056 -1.1105484670412458, -33.49794796411869 -1.596091171435223, -33.48020520250937 -1.8724490051997822 M-33.48020520250937 -1.8724490051997822 C-33.42696670753055 -2.2853562591255088, -33.37372821255174 -2.6982635130512356, -33.320357276581774 -3.112197953150895 M-33.48020520250937 -1.8724490051997822 C-33.439050066801016 -2.191640110752962, -33.397894931092665 -2.510831216306142, -33.320357276581774 -3.112197953150895 M-33.320357276581774 -3.112197953150895 C-33.23316432597697 -3.559915326269918, -33.14597137537217 -4.007632699388941, -33.08140678754556 -4.339158212148126 M-33.320357276581774 -3.112197953150895 C-33.26411933775045 -3.400967883157154, -33.20788139891913 -3.689737813163413, -33.08140678754556 -4.339158212148126 M-33.08140678754556 -4.339158212148126 C-32.9601715604781 -4.801480676636129, -32.83893633341065 -5.263803141124131, -32.76433563421489 -5.548287939305123 M-33.08140678754556 -4.339158212148126 C-32.97773734237277 -4.734494737213728, -32.874067897199986 -5.12983126227933, -32.76433563421489 -5.548287939305123 M-32.76433563421489 -5.548287939305123 C-32.65079294951809 -5.890260415041804, -32.5372502648213 -6.232232890778485, -32.37044672997033 -6.734618561215485 M-32.76433563421489 -5.548287939305123 C-32.65438780881361 -5.8794332716067474, -32.54443998341234 -6.210578603908371, -32.37044672997033 -6.734618561215485 M-32.37044672997033 -6.734618561215485 C-32.26347677533683 -6.998836417283633, -32.156506820703314 -7.2630542733517816, -31.901358648808344 -7.893275190886676 M-32.37044672997033 -6.734618561215485 C-32.25531485253419 -7.018996524406186, -32.14018297509804 -7.303374487596885, -31.901358648808344 -7.893275190886676 M-31.901358648808344 -7.893275190886676 C-31.764982549122053 -8.176463079866341, -31.628606449435765 -8.459650968846006, -31.358998974273504 -9.019496659696282 M-31.901358648808344 -7.893275190886676 C-31.783610958100265 -8.137780790038983, -31.665863267392186 -8.382286389191291, -31.358998974273504 -9.019496659696282 M-31.358998974273504 -9.019496659696282 C-31.16239119819475 -9.368593674820264, -30.965783422115994 -9.717690689944249, -30.745596378604247 -10.108655082055243 M-31.358998974273504 -9.019496659696282 C-31.124341641032913 -9.436154516496563, -30.889684307792326 -9.852812373296842, -30.745596378604247 -10.108655082055243 M-30.745596378604247 -10.108655082055243 C-30.547486594577673 -10.413004910245764, -30.3493768105511 -10.717354738436287, -30.06367146464064 -11.156274872382308 M-30.745596378604247 -10.108655082055243 C-30.5900687035148 -10.347587356021052, -30.434541028425354 -10.586519629986858, -30.06367146464064 -11.156274872382308 M-30.06367146464064 -11.156274872382308 C-29.80683257153129 -11.500415590644323, -29.54999367842194 -11.84455630890634, -29.316026408126586 -12.158051136245302 M-30.06367146464064 -11.156274872382308 C-29.802370473393886 -11.506394395642943, -29.54106948214713 -11.856513918903577, -29.316026408126586 -12.158051136245302 M-29.316026408126586 -12.158051136245302 C-29.02486192471542 -12.500069506188508, -28.73369744130425 -12.842087876131712, -28.505733442968662 -13.10986736009567 M-29.316026408126586 -12.158051136245302 C-28.99563574259695 -12.534400242721738, -28.67524507706731 -12.910749349198174, -28.505733442968662 -13.10986736009567 M-28.505733442968662 -13.10986736009567 C-28.26208786247673 -13.361451425627768, -28.018442281984793 -13.613035491159865, -27.636122236767996 -14.007812326905677 M-28.505733442968662 -13.10986736009567 C-28.310070273007053 -13.31190564732604, -28.114407103045444 -13.513943934556409, -27.636122236767996 -14.007812326905677 M-27.636122236767996 -14.007812326905677 C-27.41383818757493 -14.209684819069162, -27.19155413838187 -14.411557311232645, -26.710766208501887 -14.848196188198107 M-27.636122236767996 -14.007812326905677 C-27.40004127230547 -14.222214812470515, -27.16396030784294 -14.436617298035351, -26.710766208501887 -14.848196188198107 M-26.710766208501887 -14.848196188198107 C-26.39385103182172 -15.10092760813351, -26.076935855141546 -15.353659028068911, -25.73346784457872 -15.627565626425149 M-26.710766208501887 -14.848196188198107 C-26.397935797865124 -15.097670115914084, -26.085105387228356 -15.34714404363006, -25.73346784457872 -15.627565626425149 M-25.73346784457872 -15.627565626425149 C-25.429464712849033 -15.83962505103631, -25.12546158111935 -16.05168447564747, -24.70824307360571 -16.342718045390885 M-25.73346784457872 -15.627565626425149 C-25.40403741731382 -15.857362031671789, -25.074606990048924 -16.08715843691843, -24.70824307360571 -16.342718045390885 M-24.70824307360571 -16.342718045390885 C-24.45170551669903 -16.498232619969738, -24.19516795979235 -16.653747194548593, -23.63930476407679 -16.99071473040609 M-24.70824307360571 -16.342718045390885 C-24.30122517542838 -16.589454687168647, -23.894207277251052 -16.836191328946413, -23.63930476407679 -16.99071473040609 M-23.63930476407679 -16.99071473040609 C-23.210512513662152 -17.214415372792864, -22.781720263247514 -17.438116015179634, -22.531045412792388 -17.56889292409717 M-23.63930476407679 -16.99071473040609 C-23.37918397802376 -17.12641957787464, -23.11906319197073 -17.262124425343192, -22.531045412792388 -17.56889292409717 M-22.531045412792388 -17.56889292409717 C-22.13373626284006 -17.744769899023883, -21.73642711288773 -17.920646873950595, -21.388019095147804 -18.07487676824742 M-22.531045412792388 -17.56889292409717 C-22.12579475133902 -17.748285370588825, -21.72054408988565 -17.92767781708048, -21.388019095147804 -18.07487676824742 M-21.388019095147804 -18.07487676824742 C-21.096407397526118 -18.182192568601184, -20.804795699904435 -18.289508368954948, -20.21492275146062 -18.506587066708033 M-21.388019095147804 -18.07487676824742 C-21.105046036949076 -18.17901346943883, -20.82207297875035 -18.283150170630236, -20.21492275146062 -18.506587066708033 M-20.21492275146062 -18.506587066708033 C-19.858013704951755 -18.61251579825805, -19.50110465844289 -18.718444529808064, -19.016576886235413 -18.862249829261067 M-20.21492275146062 -18.506587066708033 C-19.766628444933772 -18.63963846374037, -19.31833413840693 -18.7726898607727, -19.016576886235413 -18.862249829261067 M-19.016576886235413 -18.862249829261067 C-18.633084063987035 -18.949779563414722, -18.249591241738656 -19.037309297568378, -17.797905759676766 -19.140403561325773 M-19.016576886235413 -18.862249829261067 C-18.772066177701127 -18.91805780290253, -18.527555469166842 -18.97386577654399, -17.797905759676766 -19.140403561325773 M-17.797905759676766 -19.140403561325773 C-17.4740025275123 -19.192769723995042, -17.150099295347836 -19.245135886664315, -16.563917152847882 -19.3399052695533 M-17.797905759676766 -19.140403561325773 C-17.419825786781345 -19.201528599289524, -17.041745813885925 -19.262653637253276, -16.563917152847882 -19.3399052695533 M-16.563917152847882 -19.3399052695533 C-16.23138573446608 -19.37198417555705, -15.898854316084279 -19.4040630815608, -15.319681789623903 -19.45993515863156 M-16.563917152847882 -19.3399052695533 C-16.2022499320572 -19.374794871374505, -15.840582711266517 -19.40968447319571, -15.319681789623903 -19.45993515863156 M-15.319681789623903 -19.45993515863156 C-14.929771838873927 -19.472438811838433, -14.539861888123951 -19.484942465045304, -14.070312500000005 -19.5 M-15.319681789623903 -19.45993515863156 C-15.0348985005789 -19.46906760441419, -14.750115211533897 -19.478200050196815, -14.070312500000005 -19.5 M-14.070312500000005 -19.5 C-14.070312500000004 -19.5, -14.070312500000002 -19.5, -14.0703125 -19.5 M-14.070312500000005 -19.5 C-14.070312500000004 -19.5, -14.070312500000004 -19.5, -14.0703125 -19.5" stroke="#9370DB" stroke-width="1.3" fill="none" stroke-dasharray="0 0" style=""/></g><g class="label" style="" transform="translate(-21.1953125, -12)"><rect/><text x="21.20" y="12.00" text-anchor="middle" dominant-baseline="middle" font-family="Arial, sans-serif" font-size="14" fill="#333">Query</text></g></g><g class="node default" id="flowchart-AD-1" transform="translate(208.97996520996094, 87)"><rect class="basic label-container" style="fill:#c4b5fd !important;stroke:#7c3aed !important;stroke-width:2px !important" x="-83.859375" y="-27" width="167.71875" height="54"/><g class="label" style="color:#0f172a !important" transform="translate(-53.859375, -12)"><rect/><text x="53.86" y="12.00" text-anchor="middle" dominant-baseline="middle" font-family="Arial, sans-serif" font-size="14" fill="#333">Alpha Detector</text></g></g><g class="node default" id="flowchart-BM-3" transform="translate(471.13621520996094, 35)"><rect class="basic label-container" style="fill:#fef08a !important;stroke:#ca8a04 !important;stroke-width:2px !important" x="-70.4296875" y="-27" width="140.859375" height="54"/><g class="label" style="color:#0f172a !important" transform="translate(-40.4296875, -12)"><rect/><text x="40.43" y="12.00" text-anchor="middle" dominant-baseline="middle" font-family="Arial, sans-serif" font-size="14" fill="#333">BM25 Index</text></g></g><g class="node default" id="flowchart-SEM-5" transform="translate(471.13621520996094, 139)"><rect class="basic label-container" style="fill:#bae6fd !important;stroke:#0284c7 !important;stroke-width:2px !important" x="-89.109375" y="-27" width="178.21875" height="54"/><g class="label" style="color:#0f172a !important" transform="translate(-59.109375, -12)"><rect/><text x="59.11" y="12.00" text-anchor="middle" dominant-baseline="middle" font-family="Arial, sans-serif" font-size="14" fill="#333">Semantic Search</text></g></g><g class="node default" id="flowchart-RRF-7" transform="translate(678.9252777099609, 87)"><rect class="basic label-container" style="fill:#e2e8f0 !important;stroke:#64748b !important;stroke-width:2px !important" x="-68.6796875" y="-27" width="137.359375" height="54"/><g class="label" style="color:#0f172a !important" transform="translate(-38.6796875, -12)"><rect/><text x="38.68" y="12.00" text-anchor="middle" dominant-baseline="middle" font-family="Arial, sans-serif" font-size="14" fill="#333">RRF Fusion</text></g></g><g class="node default" id="flowchart-TOP-11" transform="translate(857.3996353149414, 87)"><g class="basic label-container outer-path"><path d="M-40.3046875 -19.5 C-10.450220177658426 -19.5, 19.404247144683147 -19.5, 40.3046875 -19.5 C40.3046875 -19.5, 40.3046875 -19.5, 40.3046875 -19.5 C40.729644613353834 -19.486372452503584, 41.15460172670767 -19.472744905007172, 41.5540567896239 -19.45993515863156 C41.856773366114815 -19.43073245456743, 42.15948994260573 -19.401529750503297, 42.798292152847864 -19.3399052695533 C43.26064673323822 -19.26515536660911, 43.72300131362857 -19.19040546366492, 44.03228075967676 -19.140403561325776 C44.44902775799452 -19.045283778488063, 44.865774756312284 -18.95016399565035, 45.25095188623539 -18.862249829261074 C45.560688279475166 -18.770321693587015, 45.87042467271494 -18.678393557912955, 46.449297751460605 -18.50658706670804 C46.68579609487155 -18.41955349016609, 46.92229443828249 -18.332519913624143, 47.6223940951478 -18.074876768247425 C47.86676544157086 -17.966700822204366, 48.11113678799393 -17.85852487616131, 48.76542041279238 -17.568892924097174 C49.01743578961714 -17.43741666343125, 49.2694511664419 -17.305940402765327, 49.87367976407678 -16.990714730406097 C50.21502374354639 -16.783790004091742, 50.55636772301599 -16.576865277777387, 50.9426180736057 -16.342718045390892 C51.33727474588115 -16.067422635223526, 51.731931418156606 -15.792127225056161, 51.96784284457871 -15.627565626425154 C52.256479072193585 -15.39738591583489, 52.54511529980845 -15.167206205244625, 52.945141208501866 -14.848196188198123 C53.172831186506414 -14.641414174521088, 53.40052116451096 -14.434632160844052, 53.87049723676799 -14.007812326905688 C54.176147627282575 -13.692203204335625, 54.48179801779715 -13.376594081765564, 54.74010844296865 -13.10986736009568 C54.91877551020242 -12.89999485647876, 55.097442577436205 -12.690122352861838, 55.55040140812658 -12.158051136245305 C55.81601947847041 -11.802147120288591, 56.081637548814236 -11.446243104331877, 56.298046464640635 -11.156274872382312 C56.52224802650383 -10.811841066811374, 56.74644958836702 -10.467407261240435, 56.97997137860425 -10.108655082055241 C57.12990849974877 -9.842426540683256, 57.279845620893305 -9.576197999311269, 57.593373974273504 -9.019496659696287 C57.709361476878 -8.778646128803054, 57.825348979482506 -8.537795597909819, 58.13573364880834 -7.893275190886684 C58.31876782064601 -7.441177247722662, 58.501801992483685 -6.989079304558638, 58.604821729970325 -6.734618561215508 C58.708859855087425 -6.421272304586936, 58.81289798020453 -6.1079260479583635, 58.99871063421488 -5.548287939305138 C59.070507275045024 -5.27449623095884, 59.14230391587516 -5.0007045226125415, 59.31578178754556 -4.339158212148133 C59.399123516823856 -3.9112160465848085, 59.48246524610215 -3.483273881021484, 59.554732276581774 -3.1121979531509023 C59.61744263060565 -2.625828830901806, 59.68015298462953 -2.1394597086527094, 59.71458020250937 -1.872449005199798 C59.73491261595206 -1.555755253801091, 59.75524502939476 -1.239061502402384, 59.79466871591342 -0.6250057626472757 C59.79466871591342 -0.3144089650174846, 59.79466871591342 -0.0038121673876935214, 59.79466871591342 0.625005762647271 C59.77162010251082 0.9840065208985695, 59.74857148910822 1.343007279149868, 59.71458020250937 1.8724490051997846 C59.665907547303156 2.2499445074762443, 59.617234892096945 2.627440009752704, 59.554732276581774 3.1121979531508885 C59.50337962879296 3.3758829461604885, 59.45202698100415 3.6395679391700884, 59.31578178754556 4.339158212148129 C59.234609247019044 4.648704289577334, 59.153436706492535 4.9582503670065385, 58.99871063421489 5.548287939305125 C58.88502115875888 5.890702525420621, 58.771331683302876 6.233117111536116, 58.604821729970325 6.734618561215495 C58.447249740864706 7.123824420753537, 58.289677751759086 7.513030280291578, 58.13573364880834 7.893275190886679 C57.92966832070042 8.321174253794469, 57.72360299259251 8.749073316702258, 57.593373974273504 9.019496659696284 C57.38223455500116 9.39439607879892, 57.17109513572881 9.769295497901556, 56.97997137860425 10.108655082055236 C56.72250117244972 10.504198459139516, 56.465030966295195 10.899741836223795, 56.29804646464064 11.156274872382301 C56.00413909721026 11.550083969227016, 55.71023172977988 11.94389306607173, 55.55040140812658 12.158051136245302 C55.288378119487845 12.465838600627853, 55.026354830849115 12.773626065010403, 54.74010844296866 13.10986736009567 C54.40673190571592 13.454106005531857, 54.07335536846318 13.798344650968042, 53.87049723676799 14.007812326905684 C53.58753455029585 14.264791551977261, 53.30457186382371 14.521770777048838, 52.94514120850189 14.848196188198111 C52.67595007415072 15.062868954366234, 52.40675893979955 15.277541720534357, 51.96784284457871 15.627565626425152 C51.69151825333887 15.820317699375305, 51.41519366209902 16.01306977232546, 50.94261807360571 16.34271804539089 C50.57799432068555 16.563755107178103, 50.21337056776539 16.78479216896532, 49.87367976407678 16.990714730406093 C49.54776143154447 17.160746115727544, 49.22184309901216 17.330777501048996, 48.76542041279239 17.56889292409717 C48.36919331520808 17.744290906538502, 47.972966217623764 17.919688888979838, 47.622394095147804 18.07487676824742 C47.368409471119236 18.168345457698063, 47.11442484709066 18.261814147148705, 46.44929775146062 18.506587066708033 C46.000576342551376 18.639765225485558, 45.55185493364213 18.772943384263083, 45.25095188623541 18.86224982926107 C44.76870890397858 18.972318643031638, 44.28646592172175 19.082387456802202, 44.032280759676766 19.140403561325773 C43.76638662028687 19.183391263742482, 43.50049248089698 19.226378966159196, 42.79829215284788 19.3399052695533 C42.527313600355434 19.366046244612853, 42.25633504786299 19.39218721967241, 41.5540567896239 19.45993515863156 C41.08345022456742 19.475026595192812, 40.612843659510936 19.49011803175406, 40.30468750000001 19.5 C40.30468750000001 19.5, 40.3046875 19.5, 40.3046875 19.5 C14.698086644459579 19.5, -10.908514211080842 19.5, -40.30468749999999 19.5 C-40.655238764551 19.48875850325249, -41.005790029102016 19.477517006504986, -41.55405678962389 19.45993515863156 C-41.991647679835474 19.417721291732892, -42.429238570047055 19.375507424834222, -42.79829215284787 19.3399052695533 C-43.12780501206206 19.286632185885935, -43.45731787127625 19.233359102218575, -44.03228075967676 19.140403561325773 C-44.51658204430439 19.02986495347075, -45.00088332893203 18.919326345615726, -45.250951886235384 18.862249829261074 C-45.60858969547867 18.756104804756838, -45.96622750472196 18.6499597802526, -46.44929775146059 18.506587066708043 C-46.80354999121142 18.376218967807933, -47.15780223096224 18.245850868907823, -47.6223940951478 18.074876768247425 C-47.99086957649874 17.911763603090158, -48.35934505784969 17.748650437932888, -48.76542041279238 17.568892924097174 C-49.13529257859741 17.37593085211112, -49.505164744402435 17.182968780125066, -49.87367976407678 16.990714730406097 C-50.28729659608674 16.739977776159353, -50.7009134280967 16.48924082191261, -50.942618073605686 16.3427180453909 C-51.30759706566411 16.088124500216864, -51.67257605772254 15.833530955042825, -51.96784284457871 15.627565626425156 C-52.23841333603212 15.411792859674229, -52.50898382748553 15.196020092923302, -52.945141208501866 14.848196188198125 C-53.20795649852317 14.609514295512302, -53.470771788544475 14.370832402826476, -53.870497236767974 14.007812326905697 C-54.114215103976825 13.756153619403532, -54.357932971185676 13.504494911901368, -54.740108442968655 13.109867360095677 C-54.95151962023496 12.861531761641897, -55.162930797501275 12.613196163188118, -55.550401408126575 12.158051136245307 C-55.735893322398596 11.909508869781828, -55.921385236670616 11.66096660331835, -56.298046464640635 11.156274872382316 C-56.44507877691217 10.930393757029155, -56.5921110891837 10.704512641675993, -56.97997137860425 10.108655082055249 C-57.19407518143908 9.728492099761025, -57.40817898427392 9.348329117466804, -57.593373974273504 9.019496659696289 C-57.70243443038278 8.79303028906544, -57.811494886492056 8.56656391843459, -58.13573364880834 7.893275190886686 C-58.23585962756206 7.645962087560902, -58.335985606315774 7.398648984235116, -58.604821729970325 6.73461856121551 C-58.72372651964023 6.376496279635212, -58.84263130931014 6.018373998054915, -58.99871063421488 5.5482879393051325 C-59.10393998312001 5.147002825241581, -59.209169332025134 4.745717711178031, -59.31578178754556 4.339158212148136 C-59.3766535739436 4.026594454250816, -59.43752536034164 3.7140306963534955, -59.554732276581774 3.112197953150904 C-59.60215959274789 2.744361054549453, -59.649586908913996 2.376524155948002, -59.71458020250937 1.872449005199809 C-59.738135524390344 1.5055558533900126, -59.76169084627132 1.1386627015802162, -59.79466871591342 0.6250057626472781 C-59.79466871591342 0.3522951823435218, -59.79466871591342 0.07958460203976547, -59.79466871591342 -0.6250057626472687 C-59.76677222272048 -1.0595161617712352, -59.73887572952755 -1.4940265608952017, -59.71458020250937 -1.8724490051997822 C-59.6694634562431 -2.2223655799316857, -59.624346709976834 -2.572282154663589, -59.554732276581774 -3.112197953150895 C-59.47881386873211 -3.5020229320977485, -59.40289546088245 -3.8918479110446014, -59.31578178754556 -4.339158212148126 C-59.23991162609966 -4.628484020077323, -59.16404146465376 -4.9178098280065194, -58.99871063421489 -5.548287939305123 C-58.85624626137634 -5.977367931679539, -58.713781888537795 -6.406447924053955, -58.60482172997033 -6.734618561215485 C-58.42499849194467 -7.178785435784668, -58.245175253919 -7.622952310353852, -58.13573364880834 -7.893275190886676 C-58.01967345126604 -8.134276674373684, -57.903613253723734 -8.375278157860693, -57.593373974273504 -9.019496659696282 C-57.38485713320043 -9.389739425641276, -57.17634029212736 -9.759982191586271, -56.97997137860425 -10.108655082055243 C-56.831200956338215 -10.337206401107837, -56.68243053407219 -10.565757720160429, -56.29804646464064 -11.156274872382308 C-56.0114815643811 -11.540245732130618, -55.72491666412156 -11.924216591878928, -55.55040140812659 -12.158051136245302 C-55.37361637795172 -12.365712892041886, -55.19683134777686 -12.573374647838468, -54.74010844296866 -13.10986736009567 C-54.504149446403375 -13.353514396643229, -54.26819044983808 -13.59716143319079, -53.870497236767996 -14.007812326905677 C-53.61994132248488 -14.235360578911394, -53.36938540820175 -14.46290883091711, -52.94514120850189 -14.848196188198107 C-52.59469304443484 -15.127669273224274, -52.24424488036779 -15.407142358250443, -51.96784284457872 -15.627565626425149 C-51.579022015691876 -15.898790204874212, -51.19020118680503 -16.170014783323275, -50.942618073605715 -16.342718045390885 C-50.640826349528986 -16.525665962051225, -50.339034625452264 -16.708613878711564, -49.87367976407679 -16.99071473040609 C-49.47281762701463 -17.199844250546967, -49.071955489952465 -17.408973770687844, -48.76542041279239 -17.56889292409717 C-48.353939982671164 -17.75104310437856, -47.94245955254995 -17.93319328465995, -47.622394095147804 -18.07487676824742 C-47.371029871492524 -18.167381126137975, -47.119665647837245 -18.25988548402853, -46.44929775146062 -18.506587066708033 C-46.06805888963624 -18.619736759733886, -45.68682002781187 -18.73288645275974, -45.25095188623541 -18.862249829261067 C-44.936776313495166 -18.933958353551816, -44.622600740754926 -19.005666877842565, -44.032280759676766 -19.140403561325773 C-43.58317459236538 -19.213011563586335, -43.13406842505399 -19.285619565846897, -42.79829215284788 -19.3399052695533 C-42.508055412383314 -19.367904058845166, -42.21781867191875 -19.395902848137034, -41.5540567896239 -19.45993515863156 C-41.19490543334698 -19.471452443581654, -40.83575407707006 -19.48296972853175, -40.30468750000001 -19.5 C-40.30468750000001 -19.5, -40.30468750000001 -19.5, -40.3046875 -19.5" stroke="none" stroke-width="0" fill="#ECECFF" style=""/><path d="M-40.3046875 -19.5 C-10.881137654541384 -19.5, 18.542412190917233 -19.5, 40.3046875 -19.5 M-40.3046875 -19.5 C-17.123732768401343 -19.5, 6.057221963197314 -19.5, 40.3046875 -19.5 M40.3046875 -19.5 C40.3046875 -19.5, 40.3046875 -19.5, 40.3046875 -19.5 M40.3046875 -19.5 C40.3046875 -19.5, 40.3046875 -19.5, 40.3046875 -19.5 M40.3046875 -19.5 C40.661428472433045 -19.48856001136825, 41.018169444866096 -19.477120022736504, 41.5540567896239 -19.45993515863156 M40.3046875 -19.5 C40.61292471143824 -19.490115432576513, 40.92116192287648 -19.480230865153022, 41.5540567896239 -19.45993515863156 M41.5540567896239 -19.45993515863156 C41.95627017006197 -19.42113411755306, 42.35848355050005 -19.382333076474563, 42.798292152847864 -19.3399052695533 M41.5540567896239 -19.45993515863156 C42.04667928656907 -19.41241245881649, 42.53930178351424 -19.36488975900142, 42.798292152847864 -19.3399052695533 M42.798292152847864 -19.3399052695533 C43.165031996322895 -19.280613615770218, 43.531771839797926 -19.22132196198714, 44.03228075967676 -19.140403561325776 M42.798292152847864 -19.3399052695533 C43.11567251590178 -19.28859367377622, 43.43305287895569 -19.237282077999136, 44.03228075967676 -19.140403561325776 M44.03228075967676 -19.140403561325776 C44.48692091607914 -19.036634912431214, 44.941561072481534 -18.932866263536653, 45.25095188623539 -18.862249829261074 M44.03228075967676 -19.140403561325776 C44.476874214132316 -19.03892800658972, 44.92146766858788 -18.937452451853662, 45.25095188623539 -18.862249829261074 M45.25095188623539 -18.862249829261074 C45.650997956559756 -18.74351825547348, 46.05104402688412 -18.62478668168588, 46.449297751460605 -18.50658706670804 M45.25095188623539 -18.862249829261074 C45.61023281441491 -18.75561713568147, 45.96951374259443 -18.648984442101867, 46.449297751460605 -18.50658706670804 M46.449297751460605 -18.50658706670804 C46.89801036457791 -18.341456677226947, 47.3467229776952 -18.176326287745855, 47.6223940951478 -18.074876768247425 M46.449297751460605 -18.50658706670804 C46.8609952492246 -18.35507858184094, 47.272692746988604 -18.203570096973834, 47.6223940951478 -18.074876768247425 M47.6223940951478 -18.074876768247425 C48.0681852996963 -17.877538225920038, 48.51397650424481 -17.680199683592647, 48.76542041279238 -17.568892924097174 M47.6223940951478 -18.074876768247425 C47.85221228888086 -17.973143071196297, 48.08203048261392 -17.871409374145166, 48.76542041279238 -17.568892924097174 M48.76542041279238 -17.568892924097174 C49.17102239196772 -17.35729063136187, 49.57662437114305 -17.145688338626563, 49.87367976407678 -16.990714730406097 M48.76542041279238 -17.568892924097174 C49.068212863893216 -17.41092629630569, 49.37100531499405 -17.252959668514205, 49.87367976407678 -16.990714730406097 M49.87367976407678 -16.990714730406097 C50.17710511530242 -16.806776499367828, 50.48053046652805 -16.62283826832956, 50.9426180736057 -16.342718045390892 M49.87367976407678 -16.990714730406097 C50.12763167379632 -16.836767590347037, 50.38158358351587 -16.682820450287977, 50.9426180736057 -16.342718045390892 M50.9426180736057 -16.342718045390892 C51.30410295282497 -16.090561842075743, 51.66558783204423 -15.838405638760598, 51.96784284457871 -15.627565626425154 M50.9426180736057 -16.342718045390892 C51.31942175686377 -16.07987610751862, 51.696225440121836 -15.817034169646343, 51.96784284457871 -15.627565626425154 M51.96784284457871 -15.627565626425154 C52.22949795071227 -15.41890264221844, 52.491153056845825 -15.210239658011725, 52.945141208501866 -14.848196188198123 M51.96784284457871 -15.627565626425154 C52.35846711607431 -15.316053164855838, 52.749091387569905 -15.004540703286521, 52.945141208501866 -14.848196188198123 M52.945141208501866 -14.848196188198123 C53.15543706765109 -14.657211053042326, 53.36573292680032 -14.46622591788653, 53.87049723676799 -14.007812326905688 M52.945141208501866 -14.848196188198123 C53.19422933230635 -14.621980944669502, 53.443317456110826 -14.395765701140883, 53.87049723676799 -14.007812326905688 M53.87049723676799 -14.007812326905688 C54.19006669854241 -13.67783062048284, 54.50963616031683 -13.347848914059993, 54.74010844296865 -13.10986736009568 M53.87049723676799 -14.007812326905688 C54.08490776128495 -13.786415856910477, 54.299318285801924 -13.565019386915266, 54.74010844296865 -13.10986736009568 M54.74010844296865 -13.10986736009568 C54.93081630247868 -12.88585105673058, 55.12152416198871 -12.66183475336548, 55.55040140812658 -12.158051136245305 M54.74010844296865 -13.10986736009568 C55.013084895143166 -12.789213686571337, 55.28606134731769 -12.468560013046991, 55.55040140812658 -12.158051136245305 M55.55040140812658 -12.158051136245305 C55.751311016079114 -11.888850564830726, 55.95222062403165 -11.619649993416145, 56.298046464640635 -11.156274872382312 M55.55040140812658 -12.158051136245305 C55.73390540643355 -11.912172496072126, 55.91740940474052 -11.666293855898944, 56.298046464640635 -11.156274872382312 M56.298046464640635 -11.156274872382312 C56.54478584010564 -10.777216932868646, 56.791525215570644 -10.398158993354981, 56.97997137860425 -10.108655082055241 M56.298046464640635 -11.156274872382312 C56.52334959725044 -10.810148758331424, 56.74865272986023 -10.464022644280538, 56.97997137860425 -10.108655082055241 M56.97997137860425 -10.108655082055241 C57.15051041454521 -9.805845754792095, 57.32104945048617 -9.503036427528949, 57.593373974273504 -9.019496659696287 M56.97997137860425 -10.108655082055241 C57.115441458004504 -9.868114238247035, 57.25091153740476 -9.627573394438828, 57.593373974273504 -9.019496659696287 M57.593373974273504 -9.019496659696287 C57.789223181636274 -8.612811590105764, 57.98507238899904 -8.206126520515241, 58.13573364880834 -7.893275190886684 M57.593373974273504 -9.019496659696287 C57.703369443662545 -8.791088713983921, 57.813364913051586 -8.562680768271555, 58.13573364880834 -7.893275190886684 M58.13573364880834 -7.893275190886684 C58.317309232670375 -7.4447799882223595, 58.49888481653242 -6.996284785558035, 58.604821729970325 -6.734618561215508 M58.13573364880834 -7.893275190886684 C58.263779842664505 -7.576998616457222, 58.39182603652066 -7.260722042027759, 58.604821729970325 -6.734618561215508 M58.604821729970325 -6.734618561215508 C58.74120051962824 -6.323867375775145, 58.877579309286155 -5.913116190334782, 58.99871063421488 -5.548287939305138 M58.604821729970325 -6.734618561215508 C58.74651084287314 -6.307873528246609, 58.88819995577596 -5.88112849527771, 58.99871063421488 -5.548287939305138 M58.99871063421488 -5.548287939305138 C59.11292118091092 -5.112753625589092, 59.22713172760696 -4.677219311873047, 59.31578178754556 -4.339158212148133 M58.99871063421488 -5.548287939305138 C59.11258127565949 -5.114049831628662, 59.2264519171041 -4.679811723952186, 59.31578178754556 -4.339158212148133 M59.31578178754556 -4.339158212148133 C59.389211549859915 -3.9621119020496685, 59.46264131217427 -3.585065591951204, 59.554732276581774 -3.1121979531509023 M59.31578178754556 -4.339158212148133 C59.39258596489698 -3.944784994017232, 59.46939014224839 -3.550411775886331, 59.554732276581774 -3.1121979531509023 M59.554732276581774 -3.1121979531509023 C59.60165676632852 -2.7482608769637813, 59.64858125607525 -2.3843238007766603, 59.71458020250937 -1.872449005199798 M59.554732276581774 -3.1121979531509023 C59.60577895172759 -2.71629002102611, 59.65682562687341 -2.320382088901318, 59.71458020250937 -1.872449005199798 M59.71458020250937 -1.872449005199798 C59.736750099821556 -1.5271349593434393, 59.758919997133745 -1.1818209134870807, 59.79466871591342 -0.6250057626472757 M59.71458020250937 -1.872449005199798 C59.742090018190964 -1.4439614204354168, 59.769599833872554 -1.0154738356710356, 59.79466871591342 -0.6250057626472757 M59.79466871591342 -0.6250057626472757 C59.79466871591342 -0.26923487728761747, 59.79466871591342 0.08653600807204076, 59.79466871591342 0.625005762647271 M59.79466871591342 -0.6250057626472757 C59.79466871591342 -0.234682613799506, 59.79466871591342 0.1556405350482637, 59.79466871591342 0.625005762647271 M59.79466871591342 0.625005762647271 C59.7698569035276 1.0114697682909053, 59.745045091141776 1.3979337739345394, 59.71458020250937 1.8724490051997846 M59.79466871591342 0.625005762647271 C59.76717024840238 1.0533165904951711, 59.739671780891335 1.4816274183430713, 59.71458020250937 1.8724490051997846 M59.71458020250937 1.8724490051997846 C59.66139419174836 2.2849492018963806, 59.608208180987354 2.697449398592977, 59.554732276581774 3.1121979531508885 M59.71458020250937 1.8724490051997846 C59.659864283940074 2.2968148647429802, 59.60514836537078 2.7211807242861754, 59.554732276581774 3.1121979531508885 M59.554732276581774 3.1121979531508885 C59.505558774917084 3.364693491375828, 59.456385273252394 3.6171890296007674, 59.31578178754556 4.339158212148129 M59.554732276581774 3.1121979531508885 C59.49143602538405 3.437210825383808, 59.42813977418631 3.7622236976167276, 59.31578178754556 4.339158212148129 M59.31578178754556 4.339158212148129 C59.22075158364175 4.70154956598426, 59.12572137973794 5.063940919820392, 58.99871063421489 5.548287939305125 M59.31578178754556 4.339158212148129 C59.23861153661644 4.633441824739185, 59.161441285687324 4.927725437330242, 58.99871063421489 5.548287939305125 M58.99871063421489 5.548287939305125 C58.919567550807216 5.786654296791131, 58.84042446739954 6.025020654277136, 58.604821729970325 6.734618561215495 M58.99871063421489 5.548287939305125 C58.90260794894672 5.837733915449358, 58.80650526367854 6.127179891593591, 58.604821729970325 6.734618561215495 M58.604821729970325 6.734618561215495 C58.45833331392104 7.096447781018099, 58.311844897871744 7.4582770008207016, 58.13573364880834 7.893275190886679 M58.604821729970325 6.734618561215495 C58.41751783777796 7.197262796205041, 58.2302139455856 7.659907031194586, 58.13573364880834 7.893275190886679 M58.13573364880834 7.893275190886679 C57.9756675782855 8.225655811192613, 57.815601507762665 8.558036431498547, 57.593373974273504 9.019496659696284 M58.13573364880834 7.893275190886679 C57.98814055710882 8.19975540378699, 57.84054746540931 8.5062356166873, 57.593373974273504 9.019496659696284 M57.593373974273504 9.019496659696284 C57.39727286058359 9.367694044443747, 57.20117174689368 9.71589142919121, 56.97997137860425 10.108655082055236 M57.593373974273504 9.019496659696284 C57.39998541008686 9.362877638125257, 57.20659684590023 9.706258616554232, 56.97997137860425 10.108655082055236 M56.97997137860425 10.108655082055236 C56.767466961949225 10.435118931463137, 56.5549625452942 10.761582780871038, 56.29804646464064 11.156274872382301 M56.97997137860425 10.108655082055236 C56.76477394377167 10.439256130560489, 56.5495765089391 10.769857179065744, 56.29804646464064 11.156274872382301 M56.29804646464064 11.156274872382301 C56.09980241240108 11.421903841978617, 55.90155836016152 11.687532811574933, 55.55040140812658 12.158051136245302 M56.29804646464064 11.156274872382301 C56.046296494540336 11.493596897422622, 55.79454652444003 11.830918922462942, 55.55040140812658 12.158051136245302 M55.55040140812658 12.158051136245302 C55.330386044869186 12.416493701156263, 55.11037068161179 12.674936266067226, 54.74010844296866 13.10986736009567 M55.55040140812658 12.158051136245302 C55.38370771541245 12.353859032847138, 55.21701402269832 12.549666929448977, 54.74010844296866 13.10986736009567 M54.74010844296866 13.10986736009567 C54.46493753572463 13.394003913776773, 54.18976662848059 13.678140467457876, 53.87049723676799 14.007812326905684 M54.74010844296866 13.10986736009567 C54.44160972066877 13.418091798071174, 54.14311099836889 13.726316236046678, 53.87049723676799 14.007812326905684 M53.87049723676799 14.007812326905684 C53.56344338558275 14.286670510352405, 53.25638953439752 14.565528693799127, 52.94514120850189 14.848196188198111 M53.87049723676799 14.007812326905684 C53.676406509182286 14.18408039033978, 53.482315781596576 14.360348453773874, 52.94514120850189 14.848196188198111 M52.94514120850189 14.848196188198111 C52.56401482813819 15.15213433433923, 52.182888447774495 15.45607248048035, 51.96784284457871 15.627565626425152 M52.94514120850189 14.848196188198111 C52.69606059042122 15.046831352803826, 52.44697997234054 15.245466517409543, 51.96784284457871 15.627565626425152 M51.96784284457871 15.627565626425152 C51.67004361219257 15.835297479416731, 51.37224437980643 16.04302933240831, 50.94261807360571 16.34271804539089 M51.96784284457871 15.627565626425152 C51.6169418113266 15.872338996960922, 51.26604077807449 16.11711236749669, 50.94261807360571 16.34271804539089 M50.94261807360571 16.34271804539089 C50.6316562281206 16.531224943538607, 50.32069438263549 16.719731841686322, 49.87367976407678 16.990714730406093 M50.94261807360571 16.34271804539089 C50.71259877669318 16.482157094922695, 50.48257947978065 16.621596144454497, 49.87367976407678 16.990714730406093 M49.87367976407678 16.990714730406093 C49.51181283674508 17.179500474608215, 49.14994590941337 17.36828621881034, 48.76542041279239 17.56889292409717 M49.87367976407678 16.990714730406093 C49.44404345863583 17.214855715759448, 49.01440715319489 17.438996701112803, 48.76542041279239 17.56889292409717 M48.76542041279239 17.56889292409717 C48.38954863891006 17.735280208554858, 48.01367686502773 17.90166749301255, 47.622394095147804 18.07487676824742 M48.76542041279239 17.56889292409717 C48.50087370183122 17.685999905540324, 48.23632699087004 17.803106886983475, 47.622394095147804 18.07487676824742 M47.622394095147804 18.07487676824742 C47.30420532216536 18.191973178009736, 46.98601654918292 18.309069587772047, 46.44929775146062 18.506587066708033 M47.622394095147804 18.07487676824742 C47.247215907744085 18.212945809321138, 46.872037720340366 18.35101485039485, 46.44929775146062 18.506587066708033 M46.44929775146062 18.506587066708033 C46.08088452050205 18.615930179816022, 45.712471289543494 18.725273292924015, 45.25095188623541 18.86224982926107 M46.44929775146062 18.506587066708033 C46.20801367809043 18.57819891315836, 45.966729604720236 18.649810759608688, 45.25095188623541 18.86224982926107 M45.25095188623541 18.86224982926107 C44.860639893709326 18.951335994531366, 44.47032790118323 19.040422159801665, 44.032280759676766 19.140403561325773 M45.25095188623541 18.86224982926107 C44.995273279249226 18.92060680284683, 44.739594672263046 18.97896377643259, 44.032280759676766 19.140403561325773 M44.032280759676766 19.140403561325773 C43.64490984561494 19.203030686604983, 43.257538931553114 19.265657811884196, 42.79829215284788 19.3399052695533 M44.032280759676766 19.140403561325773 C43.58184236039588 19.213226948519548, 43.131403961115 19.286050335713327, 42.79829215284788 19.3399052695533 M42.79829215284788 19.3399052695533 C42.53143049295544 19.36564909293502, 42.264568833062995 19.391392916316743, 41.5540567896239 19.45993515863156 M42.79829215284788 19.3399052695533 C42.446152445620676 19.373875763599546, 42.094012738393474 19.407846257645797, 41.5540567896239 19.45993515863156 M41.5540567896239 19.45993515863156 C41.16990662004133 19.472254106867126, 40.78575645045877 19.484573055102697, 40.30468750000001 19.5 M41.5540567896239 19.45993515863156 C41.15629638742188 19.472690560536524, 40.758535985219865 19.485445962441485, 40.30468750000001 19.5 M40.30468750000001 19.5 C40.30468750000001 19.5, 40.3046875 19.5, 40.3046875 19.5 M40.30468750000001 19.5 C40.30468750000001 19.5, 40.3046875 19.5, 40.3046875 19.5 M40.3046875 19.5 C9.04278946299073 19.5, -22.21910857401854 19.5, -40.30468749999999 19.5 M40.3046875 19.5 C16.096038435930218 19.5, -8.112610628139564 19.5, -40.30468749999999 19.5 M-40.30468749999999 19.5 C-40.7815616204742 19.48470757513556, -41.258435740948414 19.469415150271118, -41.55405678962389 19.45993515863156 M-40.30468749999999 19.5 C-40.66474118906688 19.488453778993616, -41.02479487813377 19.476907557987232, -41.55405678962389 19.45993515863156 M-41.55405678962389 19.45993515863156 C-41.97954358804887 19.418888958910244, -42.405030386473854 19.37784275918893, -42.79829215284787 19.3399052695533 M-41.55405678962389 19.45993515863156 C-41.92497132543433 19.42415347945192, -42.29588586124476 19.38837180027228, -42.79829215284787 19.3399052695533 M-42.79829215284787 19.3399052695533 C-43.17980780053755 19.278224778332866, -43.561323448227235 19.216544287112434, -44.03228075967676 19.140403561325773 M-42.79829215284787 19.3399052695533 C-43.166986397372064 19.280297643365195, -43.535680641896256 19.220690017177095, -44.03228075967676 19.140403561325773 M-44.03228075967676 19.140403561325773 C-44.31928257135793 19.074897270671393, -44.6062843830391 19.009390980017017, -45.250951886235384 18.862249829261074 M-44.03228075967676 19.140403561325773 C-44.42574327405556 19.05059831000167, -44.81920578843437 18.960793058677567, -45.250951886235384 18.862249829261074 M-45.250951886235384 18.862249829261074 C-45.681264941209065 18.734535173304206, -46.111577996182746 18.606820517347337, -46.44929775146059 18.506587066708043 M-45.250951886235384 18.862249829261074 C-45.67667362536765 18.73589785174563, -46.102395364499905 18.609545874230186, -46.44929775146059 18.506587066708043 M-46.44929775146059 18.506587066708043 C-46.856661543495825 18.35667342560946, -47.264025335531066 18.20675978451088, -47.6223940951478 18.074876768247425 M-46.44929775146059 18.506587066708043 C-46.831505807466975 18.365930969005156, -47.21371386347336 18.225274871302265, -47.6223940951478 18.074876768247425 M-47.6223940951478 18.074876768247425 C-48.0611159866559 17.880667601099304, -48.499837878164 17.686458433951184, -48.76542041279238 17.568892924097174 M-47.6223940951478 18.074876768247425 C-47.90414136127415 17.950155611268986, -48.1858886274005 17.82543445429055, -48.76542041279238 17.568892924097174 M-48.76542041279238 17.568892924097174 C-49.068881296621434 17.41057757537953, -49.37234218045048 17.25226222666189, -49.87367976407678 16.990714730406097 M-48.76542041279238 17.568892924097174 C-49.09835544676817 17.39520093012707, -49.431290480743954 17.221508936156972, -49.87367976407678 16.990714730406097 M-49.87367976407678 16.990714730406097 C-50.14476531026591 16.82638107923075, -50.41585085645504 16.662047428055402, -50.942618073605686 16.3427180453909 M-49.87367976407678 16.990714730406097 C-50.20397840389053 16.790485753900743, -50.53427704370427 16.59025677739539, -50.942618073605686 16.3427180453909 M-50.942618073605686 16.3427180453909 C-51.346045103021225 16.061304813745252, -51.749472132436765 15.779891582099607, -51.96784284457871 15.627565626425156 M-50.942618073605686 16.3427180453909 C-51.2438808105089 16.13257020158091, -51.54514354741211 15.92242235777092, -51.96784284457871 15.627565626425156 M-51.96784284457871 15.627565626425156 C-52.32525456163248 15.342539293200009, -52.68266627868624 15.057512959974861, -52.945141208501866 14.848196188198125 M-51.96784284457871 15.627565626425156 C-52.205036710257275 15.438409830540351, -52.442230575935845 15.249254034655547, -52.945141208501866 14.848196188198125 M-52.945141208501866 14.848196188198125 C-53.150675099994125 14.661535746073627, -53.35620899148638 14.474875303949128, -53.870497236767974 14.007812326905697 M-52.945141208501866 14.848196188198125 C-53.17271622527578 14.641518579269048, -53.40029124204968 14.434840970339971, -53.870497236767974 14.007812326905697 M-53.870497236767974 14.007812326905697 C-54.178973072389425 13.689285700289442, -54.487448908010876 13.370759073673186, -54.740108442968655 13.109867360095677 M-53.870497236767974 14.007812326905697 C-54.202734790169416 13.66474977580829, -54.53497234357086 13.321687224710884, -54.740108442968655 13.109867360095677 M-54.740108442968655 13.109867360095677 C-55.057277860410466 12.737302114917412, -55.37444727785227 12.364736869739149, -55.550401408126575 12.158051136245307 M-54.740108442968655 13.109867360095677 C-54.964858467324355 12.845863192848801, -55.18960849168005 12.581859025601927, -55.550401408126575 12.158051136245307 M-55.550401408126575 12.158051136245307 C-55.83941112822639 11.770804440638711, -56.12842084832619 11.383557745032116, -56.298046464640635 11.156274872382316 M-55.550401408126575 12.158051136245307 C-55.728787844156216 11.919029563304234, -55.907174280185856 11.680007990363162, -56.298046464640635 11.156274872382316 M-56.298046464640635 11.156274872382316 C-56.55665654920595 10.758980335958862, -56.81526663377126 10.36168579953541, -56.97997137860425 10.108655082055249 M-56.298046464640635 11.156274872382316 C-56.4726215978417 10.8880805877984, -56.64719673104276 10.619886303214484, -56.97997137860425 10.108655082055249 M-56.97997137860425 10.108655082055249 C-57.22404737344646 9.675273437838383, -57.46812336828867 9.241891793621516, -57.593373974273504 9.019496659696289 M-56.97997137860425 10.108655082055249 C-57.22327502781799 9.676644815710198, -57.46657867703174 9.244634549365145, -57.593373974273504 9.019496659696289 M-57.593373974273504 9.019496659696289 C-57.76600164550687 8.661031606739751, -57.93862931674023 8.302566553783212, -58.13573364880834 7.893275190886686 M-57.593373974273504 9.019496659696289 C-57.75595036158133 8.681903312874159, -57.91852674888915 8.344309966052029, -58.13573364880834 7.893275190886686 M-58.13573364880834 7.893275190886686 C-58.300236752295675 7.486949344821825, -58.464739855783016 7.080623498756965, -58.604821729970325 6.73461856121551 M-58.13573364880834 7.893275190886686 C-58.26878326489038 7.564640066824721, -58.401832880972414 7.236004942762756, -58.604821729970325 6.73461856121551 M-58.604821729970325 6.73461856121551 C-58.738453176269836 6.332141936240935, -58.872084622569346 5.929665311266358, -58.99871063421488 5.5482879393051325 M-58.604821729970325 6.73461856121551 C-58.720913002128626 6.3849701461070305, -58.837004274286926 6.03532173099855, -58.99871063421488 5.5482879393051325 M-58.99871063421488 5.5482879393051325 C-59.07749192844797 5.247860720365459, -59.15627322268106 4.9474335014257855, -59.31578178754556 4.339158212148136 M-58.99871063421488 5.5482879393051325 C-59.11775199503615 5.094331637641492, -59.23679335585742 4.640375335977851, -59.31578178754556 4.339158212148136 M-59.31578178754556 4.339158212148136 C-59.3808063851282 4.005270646514821, -59.445830982710845 3.671383080881505, -59.554732276581774 3.112197953150904 M-59.31578178754556 4.339158212148136 C-59.37679724528104 4.025856732297991, -59.437812703016526 3.7125552524478462, -59.554732276581774 3.112197953150904 M-59.554732276581774 3.112197953150904 C-59.597304562269464 2.782015712205887, -59.639876847957154 2.45183347126087, -59.71458020250937 1.872449005199809 M-59.554732276581774 3.112197953150904 C-59.59026026980489 2.8366498535082405, -59.625788263028 2.5611017538655774, -59.71458020250937 1.872449005199809 M-59.71458020250937 1.872449005199809 C-59.74636205047591 1.3774210692749485, -59.77814389844246 0.8823931333500876, -59.79466871591342 0.6250057626472781 M-59.71458020250937 1.872449005199809 C-59.735801491657234 1.541910297205545, -59.757022780805094 1.2113715892112809, -59.79466871591342 0.6250057626472781 M-59.79466871591342 0.6250057626472781 C-59.79466871591342 0.25703507896300565, -59.79466871591342 -0.11093560472126685, -59.79466871591342 -0.6250057626472687 M-59.79466871591342 0.6250057626472781 C-59.79466871591342 0.2420271789382597, -59.79466871591342 -0.14095140477075874, -59.79466871591342 -0.6250057626472687 M-59.79466871591342 -0.6250057626472687 C-59.77621655213002 -0.9124131078921451, -59.75776438834663 -1.1998204531370216, -59.71458020250937 -1.8724490051997822 M-59.79466871591342 -0.6250057626472687 C-59.76342746266371 -1.1116134994971882, -59.732186209414 -1.598221236347108, -59.71458020250937 -1.8724490051997822 M-59.71458020250937 -1.8724490051997822 C-59.68003787801106 -2.140352452855129, -59.64549555351276 -2.408255900510476, -59.554732276581774 -3.112197953150895 M-59.71458020250937 -1.8724490051997822 C-59.681699638844194 -2.1274641639851555, -59.64881907517902 -2.382479322770529, -59.554732276581774 -3.112197953150895 M-59.554732276581774 -3.112197953150895 C-59.45946404548933 -3.601380184862843, -59.36419581439688 -4.090562416574791, -59.31578178754556 -4.339158212148126 M-59.554732276581774 -3.112197953150895 C-59.473077837807885 -3.5314762385830716, -59.391423399034 -3.9507545240152484, -59.31578178754556 -4.339158212148126 M-59.31578178754556 -4.339158212148126 C-59.21481051385036 -4.724205439974777, -59.11383924015516 -5.109252667801428, -58.99871063421489 -5.548287939305123 M-59.31578178754556 -4.339158212148126 C-59.20842831137635 -4.748543544072219, -59.10107483520714 -5.157928875996312, -58.99871063421489 -5.548287939305123 M-58.99871063421489 -5.548287939305123 C-58.84379445351732 -6.014870793024765, -58.68887827281974 -6.4814536467444075, -58.60482172997033 -6.734618561215485 M-58.99871063421489 -5.548287939305123 C-58.91810739455755 -5.791052054770801, -58.83750415490022 -6.033816170236478, -58.60482172997033 -6.734618561215485 M-58.60482172997033 -6.734618561215485 C-58.495449503457394 -7.004770075270592, -58.386077276944455 -7.274921589325699, -58.13573364880834 -7.893275190886676 M-58.60482172997033 -6.734618561215485 C-58.46406340331556 -7.082294349429879, -58.32330507666079 -7.429970137644274, -58.13573364880834 -7.893275190886676 M-58.13573364880834 -7.893275190886676 C-57.98668729983806 -8.202773123604459, -57.83764095086777 -8.512271056322241, -57.593373974273504 -9.019496659696282 M-58.13573364880834 -7.893275190886676 C-57.95027056134697 -8.278393260274587, -57.7648074738856 -8.6635113296625, -57.593373974273504 -9.019496659696282 M-57.593373974273504 -9.019496659696282 C-57.40465695638422 -9.354582834628944, -57.21593993849494 -9.689669009561605, -56.97997137860425 -10.108655082055243 M-57.593373974273504 -9.019496659696282 C-57.40896388964196 -9.34693543850555, -57.22455380501041 -9.67437421731482, -56.97997137860425 -10.108655082055243 M-56.97997137860425 -10.108655082055243 C-56.71637925313775 -10.513603371168223, -56.45278712767125 -10.918551660281203, -56.29804646464064 -11.156274872382308 M-56.97997137860425 -10.108655082055243 C-56.75186628201279 -10.45908576521464, -56.52376118542133 -10.809516448374035, -56.29804646464064 -11.156274872382308 M-56.29804646464064 -11.156274872382308 C-56.004106318501854 -11.550127889710087, -55.71016617236307 -11.943980907037863, -55.55040140812659 -12.158051136245302 M-56.29804646464064 -11.156274872382308 C-56.02179431624937 -11.526427584138165, -55.74554216785809 -11.89658029589402, -55.55040140812659 -12.158051136245302 M-55.55040140812659 -12.158051136245302 C-55.24822784134405 -12.513001401951115, -54.946054274561504 -12.867951667656927, -54.74010844296866 -13.10986736009567 M-55.55040140812659 -12.158051136245302 C-55.2314356146121 -12.532726506975226, -54.912469821097616 -12.907401877705151, -54.74010844296866 -13.10986736009567 M-54.74010844296866 -13.10986736009567 C-54.4560530228987 -13.40317790270161, -54.17199760282874 -13.696488445307551, -53.870497236767996 -14.007812326905677 M-54.74010844296866 -13.10986736009567 C-54.44826951064474 -13.411215018142066, -54.156430578320816 -13.712562676188464, -53.870497236767996 -14.007812326905677 M-53.870497236767996 -14.007812326905677 C-53.52139591645444 -14.324856909299674, -53.17229459614087 -14.641901491693671, -52.94514120850189 -14.848196188198107 M-53.870497236767996 -14.007812326905677 C-53.554348841523904 -14.294929934638201, -53.23820044627981 -14.582047542370725, -52.94514120850189 -14.848196188198107 M-52.94514120850189 -14.848196188198107 C-52.69289371971857 -15.049356847915215, -52.44064623093526 -15.250517507632324, -51.96784284457872 -15.627565626425149 M-52.94514120850189 -14.848196188198107 C-52.7185019013905 -15.028935004494183, -52.49186259427912 -15.20967382079026, -51.96784284457872 -15.627565626425149 M-51.96784284457872 -15.627565626425149 C-51.58546462531487 -15.894296119297286, -51.20308640605102 -16.161026612169422, -50.942618073605715 -16.342718045390885 M-51.96784284457872 -15.627565626425149 C-51.63027979361258 -15.863034997910171, -51.29271674264644 -16.098504369395194, -50.942618073605715 -16.342718045390885 M-50.942618073605715 -16.342718045390885 C-50.57015338136372 -16.568508330673474, -50.19768868912172 -16.79429861595606, -49.87367976407679 -16.99071473040609 M-50.942618073605715 -16.342718045390885 C-50.71103000572918 -16.483108093100192, -50.47944193785265 -16.623498140809495, -49.87367976407679 -16.99071473040609 M-49.87367976407679 -16.99071473040609 C-49.51651514083075 -17.17704728557869, -49.159350517584706 -17.363379840751293, -48.76542041279239 -17.56889292409717 M-49.87367976407679 -16.99071473040609 C-49.43916951479378 -17.21739844913994, -49.00465926551078 -17.444082167873784, -48.76542041279239 -17.56889292409717 M-48.76542041279239 -17.56889292409717 C-48.37025100930324 -17.743822696737954, -47.97508160581409 -17.918752469378738, -47.622394095147804 -18.07487676824742 M-48.76542041279239 -17.56889292409717 C-48.32965638179564 -17.76179273413873, -47.893892350798886 -17.954692544180293, -47.622394095147804 -18.07487676824742 M-47.622394095147804 -18.07487676824742 C-47.3051158455116 -18.191638097001533, -46.987837595875405 -18.308399425755642, -46.44929775146062 -18.506587066708033 M-47.622394095147804 -18.07487676824742 C-47.19189763168986 -18.23330344626563, -46.76140116823192 -18.391730124283836, -46.44929775146062 -18.506587066708033 M-46.44929775146062 -18.506587066708033 C-46.10055699572864 -18.610091492431703, -45.751816239996664 -18.71359591815537, -45.25095188623541 -18.862249829261067 M-46.44929775146062 -18.506587066708033 C-46.00685574715347 -18.63790153116092, -45.56441374284633 -18.76921599561381, -45.25095188623541 -18.862249829261067 M-45.25095188623541 -18.862249829261067 C-44.88103448792464 -18.946681061488885, -44.51111708961387 -19.0311122937167, -44.032280759676766 -19.140403561325773 M-45.25095188623541 -18.862249829261067 C-44.95185341792619 -18.930517102852736, -44.65275494961696 -18.99878437644441, -44.032280759676766 -19.140403561325773 M-44.032280759676766 -19.140403561325773 C-43.656111198488595 -19.20121973874016, -43.27994163730042 -19.26203591615455, -42.79829215284788 -19.3399052695533 M-44.032280759676766 -19.140403561325773 C-43.6464610351711 -19.2027799023072, -43.260641310665434 -19.265156243288626, -42.79829215284788 -19.3399052695533 M-42.79829215284788 -19.3399052695533 C-42.531493465717595 -19.36564301802839, -42.26469477858731 -19.39138076650348, -41.5540567896239 -19.45993515863156 M-42.79829215284788 -19.3399052695533 C-42.43538209491491 -19.37491476637889, -42.072472036981935 -19.409924263204484, -41.5540567896239 -19.45993515863156 M-41.5540567896239 -19.45993515863156 C-41.17024854681893 -19.47224314194089, -40.786440304013965 -19.48455112525022, -40.30468750000001 -19.5 M-41.5540567896239 -19.45993515863156 C-41.23893283192983 -19.470040570603235, -40.92380887423576 -19.480145982574907, -40.30468750000001 -19.5 M-40.30468750000001 -19.5 C-40.30468750000001 -19.5, -40.3046875 -19.5, -40.3046875 -19.5 M-40.30468750000001 -19.5 C-40.30468750000001 -19.5, -40.3046875 -19.5, -40.3046875 -19.5" stroke="#9370DB" stroke-width="1.3" fill="none" stroke-dasharray="0 0" style=""/></g><g class="label" style="" transform="translate(-47.4296875, -12)"><rect/><text x="47.43" y="12.00" text-anchor="middle" dominant-baseline="middle" font-family="Arial, sans-serif" font-size="14" fill="#333">Top-K Results</text></g></g></g></g></g></svg>