<svg id="my-svg" width="100%" xmlns="http://www.w3.org/2000/svg" xmlns:xlink="http://www.w3.org/1999/xlink" class="flowchart" style="max-width: 806.202px; background-color: white;" viewBox="0 0 806.2020263671875 296" role="graphics-document document" aria-roledescription="flowchart-v2"><style>#my-svg{font-family:"trebuchet ms",verdana,arial,sans-serif;font-size:16px;fill:#333;}@keyframes edge-animation-frame{from{stroke-dashoffset:0;}}@keyframes dash{to{stroke-dashoffset:0;}}#my-svg .edge-animation-slow{stroke-dasharray:9,5!important;stroke-dashoffset:900;animation:dash 50s linear infinite;stroke-linecap:round;}#my-svg .edge-animation-fast{stroke-dasharray:9,5!important;stroke-dashoffset:900;animation:dash 20s linear infinite;stroke-linecap:round;}#my-svg .error-icon{fill:#552222;}#my-svg .error-text{fill:#552222;stroke:#552222;}#my-svg .edge-thickness-normal{stroke-width:1px;}#my-svg .edge-thickness-thick{stroke-width:3.5px;}#my-svg .edge-pattern-solid{stroke-dasharray:0;}#my-svg .edge-thickness-invisible{stroke-width:0;fill:none;}#my-svg .edge-pattern-dashed{stroke-dasharray:3;}#my-svg .edge-pattern-dotted{stroke-dasharray:2;}#my-svg .marker{fill:#333333;stroke:#333333;}#my-svg .marker.cross{stroke:#333333;}#my-svg svg{font-family:"trebuchet ms",verdana,arial,sans-serif;font-size:16px;}#my-svg p{margin:0;}#my-svg .label{font-family:"trebuchet ms",verdana,arial,sans-serif;color:#333;}#my-svg .cluster-label text{fill:#333;}#my-svg .cluster-label span{color:#333;}#my-svg .cluster-label span p{background-color:transparent;}#my-svg .label text,#my-svg span{fill:#333;color:#333;}#my-svg .node rect,#my-svg .node circle,#my-svg .node ellipse,#my-svg .node polygon,#my-svg .node path{fill:#ECECFF;stroke:#9370DB;stroke-width:1px;}#my-svg .rough-node .label text,#my-svg .node .label text,#my-svg .image-shape .label,#my-svg .icon-shape .label{text-anchor:middle;}#my-svg .node .katex path{fill:#000;stroke:#000;stroke-width:1px;}#my-svg .rough-node .label,#my-svg .node .label,#my-svg .image-shape .label,#my-svg .icon-shape .label{text-align:center;}#my-svg .node.clickable{cursor:pointer;}#my-svg .root .anchor path{fill:#333333!important;stroke-width:0;stroke:#333333;}#my-svg .arrowheadPath{fill:#333333;}#my-svg .edgePath .path{stroke:#333333;stroke-width:2.0px;}#my-svg .flowchart-link{stroke:#333333;fill:none;}#my-svg .edgeLabel{background-color:rgba(232,232,232, 0.8);text-align:center;}#my-svg .edgeLabel p{background-color:rgba(232,232,232, 0.8);}#my-svg .edgeLabel rect{opacity:0.5;background-color:rgba(232,232,232, 0.8);fill:rgba(232,232,232, 0.8);}#my-svg .labelBkg{background-color:rgba(232, 232, 232, 0.5);}#my-svg .cluster rect{fill:#ffffde;stroke:#aaaa33;stroke-width:1px;}#my-svg .cluster text{fill:#333;}#my-svg .cluster span{color:#333;}#my-svg div.mermaidTooltip{position:absolute;text-align:center;max-width:200px;padding:2px;font-family:"trebuchet ms",verdana,arial,sans-serif;font-size:12px;background:hsl(80, 100%, 96.2745098039%);border:1px solid #aaaa33;border-radius:2px;pointer-events:none;z-index:100;}#my-svg .flowchartTitleText{text-anchor:middle;font-size:18px;fill:#333;}#my-svg rect.text{fill:none;stroke-width:0;}#my-svg .icon-shape,#my-svg .image-shape{background-color:rgba(232,232,232, 0.8);text-align:center;}#my-svg .icon-shape p,#my-svg .image-shape p{background-color:rgba(232,232,232, 0.8);padding:2px;}#my-svg .icon-shape rect,#my-svg .image-shape rect{opacity:0.5;background-color:rgba(232,232,232, 0.8);fill:rgba(232,232,232, 0.8);}#my-svg .label-icon{display:inline-block;height:1em;overflow:visible;vertical-align:-0.125em;}#my-svg .node .label-icon path{fill:currentColor;stroke:revert;stroke-width:revert;}#my-svg :root{--mermaid-font-family:"trebuchet ms",verdana,arial,sans-serif;}</style><g><marker id="my-svg_flowchart-v2-pointEnd" class="marker flowchart-v2" viewBox="0 0 10 10" refX="5" refY="5" markerUnits="userSpaceOnUse" markerWidth="8" markerHeight="8" orient="auto"><path d="M 0 0 L 10 5 L 0 10 z" class="arrowMarkerPath" style="stroke-width: 1; stroke-dasharray: 1, 0;"/></marker><marker id="my-svg_flowchart-v2-pointStart" class="marker flowchart-v2" viewBox="0 0 10 10" refX="4.5" refY="5" markerUnits="userSpaceOnUse" markerWidth="8" markerHeight="8" orient="auto"><path d="M 0 5 L 10 10 L 10 0 z" class="arrowMarkerPath" style="stroke-width: 1; stroke-dasharray: 1, 0;"/></marker><marker id="my-svg_flowchart-v2-circleEnd" class="marker flowchart-v2" viewBox="0 0 10 10" refX="11" refY="5" markerUnits="userSpaceOnUse" markerWidth="11" markerHeight="11" orient="auto"><circle cx="5" cy="5" r="5" class="arrowMarkerPath" style="stroke-width: 1; stroke-dasharray: 1, 0;"/></marker><marker id="my-svg_flowchart-v2-circleStart" class="marker flowchart-v2" viewBox="0 0 10 10" refX="-1" refY="5" markerUnits="userSpaceOnUse" markerWidth="11" markerHeight="11" orient="auto"><circle cx="5" cy="5" r="5" class="arrowMarkerPath" style="stroke-width: 1; stroke-dasharray: 1, 0;"/></marker><marker id="my-svg_flowchart-v2-crossEnd" class="marker cross flowchart-v2" viewBox="0 0 11 11" refX="12" refY="5.2" markerUnits="userSpaceOnUse" markerWidth="11" markerHeight="11" orient="auto"><path d="M 1,1 l 9,9 M 10,1 l -9,9" class="arrowMarkerPath" style="stroke-width: 2; stroke-dasharray: 1, 0;"/></marker><marker id="my-svg_flowchart-v2-crossStart" class="marker cross flowchart-v2" viewBox="0 0 11 11" refX="-1" refY="5.2" markerUnits="userSpaceOnUse" markerWidth="11" markerHeight="11" orient="auto"><path d="M 1,1 l 9,9 M 10,1 l -9,9" class="arrowMarkerPath" style="stroke-width: 2; stroke-dasharray: 1, 0;"/></marker><g class="root"><g class="clusters"/><g class="edgePaths"><path d="M304.353,44.245L319.071,48.871C333.79,53.496,363.227,62.748,377.946,70.874C392.664,79,392.664,86,392.664,89.5L392.664,93" id="L_U_CA_0" class="edge-thickness-normal edge-pattern-solid edge-thickness-normal edge-pattern-solid flowchart-link" style=";" data-edge="true" data-et="edge" data-id="L_U_CA_0" data-points="W3sieCI6MzA0LjM1MjcxNzAzNzUxOTcsInkiOjQ0LjI0NDY2MzEyNDI4OTIyfSx7IngiOjM5Mi42NjQwNjI1LCJ5Ijo3Mn0seyJ4IjozOTIuNjY0MDYyNSwieSI6OTd9XQ==" marker-end="url(#my-svg_flowchart-v2-pointEnd)"/><path d="M319.215,151L302.44,157.167C285.664,163.333,252.113,175.667,225.23,188.387C198.347,201.108,178.132,214.216,168.025,220.77L157.917,227.324" id="L_CA_Q_0" class="edge-thickness-normal edge-pattern-solid edge-thickness-normal edge-pattern-solid flowchart-link" style=";" data-edge="true" data-et="edge" data-id="L_CA_Q_0" data-points="W3sieCI6MzE5LjIxNDk2NTgyMDMxMjUsInkiOjE1MX0seyJ4IjoyMTguNTYyNSwieSI6MTg4fSx7IngiOjE1NC41NjEyNDU0Mzc5NTYyLCJ5IjoyMjkuNX1d" marker-end="url(#my-svg_flowchart-v2-pointEnd)"/><path d="M99.43,229.5L95.973,222.583C92.517,215.667,85.604,201.833,82.148,184.25C78.691,166.667,78.691,145.333,78.691,126C78.691,106.667,78.691,89.333,98.139,75.797C117.586,62.261,156.481,52.522,175.928,47.653L195.376,42.783" id="L_Q_U_0" class="edge-thickness-normal edge-pattern-solid edge-thickness-normal edge-pattern-solid flowchart-link" style=";" data-edge="true" data-et="edge" data-id="L_Q_U_0" data-points="W3sieCI6OTkuNDI5NTczNDQ4OTA1MSwieSI6MjI5LjV9LHsieCI6NzguNjkxNDA2MjUsInkiOjE4OH0seyJ4Ijo3OC42OTE0MDYyNSwieSI6MTI0fSx7IngiOjc4LjY5MTQwNjI1LCJ5Ijo3Mn0seyJ4IjoxOTkuMjU2MDE1OTU4ODE3OTUsInkiOjQxLjgxMTczMzU5MjAzODI3fV0=" marker-end="url(#my-svg_flowchart-v2-pointEnd)"/><path d="M431.346,151L440.181,157.167C449.016,163.333,466.686,175.667,466.796,188.351C466.907,201.035,449.458,214.071,440.734,220.588L432.01,227.106" id="L_CA_N_0" class="edge-thickness-normal edge-pattern-solid edge-thickness-normal edge-pattern-solid flowchart-link" style=";" data-edge="true" data-et="edge" data-id="L_CA_N_0" data-points="W3sieCI6NDMxLjM0NjI1NzAzMDk2MzksInkiOjE1MX0seyJ4Ijo0ODQuMzU1MTkwMjc3MDk5NiwieSI6MTg4fSx7IngiOjQyOC44MDUwOTA5NjY4ODYsInkiOjIyOS41fV0=" marker-end="url(#my-svg_flowchart-v2-pointEnd)"/><path d="M351.025,229.5L340.358,222.583C329.691,215.667,308.357,201.833,307.299,189.095C306.241,176.358,325.458,164.715,335.067,158.894L344.676,153.073" id="L_N_CA_0" class="edge-thickness-normal edge-pattern-solid edge-thickness-normal edge-pattern-solid flowchart-link" style=";" data-edge="true" data-et="edge" data-id="L_N_CA_0" data-points="W3sieCI6MzUxLjAyNDY5MjA2MjA0MzgsInkiOjIyOS41fSx7IngiOjI4Ny4wMjM0Mzc1LCJ5IjoxODh9LHsieCI6MzQ4LjA5NjkyMzgyODEyNSwieSI6MTUxfV0=" marker-end="url(#my-svg_flowchart-v2-pointEnd)"/><path d="M491.672,145.837L523.534,152.864C555.396,159.891,619.119,173.946,651.056,186.556C682.992,199.167,683.141,210.334,683.215,215.917L683.29,221.5" id="L_CA_C_0" class="edge-thickness-normal edge-pattern-solid edge-thickness-normal edge-pattern-solid flowchart-link" style=";" data-edge="true" data-et="edge" data-id="L_CA_C_0" data-points="W3sieCI6NDkxLjY3MTg3NSwieSI6MTQ1LjgzNjUxMTc3MDg0MzgzfSx7IngiOjY4Mi44NDMxOTMwNTQxOTkyLCJ5IjoxODh9LHsieCI6NjgzLjM0MzE5MzA1NDE5OTIsInkiOjIyNS41fV0=" marker-end="url(#my-svg_flowchart-v2-pointEnd)"/></g><g class="edgeLabels"><g class="edgeLabel"><g class="label" data-id="L_U_CA_0" transform="translate(0, 0)"></g></g><g class="edgeLabel" transform="translate(218.5625, 188)"><g class="label" data-id="L_CA_Q_0" transform="translate(-48.4609375, -12)"><text x="48.46" y="12.00" text-anchor="middle" dominant-baseline="middle" font-family="Arial, sans-serif" font-size="14" fill="#333">Needs Details</text></g></g><g class="edgeLabel"><g class="label" data-id="L_Q_U_0" transform="translate(0, 0)"></g></g><g class="edgeLabel" transform="translate(484.3551902770996, 188)"><g class="label" data-id="L_CA_N_0" transform="translate(-36.171875, -12)"><text x="36.17" y="12.00" text-anchor="middle" dominant-baseline="middle" font-family="Arial, sans-serif" font-size="14" fill="#333">take_note</text></g></g><g class="edgeLabel"><g class="label" data-id="L_N_CA_0" transform="translate(0, 0)"></g></g><g class="edgeLabel" transform="translate(682.8431930541992, 188)"><g class="label" data-id="L_CA_C_0" transform="translate(-50.625, -12)"><text x="50.62" y="12.00" text-anchor="middle" dominant-baseline="middle" font-family="Arial, sans-serif" font-size="14" fill="#333">commit_notes</text></g></g></g><g class="nodes"><g class="node default" id="flowchart-U-0" transform="translate(252.79296875, 27.5)"><g class="basic label-container outer-path"><path d="M-40.28125 -19.5 C-20.83430797352721 -19.5, -1.3873659470544197 -19.5, 40.28125 -19.5 C40.28125 -19.5, 40.28125 -19.5, 40.28125 -19.5 C40.65290510779206 -19.488081744075892, 41.02456021558412 -19.476163488151784, 41.5306192896239 -19.45993515863156 C41.98673103104958 -19.41593460749085, 42.44284277247525 -19.37193405635014, 42.774854652847864 -19.3399052695533 C43.21797520686361 -19.268264974831254, 43.66109576087937 -19.196624680109206, 44.00884325967676 -19.140403561325776 C44.289944542197084 -19.07624402794781, 44.5710458247174 -19.012084494569844, 45.22751438623539 -18.862249829261074 C45.621493970450075 -18.745318756707196, 46.01547355466476 -18.628387684153317, 46.425860251460605 -18.50658706670804 C46.77144551349915 -18.37940849572271, 47.11703077553771 -18.252229924737378, 47.5989565951478 -18.074876768247425 C47.85385489766254 -17.96204085101364, 48.10875320017728 -17.849204933779852, 48.74198291279238 -17.568892924097174 C49.07715450202709 -17.394034120681077, 49.4123260912618 -17.21917531726498, 49.85024226407678 -16.990714730406097 C50.11515020849964 -16.83012597772508, 50.3800581529225 -16.669537225044063, 50.9191805736057 -16.342718045390892 C51.18949207438496 -16.154160444043555, 51.459803575164216 -15.965602842696217, 51.94440534457871 -15.627565626425154 C52.2481816280401 -15.385312124191099, 52.55195791150148 -15.143058621957046, 52.921703708501866 -14.848196188198123 C53.211108263277126 -14.585366628776152, 53.500512818052385 -14.32253706935418, 53.84705973676799 -14.007812326905688 C54.08032161273072 -13.76695028881799, 54.313583488693446 -13.52608825073029, 54.71667094296865 -13.10986736009568 C54.897394909322784 -12.897578705731108, 55.07811887567692 -12.685290051366536, 55.52696390812658 -12.158051136245305 C55.723020522295904 -11.895353134383406, 55.91907713646522 -11.632655132521506, 56.274608964640635 -11.156274872382312 C56.4516181592055 -10.884341215906598, 56.62862735377037 -10.612407559430885, 56.95653387860425 -10.108655082055241 C57.179241249968214 -9.713215592631757, 57.40194862133219 -9.317776103208274, 57.569936474273504 -9.019496659696287 C57.76970333175811 -8.60467650580348, 57.96947018924272 -8.189856351910672, 58.11229614880834 -7.893275190886684 C58.28366608477646 -7.469988135833113, 58.45503602074458 -7.04670108077954, 58.581384229970325 -6.734618561215508 C58.69613858081507 -6.3889967400939796, 58.810892931659815 -6.043374918972451, 58.97527313421488 -5.548287939305138 C59.07046506819672 -5.185279838587219, 59.16565700217856 -4.822271737869299, 59.29234428754556 -4.339158212148133 C59.38700932229375 -3.853073266178372, 59.48167435704193 -3.3669883202086104, 59.531294776581774 -3.1121979531509023 C59.59359241994661 -2.629029733274396, 59.655890063311446 -2.14586151339789, 59.69114270250937 -1.872449005199798 C59.720292128246825 -1.4184231703459662, 59.749441553984276 -0.9643973354921345, 59.77123121591342 -0.6250057626472757 C59.77123121591342 -0.22106794567019383, 59.77123121591342 0.18286987130688803, 59.77123121591342 0.625005762647271 C59.743922383857615 1.0503628652088455, 59.716613551801814 1.47571996777042, 59.69114270250937 1.8724490051997846 C59.63851096592732 2.2806503608182203, 59.58587922934526 2.688851716436656, 59.531294776581774 3.1121979531508885 C59.464430081132605 3.4555340324239827, 59.39756538568344 3.7988701116970764, 59.29234428754556 4.339158212148129 C59.192387576069954 4.720336474517399, 59.092430864594355 5.10151473688667, 58.97527313421489 5.548287939305125 C58.86558527817056 5.87865028532411, 58.75589742212623 6.209012631343094, 58.581384229970325 6.734618561215495 C58.41353348698263 7.149213141568461, 58.24568274399493 7.563807721921427, 58.11229614880834 7.893275190886679 C57.92228043595221 8.287846884317375, 57.73226472309609 8.682418577748072, 57.569936474273504 9.019496659696284 C57.382884609660024 9.351626186372707, 57.195832745046545 9.683755713049129, 56.95653387860425 10.108655082055236 C56.80760845183138 10.33744452965487, 56.65868302505851 10.566233977254505, 56.27460896464064 11.156274872382301 C56.05668362991594 11.448274967506984, 55.83875829519124 11.740275062631667, 55.52696390812658 12.158051136245302 C55.27846747264995 12.449949189203899, 55.02997103717332 12.741847242162494, 54.71667094296866 13.10986736009567 C54.377402700070505 13.460189675328783, 54.03813445717234 13.810511990561896, 53.84705973676799 14.007812326905684 C53.591918775492715 14.239524597275981, 53.336777814217434 14.471236867646278, 52.92170370850189 14.848196188198111 C52.67201655744006 15.047315046715779, 52.42232940637823 15.246433905233449, 51.94440534457871 15.627565626425152 C51.60606216795063 15.86357917980085, 51.267718991322546 16.099592733176546, 50.91918057360571 16.34271804539089 C50.62091939159084 16.523525726705564, 50.32265820957596 16.70433340802024, 49.85024226407678 16.990714730406093 C49.55080862307944 17.146929069118006, 49.251374982082105 17.303143407829918, 48.74198291279239 17.56889292409717 C48.441197658436494 17.70204163372297, 48.14041240408059 17.835190343348774, 47.598956595147804 18.07487676824742 C47.238725034459755 18.207445312524666, 46.87849347377171 18.34001385680191, 46.42586025146062 18.506587066708033 C46.1347997563649 18.592972293844728, 45.84373926126917 18.679357520981423, 45.22751438623541 18.86224982926107 C44.960741246922964 18.92313905745171, 44.693968107610516 18.984028285642353, 44.008843259676766 19.140403561325773 C43.57184141125599 19.211054631178495, 43.13483956283521 19.281705701031218, 42.77485465284788 19.3399052695533 C42.3202615034026 19.383759323952034, 41.86566835395732 19.42761337835077, 41.5306192896239 19.45993515863156 C41.115251509685734 19.47325519486984, 40.69988372974756 19.48657523110812, 40.28125000000001 19.5 C40.28125000000001 19.5, 40.28125 19.5, 40.28125 19.5 C14.363483582061168 19.5, -11.554282835877665 19.5, -40.28124999999999 19.5 C-40.5988032353997 19.489816685820607, -40.91635647079941 19.479633371641217, -41.53061928962389 19.45993515863156 C-42.02153542368305 19.412577069591904, -42.51245155774221 19.36521898055225, -42.77485465284787 19.3399052695533 C-43.182518802155734 19.2739972913759, -43.59018295146359 19.208089313198496, -44.00884325967676 19.140403561325773 C-44.35661034280369 19.061027993994355, -44.70437742593063 18.981652426662933, -45.227514386235384 18.862249829261074 C-45.59420587630608 18.753417719811004, -45.96089736637676 18.644585610360934, -46.42586025146059 18.506587066708043 C-46.86711741397352 18.34420035196679, -47.30837457648644 18.181813637225538, -47.5989565951478 18.074876768247425 C-47.99889000218675 17.897838112554286, -48.3988234092257 17.720799456861148, -48.74198291279238 17.568892924097174 C-49.10793085494075 17.377978117079216, -49.47387879708911 17.18706331006126, -49.85024226407678 16.990714730406097 C-50.26295778254733 16.740524157723648, -50.67567330101788 16.4903335850412, -50.919180573605686 16.3427180453909 C-51.31544637233701 16.066300178265884, -51.71171217106832 15.789882311140872, -51.94440534457871 15.627565626425156 C-52.16259643812504 15.453564035630807, -52.38078753167137 15.279562444836456, -52.921703708501866 14.848196188198125 C-53.135486664229006 14.654044164193786, -53.34926961995614 14.45989214018945, -53.847059736767974 14.007812326905697 C-54.15681931048599 13.687960135307875, -54.46657888420401 13.368107943710053, -54.716670942968655 13.109867360095677 C-54.901561605007444 12.89268426788821, -55.08645226704623 12.675501175680743, -55.526963908126575 12.158051136245307 C-55.70747083103514 11.916188304066809, -55.8879777539437 11.674325471888311, -56.274608964640635 11.156274872382316 C-56.47880575688908 10.842573764972427, -56.68300254913753 10.528872657562538, -56.95653387860425 10.108655082055249 C-57.1755835593377 9.719710192727579, -57.39463324007116 9.330765303399907, -57.569936474273504 9.019496659696289 C-57.701002945059365 8.74733432873622, -57.83206941584523 8.475171997776153, -58.11229614880834 7.893275190886686 C-58.295972428552325 7.439591228779752, -58.47964870829632 6.985907266672817, -58.581384229970325 6.73461856121551 C-58.69913535290091 6.379970940042226, -58.81688647583149 6.025323318868943, -58.97527313421488 5.5482879393051325 C-59.04987445782762 5.263800759951584, -59.12447578144036 4.979313580598037, -59.29234428754556 4.339158212148136 C-59.35488178692008 4.018041370165132, -59.4174192862946 3.6969245281821284, -59.531294776581774 3.112197953150904 C-59.56814115372219 2.8264247281900228, -59.6049875308626 2.5406515032291415, -59.69114270250937 1.872449005199809 C-59.71725122126123 1.4657877512225115, -59.7433597400131 1.0591264972452141, -59.77123121591342 0.6250057626472781 C-59.77123121591342 0.2824724849563325, -59.77123121591342 -0.06006079273461318, -59.77123121591342 -0.6250057626472687 C-59.74194696427318 -1.0811316197663552, -59.71266271263295 -1.5372574768854417, -59.69114270250937 -1.8724490051997822 C-59.63555251542138 -2.3035955187301, -59.5799623283334 -2.7347420322604172, -59.531294776581774 -3.112197953150895 C-59.47472421806535 -3.4026758149409764, -59.41815365954892 -3.6931536767310575, -59.29234428754556 -4.339158212148126 C-59.21214369459901 -4.6449978322101995, -59.13194310165245 -4.950837452272273, -58.97527313421489 -5.548287939305123 C-58.83577710440352 -5.96842775542292, -58.69628107459215 -6.388567571540717, -58.58138422997033 -6.734618561215485 C-58.43464581759469 -7.097065276777523, -58.28790740521905 -7.459511992339562, -58.11229614880834 -7.893275190886676 C-57.977352050841056 -8.1734894976569, -57.84240795287377 -8.453703804427123, -57.569936474273504 -9.019496659696282 C-57.42674518713765 -9.273747289696116, -57.283553900001785 -9.527997919695949, -56.95653387860425 -10.108655082055243 C-56.815194235607095 -10.325790728707217, -56.67385459260994 -10.542926375359189, -56.27460896464064 -11.156274872382308 C-56.01421921826001 -11.50517341053845, -55.753829471879385 -11.854071948694592, -55.52696390812659 -12.158051136245302 C-55.223322777795055 -12.514725285602491, -54.91968164746352 -12.871399434959681, -54.71667094296866 -13.10986736009567 C-54.46102037142897 -13.373847564512667, -54.20536979988929 -13.637827768929665, -53.847059736767996 -14.007812326905677 C-53.64800011820624 -14.18859300565457, -53.448940499644486 -14.369373684403461, -52.92170370850189 -14.848196188198107 C-52.54079257923796 -15.15196267731524, -52.15988144997402 -15.455729166432372, -51.94440534457872 -15.627565626425149 C-51.69305310983391 -15.802898064520253, -51.441700875089104 -15.978230502615359, -50.919180573605715 -16.342718045390885 C-50.56203742112969 -16.55922032322798, -50.20489426865367 -16.775722601065073, -49.85024226407679 -16.99071473040609 C-49.62608497564574 -17.107657444200974, -49.40192768721469 -17.22460015799586, -48.74198291279239 -17.56889292409717 C-48.30271229712348 -17.763344995153957, -47.86344168145457 -17.957797066210745, -47.598956595147804 -18.07487676824742 C-47.312949440749264 -18.18013004488724, -47.026942286350724 -18.285383321527053, -46.42586025146062 -18.506587066708033 C-46.06217606701956 -18.614526623632898, -45.698491882578494 -18.722466180557767, -45.22751438623541 -18.862249829261067 C-44.9684198190436 -18.921386473472538, -44.7093252518518 -18.980523117684008, -44.008843259676766 -19.140403561325773 C-43.68414987606562 -19.192897469553227, -43.35945649245448 -19.24539137778068, -42.77485465284788 -19.3399052695533 C-42.30885223536361 -19.384859962318103, -41.84284981787935 -19.429814655082907, -41.5306192896239 -19.45993515863156 C-41.09510536704777 -19.47390124245215, -40.659591444471644 -19.48786732627274, -40.28125000000001 -19.5 C-40.28125000000001 -19.5, -40.28125000000001 -19.5, -40.28125 -19.5" stroke="none" stroke-width="0" fill="#ECECFF" style=""/><path d="M-40.28125 -19.5 C-12.813449737445591 -19.5, 14.654350525108818 -19.5, 40.28125 -19.5 M-40.28125 -19.5 C-19.234434149075152 -19.5, 1.812381701849695 -19.5, 40.28125 -19.5 M40.28125 -19.5 C40.28125 -19.5, 40.28125 -19.5, 40.28125 -19.5 M40.28125 -19.5 C40.28125 -19.5, 40.28125 -19.5, 40.28125 -19.5 M40.28125 -19.5 C40.58751888312044 -19.490178553034543, 40.89378776624088 -19.48035710606909, 41.5306192896239 -19.45993515863156 M40.28125 -19.5 C40.629373043307936 -19.488836371581513, 40.97749608661588 -19.477672743163023, 41.5306192896239 -19.45993515863156 M41.5306192896239 -19.45993515863156 C41.794416680734 -19.434486941573947, 42.058214071844105 -19.409038724516336, 42.774854652847864 -19.3399052695533 M41.5306192896239 -19.45993515863156 C41.79668293404766 -19.434268318842346, 42.062746578471426 -19.408601479053136, 42.774854652847864 -19.3399052695533 M42.774854652847864 -19.3399052695533 C43.12813014410743 -19.282790427818806, 43.481405635367 -19.22567558608431, 44.00884325967676 -19.140403561325776 M42.774854652847864 -19.3399052695533 C43.08546413665994 -19.289688337023087, 43.39607362047201 -19.239471404492875, 44.00884325967676 -19.140403561325776 M44.00884325967676 -19.140403561325776 C44.30692390884018 -19.072368598312245, 44.6050045580036 -19.004333635298714, 45.22751438623539 -18.862249829261074 M44.00884325967676 -19.140403561325776 C44.29254207789115 -19.075651157376143, 44.57624089610554 -19.01089875342651, 45.22751438623539 -18.862249829261074 M45.22751438623539 -18.862249829261074 C45.67805398114793 -18.728532042421627, 46.128593576060474 -18.59481425558218, 46.425860251460605 -18.50658706670804 M45.22751438623539 -18.862249829261074 C45.476977307283505 -18.78821054375159, 45.72644022833162 -18.7141712582421, 46.425860251460605 -18.50658706670804 M46.425860251460605 -18.50658706670804 C46.83812092417461 -18.354871328253402, 47.250381596888616 -18.203155589798765, 47.5989565951478 -18.074876768247425 M46.425860251460605 -18.50658706670804 C46.672047060871925 -18.415988045118755, 46.91823387028324 -18.32538902352947, 47.5989565951478 -18.074876768247425 M47.5989565951478 -18.074876768247425 C47.85323065488588 -17.96231718477336, 48.10750471462396 -17.849757601299302, 48.74198291279238 -17.568892924097174 M47.5989565951478 -18.074876768247425 C47.86370392333181 -17.95768097951082, 48.12845125151582 -17.840485190774213, 48.74198291279238 -17.568892924097174 M48.74198291279238 -17.568892924097174 C48.99649538626053 -17.436113929711862, 49.251007859728674 -17.30333493532655, 49.85024226407678 -16.990714730406097 M48.74198291279238 -17.568892924097174 C48.96460891738124 -17.452749080101928, 49.187234921970095 -17.336605236106685, 49.85024226407678 -16.990714730406097 M49.85024226407678 -16.990714730406097 C50.14951875156721 -16.809291564945543, 50.44879523905763 -16.62786839948499, 50.9191805736057 -16.342718045390892 M49.85024226407678 -16.990714730406097 C50.242232722789794 -16.753087810742638, 50.63422318150281 -16.51546089107918, 50.9191805736057 -16.342718045390892 M50.9191805736057 -16.342718045390892 C51.31625073254206 -16.065739091407032, 51.713320891478425 -15.78876013742317, 51.94440534457871 -15.627565626425154 M50.9191805736057 -16.342718045390892 C51.252840148206104 -16.10997157003984, 51.58649972280651 -15.877225094688788, 51.94440534457871 -15.627565626425154 M51.94440534457871 -15.627565626425154 C52.30616388017081 -15.339072821089392, 52.667922415762895 -15.05058001575363, 52.921703708501866 -14.848196188198123 M51.94440534457871 -15.627565626425154 C52.26940404583188 -15.368387810754413, 52.594402747085034 -15.109209995083672, 52.921703708501866 -14.848196188198123 M52.921703708501866 -14.848196188198123 C53.27988563889581 -14.5229048359889, 53.63806756928976 -14.197613483779676, 53.84705973676799 -14.007812326905688 M52.921703708501866 -14.848196188198123 C53.12995041402658 -14.659072040146473, 53.338197119551296 -14.469947892094822, 53.84705973676799 -14.007812326905688 M53.84705973676799 -14.007812326905688 C54.13919568344963 -13.706157977149616, 54.43133163013127 -13.404503627393543, 54.71667094296865 -13.10986736009568 M53.84705973676799 -14.007812326905688 C54.193981937107814 -13.649586672212456, 54.54090413744765 -13.291361017519224, 54.71667094296865 -13.10986736009568 M54.71667094296865 -13.10986736009568 C54.92414757906788 -12.866153497578493, 55.1316242151671 -12.622439635061307, 55.52696390812658 -12.158051136245305 M54.71667094296865 -13.10986736009568 C54.93966767000275 -12.847922715648203, 55.16266439703684 -12.585978071200724, 55.52696390812658 -12.158051136245305 M55.52696390812658 -12.158051136245305 C55.76768746594226 -11.835503499139566, 56.00841102375793 -11.512955862033827, 56.274608964640635 -11.156274872382312 M55.52696390812658 -12.158051136245305 C55.77344867535484 -11.827784003383673, 56.01993344258311 -11.49751687052204, 56.274608964640635 -11.156274872382312 M56.274608964640635 -11.156274872382312 C56.449534113650785 -10.887542869523234, 56.624459262660935 -10.618810866664155, 56.95653387860425 -10.108655082055241 M56.274608964640635 -11.156274872382312 C56.46141294093692 -10.869293800899978, 56.6482169172332 -10.582312729417646, 56.95653387860425 -10.108655082055241 M56.95653387860425 -10.108655082055241 C57.16265085388407 -9.742673520838938, 57.368767829163886 -9.376691959622633, 57.569936474273504 -9.019496659696287 M56.95653387860425 -10.108655082055241 C57.18668293165771 -9.700002133240087, 57.416831984711166 -9.291349184424933, 57.569936474273504 -9.019496659696287 M57.569936474273504 -9.019496659696287 C57.687050928528635 -8.77630598958762, 57.80416538278376 -8.533115319478952, 58.11229614880834 -7.893275190886684 M57.569936474273504 -9.019496659696287 C57.69226539851802 -8.765478031082878, 57.81459432276253 -8.51145940246947, 58.11229614880834 -7.893275190886684 M58.11229614880834 -7.893275190886684 C58.24012924521484 -7.5775249712778425, 58.36796234162134 -7.261774751669001, 58.581384229970325 -6.734618561215508 M58.11229614880834 -7.893275190886684 C58.20952902441741 -7.653108108262522, 58.30676190002648 -7.41294102563836, 58.581384229970325 -6.734618561215508 M58.581384229970325 -6.734618561215508 C58.738384856495614 -6.261757688774127, 58.895385483020895 -5.7888968163327466, 58.97527313421488 -5.548287939305138 M58.581384229970325 -6.734618561215508 C58.73107393553648 -6.283777017865964, 58.88076364110263 -5.832935474516421, 58.97527313421488 -5.548287939305138 M58.97527313421488 -5.548287939305138 C59.08008926296033 -5.1485786128011855, 59.184905391705776 -4.748869286297232, 59.29234428754556 -4.339158212148133 M58.97527313421488 -5.548287939305138 C59.08435723885722 -5.132302970953868, 59.19344134349957 -4.716318002602597, 59.29234428754556 -4.339158212148133 M59.29234428754556 -4.339158212148133 C59.35466012045701 -4.019179580603775, 59.416975953368464 -3.699200949059417, 59.531294776581774 -3.1121979531509023 M59.29234428754556 -4.339158212148133 C59.386475036129866 -3.855816712708468, 59.48060578471417 -3.372475213268803, 59.531294776581774 -3.1121979531509023 M59.531294776581774 -3.1121979531509023 C59.57897425633978 -2.7424053235260963, 59.62665373609777 -2.372612693901291, 59.69114270250937 -1.872449005199798 M59.531294776581774 -3.1121979531509023 C59.57475895172188 -2.775098393736383, 59.618223126862 -2.4379988343218635, 59.69114270250937 -1.872449005199798 M59.69114270250937 -1.872449005199798 C59.71016674406901 -1.5761342019784204, 59.72919078562865 -1.2798193987570428, 59.77123121591342 -0.6250057626472757 M59.69114270250937 -1.872449005199798 C59.71017796023964 -1.5759595010673206, 59.729213217969914 -1.2794699969348433, 59.77123121591342 -0.6250057626472757 M59.77123121591342 -0.6250057626472757 C59.77123121591342 -0.22798307491942893, 59.77123121591342 0.16903961280841784, 59.77123121591342 0.625005762647271 M59.77123121591342 -0.6250057626472757 C59.77123121591342 -0.37428711087539135, 59.77123121591342 -0.123568459103507, 59.77123121591342 0.625005762647271 M59.77123121591342 0.625005762647271 C59.74419335617699 1.046142252609637, 59.71715549644057 1.4672787425720029, 59.69114270250937 1.8724490051997846 M59.77123121591342 0.625005762647271 C59.744686540517776 1.0384605084107081, 59.718141865122135 1.4519152541741451, 59.69114270250937 1.8724490051997846 M59.69114270250937 1.8724490051997846 C59.65495212446375 2.1531359818836564, 59.61876154641812 2.4338229585675286, 59.531294776581774 3.1121979531508885 M59.69114270250937 1.8724490051997846 C59.63704238966572 2.2920403482999196, 59.582942076822086 2.7116316914000547, 59.531294776581774 3.1121979531508885 M59.531294776581774 3.1121979531508885 C59.483312422218454 3.3585772017323428, 59.43533006785514 3.604956450313797, 59.29234428754556 4.339158212148129 M59.531294776581774 3.1121979531508885 C59.46033235791174 3.476574975109015, 59.38936993924171 3.840951997067142, 59.29234428754556 4.339158212148129 M59.29234428754556 4.339158212148129 C59.16782142042416 4.814017873034029, 59.04329855330276 5.288877533919928, 58.97527313421489 5.548287939305125 M59.29234428754556 4.339158212148129 C59.20049612627962 4.6894150583000656, 59.10864796501368 5.039671904452002, 58.97527313421489 5.548287939305125 M58.97527313421489 5.548287939305125 C58.824760033377146 6.001609418022457, 58.674246932539404 6.454930896739788, 58.581384229970325 6.734618561215495 M58.97527313421489 5.548287939305125 C58.87654413671802 5.845643949436171, 58.77781513922114 6.142999959567217, 58.581384229970325 6.734618561215495 M58.581384229970325 6.734618561215495 C58.482973202077936 6.977695702757494, 58.38456217418554 7.220772844299493, 58.11229614880834 7.893275190886679 M58.581384229970325 6.734618561215495 C58.45099144630732 7.056691257836088, 58.320598662644315 7.378763954456683, 58.11229614880834 7.893275190886679 M58.11229614880834 7.893275190886679 C57.98330238892505 8.161133493308656, 57.85430862904175 8.428991795730632, 57.569936474273504 9.019496659696284 M58.11229614880834 7.893275190886679 C57.94370151049333 8.243365564695177, 57.77510687217832 8.593455938503674, 57.569936474273504 9.019496659696284 M57.569936474273504 9.019496659696284 C57.325096839135306 9.454234224585637, 57.08025720399711 9.88897178947499, 56.95653387860425 10.108655082055236 M57.569936474273504 9.019496659696284 C57.37632799589423 9.36326811804301, 57.182719517514954 9.707039576389738, 56.95653387860425 10.108655082055236 M56.95653387860425 10.108655082055236 C56.816000802749876 10.324551624982295, 56.675467726895505 10.540448167909354, 56.27460896464064 11.156274872382301 M56.95653387860425 10.108655082055236 C56.76844852216878 10.3976046975301, 56.58036316573332 10.686554313004967, 56.27460896464064 11.156274872382301 M56.27460896464064 11.156274872382301 C56.042512296483686 11.467263263271173, 55.81041562832673 11.778251654160046, 55.52696390812658 12.158051136245302 M56.27460896464064 11.156274872382301 C56.09391411556834 11.398389508499793, 55.91321926649603 11.640504144617285, 55.52696390812658 12.158051136245302 M55.52696390812658 12.158051136245302 C55.293653058109655 12.43211133643864, 55.06034220809273 12.706171536631976, 54.71667094296866 13.10986736009567 M55.52696390812658 12.158051136245302 C55.22316303289762 12.514912931048762, 54.919362157668644 12.871774725852223, 54.71667094296866 13.10986736009567 M54.71667094296866 13.10986736009567 C54.48373955690865 13.350388140225087, 54.250808170848636 13.590908920354503, 53.84705973676799 14.007812326905684 M54.71667094296866 13.10986736009567 C54.503398401710896 13.330088768945593, 54.290125860453124 13.550310177795517, 53.84705973676799 14.007812326905684 M53.84705973676799 14.007812326905684 C53.62119735227181 14.212934568513898, 53.395334967775625 14.41805681012211, 52.92170370850189 14.848196188198111 M53.84705973676799 14.007812326905684 C53.62387070190937 14.21050670310602, 53.40068166705075 14.413201079306358, 52.92170370850189 14.848196188198111 M52.92170370850189 14.848196188198111 C52.58068071955258 15.12015294688232, 52.23965773060328 15.392109705566526, 51.94440534457871 15.627565626425152 M52.92170370850189 14.848196188198111 C52.70853073220317 15.018195964025194, 52.49535775590446 15.18819573985228, 51.94440534457871 15.627565626425152 M51.94440534457871 15.627565626425152 C51.65617473785024 15.828622820377065, 51.36794413112178 16.029680014328978, 50.91918057360571 16.34271804539089 M51.94440534457871 15.627565626425152 C51.6808333776818 15.811422020685885, 51.41726141078489 15.995278414946618, 50.91918057360571 16.34271804539089 M50.91918057360571 16.34271804539089 C50.6857653849798 16.484215704435815, 50.452350196353905 16.62571336348074, 49.85024226407678 16.990714730406093 M50.91918057360571 16.34271804539089 C50.640600776799715 16.511594755331284, 50.36202097999372 16.68047146527168, 49.85024226407678 16.990714730406093 M49.85024226407678 16.990714730406093 C49.44283947250414 17.2032565058156, 49.035436680931504 17.415798281225104, 48.74198291279239 17.56889292409717 M49.85024226407678 16.990714730406093 C49.543315382346286 17.150838288008842, 49.236388500615796 17.31096184561159, 48.74198291279239 17.56889292409717 M48.74198291279239 17.56889292409717 C48.42766614473355 17.70803163344117, 48.11334937667472 17.84717034278517, 47.598956595147804 18.07487676824742 M48.74198291279239 17.56889292409717 C48.337697072325085 17.74785827295869, 47.933411231857775 17.926823621820212, 47.598956595147804 18.07487676824742 M47.598956595147804 18.07487676824742 C47.321162119721244 18.177107703108376, 47.04336764429469 18.27933863796933, 46.42586025146062 18.506587066708033 M47.598956595147804 18.07487676824742 C47.15617098742899 18.23782596495323, 46.71338537971018 18.40077516165904, 46.42586025146062 18.506587066708033 M46.42586025146062 18.506587066708033 C45.99563421152472 18.634275897058444, 45.565408171588814 18.761964727408852, 45.22751438623541 18.86224982926107 M46.42586025146062 18.506587066708033 C46.16431643290438 18.58421189918401, 45.90277261434813 18.66183673165998, 45.22751438623541 18.86224982926107 M45.22751438623541 18.86224982926107 C44.74277840988902 18.972887652664273, 44.25804243354263 19.083525476067475, 44.008843259676766 19.140403561325773 M45.22751438623541 18.86224982926107 C44.929635185467795 18.930238812992833, 44.63175598470018 18.998227796724596, 44.008843259676766 19.140403561325773 M44.008843259676766 19.140403561325773 C43.68136738895404 19.19334732049092, 43.3538915182313 19.246291079656064, 42.77485465284788 19.3399052695533 M44.008843259676766 19.140403561325773 C43.71074165807052 19.188598316461025, 43.41264005646427 19.236793071596274, 42.77485465284788 19.3399052695533 M42.77485465284788 19.3399052695533 C42.517011898672784 19.364779049947288, 42.25916914449769 19.38965283034128, 41.5306192896239 19.45993515863156 M42.77485465284788 19.3399052695533 C42.333430444076086 19.38248893208323, 41.892006235304294 19.425072594613162, 41.5306192896239 19.45993515863156 M41.5306192896239 19.45993515863156 C41.20998147256972 19.470217389340835, 40.889343655515546 19.480499620050114, 40.28125000000001 19.5 M41.5306192896239 19.45993515863156 C41.211525678675414 19.470167869656642, 40.89243206772692 19.480400580681724, 40.28125000000001 19.5 M40.28125000000001 19.5 C40.28125000000001 19.5, 40.28125 19.5, 40.28125 19.5 M40.28125000000001 19.5 C40.28125000000001 19.5, 40.28125000000001 19.5, 40.28125 19.5 M40.28125 19.5 C9.478389050870422 19.5, -21.324471898259155 19.5, -40.28124999999999 19.5 M40.28125 19.5 C17.100988581699117 19.5, -6.079272836601767 19.5, -40.28124999999999 19.5 M-40.28124999999999 19.5 C-40.73199809632175 19.485545385878908, -41.182746192643506 19.471090771757815, -41.53061928962389 19.45993515863156 M-40.28124999999999 19.5 C-40.74031320802505 19.485278736430963, -41.1993764160501 19.47055747286193, -41.53061928962389 19.45993515863156 M-41.53061928962389 19.45993515863156 C-41.789627961069726 19.43494890360068, -42.04863663251556 19.409962648569802, -42.77485465284787 19.3399052695533 M-41.53061928962389 19.45993515863156 C-41.8593110885233 19.428226656101458, -42.18800288742271 19.396518153571357, -42.77485465284787 19.3399052695533 M-42.77485465284787 19.3399052695533 C-43.081087171780986 19.290395970760844, -43.387319690714094 19.240886671968394, -44.00884325967676 19.140403561325773 M-42.77485465284787 19.3399052695533 C-43.21276276822297 19.269107681487608, -43.65067088359807 19.198310093421913, -44.00884325967676 19.140403561325773 M-44.00884325967676 19.140403561325773 C-44.439075296701304 19.04220590640134, -44.86930733372584 18.944008251476905, -45.227514386235384 18.862249829261074 M-44.00884325967676 19.140403561325773 C-44.270030749572925 19.08078922116463, -44.53121823946909 19.021174881003486, -45.227514386235384 18.862249829261074 M-45.227514386235384 18.862249829261074 C-45.666903644923394 18.73184140368376, -46.106292903611404 18.60143297810644, -46.42586025146059 18.506587066708043 M-45.227514386235384 18.862249829261074 C-45.54098401473291 18.769213688958665, -45.85445364323044 18.676177548656256, -46.42586025146059 18.506587066708043 M-46.42586025146059 18.506587066708043 C-46.81444701439431 18.363583545891775, -47.20303377732803 18.220580025075506, -47.5989565951478 18.074876768247425 M-46.42586025146059 18.506587066708043 C-46.676657147490886 18.414291490627804, -46.92745404352118 18.32199591454756, -47.5989565951478 18.074876768247425 M-47.5989565951478 18.074876768247425 C-47.970000922412204 17.910626451206372, -48.34104524967661 17.74637613416532, -48.74198291279238 17.568892924097174 M-47.5989565951478 18.074876768247425 C-47.907453867935345 17.93831417683083, -48.2159511407229 17.801751585414234, -48.74198291279238 17.568892924097174 M-48.74198291279238 17.568892924097174 C-49.02560443967848 17.420927755188956, -49.309225966564576 17.272962586280737, -49.85024226407678 16.990714730406097 M-48.74198291279238 17.568892924097174 C-49.02665818154603 17.420378018731608, -49.311333450299685 17.27186311336604, -49.85024226407678 16.990714730406097 M-49.85024226407678 16.990714730406097 C-50.18596475011951 16.78719778644268, -50.52168723616223 16.583680842479257, -50.919180573605686 16.3427180453909 M-49.85024226407678 16.990714730406097 C-50.19166935005649 16.783739624436926, -50.53309643603621 16.57676451846775, -50.919180573605686 16.3427180453909 M-50.919180573605686 16.3427180453909 C-51.1728616434314 16.165761112757, -51.42654271325711 15.988804180123104, -51.94440534457871 15.627565626425156 M-50.919180573605686 16.3427180453909 C-51.286945074071035 16.08618145013491, -51.65470957453638 15.829644854878918, -51.94440534457871 15.627565626425156 M-51.94440534457871 15.627565626425156 C-52.29211497461377 15.350276449414054, -52.639824604648815 15.072987272402951, -52.921703708501866 14.848196188198125 M-51.94440534457871 15.627565626425156 C-52.287990750089534 15.353565408721906, -52.63157615560036 15.079565191018654, -52.921703708501866 14.848196188198125 M-52.921703708501866 14.848196188198125 C-53.114528401983705 14.673077903439735, -53.307353095465544 14.497959618681344, -53.847059736767974 14.007812326905697 M-52.921703708501866 14.848196188198125 C-53.124386530006426 14.664125012401273, -53.327069351510985 14.480053836604423, -53.847059736767974 14.007812326905697 M-53.847059736767974 14.007812326905697 C-54.05138282242123 13.796831965731403, -54.25570590807448 13.585851604557108, -54.716670942968655 13.109867360095677 M-53.847059736767974 14.007812326905697 C-54.13575163884339 13.709714235966878, -54.424443540918794 13.41161614502806, -54.716670942968655 13.109867360095677 M-54.716670942968655 13.109867360095677 C-55.030694281488074 12.740997678236614, -55.34471762000749 12.37212799637755, -55.526963908126575 12.158051136245307 M-54.716670942968655 13.109867360095677 C-54.94355592481101 12.843355350302456, -55.170440906653354 12.576843340509233, -55.526963908126575 12.158051136245307 M-55.526963908126575 12.158051136245307 C-55.80800092228926 11.781487140266009, -56.08903793645194 11.404923144286709, -56.274608964640635 11.156274872382316 M-55.526963908126575 12.158051136245307 C-55.74835453382627 11.86140786690863, -55.96974515952597 11.564764597571953, -56.274608964640635 11.156274872382316 M-56.274608964640635 11.156274872382316 C-56.51336396569676 10.789483076065425, -56.75211896675288 10.422691279748534, -56.95653387860425 10.108655082055249 M-56.274608964640635 11.156274872382316 C-56.52522820212832 10.771256422912984, -56.775847439616 10.386237973443654, -56.95653387860425 10.108655082055249 M-56.95653387860425 10.108655082055249 C-57.170250733073225 9.729179165767372, -57.38396758754221 9.349703249479495, -57.569936474273504 9.019496659696289 M-56.95653387860425 10.108655082055249 C-57.11427553779331 9.828568793090007, -57.27201719698238 9.548482504124763, -57.569936474273504 9.019496659696289 M-57.569936474273504 9.019496659696289 C-57.77075321877299 8.602496392953102, -57.97156996327248 8.185496126209914, -58.11229614880834 7.893275190886686 M-57.569936474273504 9.019496659696289 C-57.71163051582263 8.725265950652727, -57.85332455737175 8.431035241609164, -58.11229614880834 7.893275190886686 M-58.11229614880834 7.893275190886686 C-58.20876746273913 7.654989180331654, -58.30523877666993 7.416703169776622, -58.581384229970325 6.73461856121551 M-58.11229614880834 7.893275190886686 C-58.21340172274737 7.643542468513995, -58.31450729668639 7.3938097461413035, -58.581384229970325 6.73461856121551 M-58.581384229970325 6.73461856121551 C-58.721862148935614 6.311521451408884, -58.86234006790091 5.888424341602259, -58.97527313421488 5.5482879393051325 M-58.581384229970325 6.73461856121551 C-58.72151344849987 6.312571681563487, -58.861642667029415 5.8905248019114635, -58.97527313421488 5.5482879393051325 M-58.97527313421488 5.5482879393051325 C-59.07045644766824 5.185312712398476, -59.1656397611216 4.822337485491818, -59.29234428754556 4.339158212148136 M-58.97527313421488 5.5482879393051325 C-59.09206904873937 5.102894497553719, -59.20886496326385 4.657501055802306, -59.29234428754556 4.339158212148136 M-59.29234428754556 4.339158212148136 C-59.3653720305755 3.9641761861083538, -59.43839977360544 3.589194160068572, -59.531294776581774 3.112197953150904 M-59.29234428754556 4.339158212148136 C-59.34833059223882 4.051680370257934, -59.40431689693208 3.764202528367731, -59.531294776581774 3.112197953150904 M-59.531294776581774 3.112197953150904 C-59.58824478244668 2.6705049537133894, -59.645194788311585 2.228811954275875, -59.69114270250937 1.872449005199809 M-59.531294776581774 3.112197953150904 C-59.57231590738464 2.794046163182366, -59.61333703818752 2.4758943732138277, -59.69114270250937 1.872449005199809 M-59.69114270250937 1.872449005199809 C-59.71287918520784 1.5338857417980263, -59.73461566790632 1.1953224783962435, -59.77123121591342 0.6250057626472781 M-59.69114270250937 1.872449005199809 C-59.71226755720446 1.5434123416478756, -59.73339241189956 1.214375678095942, -59.77123121591342 0.6250057626472781 M-59.77123121591342 0.6250057626472781 C-59.77123121591342 0.18129082419732512, -59.77123121591342 -0.2624241142526279, -59.77123121591342 -0.6250057626472687 M-59.77123121591342 0.6250057626472781 C-59.77123121591342 0.25289132590563757, -59.77123121591342 -0.11922311083600301, -59.77123121591342 -0.6250057626472687 M-59.77123121591342 -0.6250057626472687 C-59.74915453477876 -0.9688678912958164, -59.727077853644104 -1.3127300199443641, -59.69114270250937 -1.8724490051997822 M-59.77123121591342 -0.6250057626472687 C-59.7491809968313 -0.9684557234677305, -59.72713077774918 -1.3119056842881922, -59.69114270250937 -1.8724490051997822 M-59.69114270250937 -1.8724490051997822 C-59.6551145351607 -2.151876356589716, -59.619086367812024 -2.43130370797965, -59.531294776581774 -3.112197953150895 M-59.69114270250937 -1.8724490051997822 C-59.65379059305227 -2.162144590140721, -59.616438483595175 -2.451840175081659, -59.531294776581774 -3.112197953150895 M-59.531294776581774 -3.112197953150895 C-59.47246089445668 -3.4142975033178553, -59.41362701233159 -3.716397053484816, -59.29234428754556 -4.339158212148126 M-59.531294776581774 -3.112197953150895 C-59.44865664329689 -3.5365273019931243, -59.366018510012005 -3.9608566508353533, -59.29234428754556 -4.339158212148126 M-59.29234428754556 -4.339158212148126 C-59.16695420354125 -4.817324946862729, -59.04156411953694 -5.295491681577332, -58.97527313421489 -5.548287939305123 M-59.29234428754556 -4.339158212148126 C-59.182343719537684 -4.758638052509902, -59.072343151529815 -5.178117892871677, -58.97527313421489 -5.548287939305123 M-58.97527313421489 -5.548287939305123 C-58.884115432696774 -5.822840412270349, -58.79295773117865 -6.097392885235576, -58.58138422997033 -6.734618561215485 M-58.97527313421489 -5.548287939305123 C-58.89130174121808 -5.801196395986951, -58.807330348221264 -6.054104852668779, -58.58138422997033 -6.734618561215485 M-58.58138422997033 -6.734618561215485 C-58.48115045309383 -6.982197927988677, -58.38091667621734 -7.2297772947618695, -58.11229614880834 -7.893275190886676 M-58.58138422997033 -6.734618561215485 C-58.41198268264376 -7.153043658268226, -58.24258113531719 -7.571468755320967, -58.11229614880834 -7.893275190886676 M-58.11229614880834 -7.893275190886676 C-57.94678858139929 -8.236955195906209, -57.78128101399024 -8.580635200925743, -57.569936474273504 -9.019496659696282 M-58.11229614880834 -7.893275190886676 C-57.97053328056478 -8.187648820033894, -57.82877041232122 -8.48202244918111, -57.569936474273504 -9.019496659696282 M-57.569936474273504 -9.019496659696282 C-57.360183327601874 -9.391934611421032, -57.150430180930236 -9.764372563145784, -56.95653387860425 -10.108655082055243 M-57.569936474273504 -9.019496659696282 C-57.387358873825704 -9.34368167727816, -57.20478127337791 -9.667866694860038, -56.95653387860425 -10.108655082055243 M-56.95653387860425 -10.108655082055243 C-56.78669924541532 -10.369566685618032, -56.61686461222639 -10.63047828918082, -56.27460896464064 -11.156274872382308 M-56.95653387860425 -10.108655082055243 C-56.75268768053448 -10.421817582658969, -56.5488414824647 -10.734980083262696, -56.27460896464064 -11.156274872382308 M-56.27460896464064 -11.156274872382308 C-56.02170085552626 -11.495148698192851, -55.76879274641188 -11.834022524003393, -55.52696390812659 -12.158051136245302 M-56.27460896464064 -11.156274872382308 C-56.051264930026704 -11.455535531704857, -55.82792089541276 -11.754796191027406, -55.52696390812659 -12.158051136245302 M-55.52696390812659 -12.158051136245302 C-55.29210014999411 -12.433935470674134, -55.057236391861636 -12.709819805102965, -54.71667094296866 -13.10986736009567 M-55.52696390812659 -12.158051136245302 C-55.30822559945014 -12.414993600179017, -55.08948729077369 -12.671936064112732, -54.71667094296866 -13.10986736009567 M-54.71667094296866 -13.10986736009567 C-54.5360947769142 -13.296327077125854, -54.35551861085973 -13.48278679415604, -53.847059736767996 -14.007812326905677 M-54.71667094296866 -13.10986736009567 C-54.40296003536117 -13.43379962834492, -54.089249127753675 -13.757731896594171, -53.847059736767996 -14.007812326905677 M-53.847059736767996 -14.007812326905677 C-53.57578154741413 -14.254180000849287, -53.304503358060266 -14.500547674792898, -52.92170370850189 -14.848196188198107 M-53.847059736767996 -14.007812326905677 C-53.56894246287787 -14.260391076472859, -53.290825188987746 -14.512969826040038, -52.92170370850189 -14.848196188198107 M-52.92170370850189 -14.848196188198107 C-52.58941682764349 -15.11318613315742, -52.257129946785085 -15.378176078116734, -51.94440534457872 -15.627565626425149 M-52.92170370850189 -14.848196188198107 C-52.684372564624375 -15.037461459793445, -52.447041420746864 -15.226726731388782, -51.94440534457872 -15.627565626425149 M-51.94440534457872 -15.627565626425149 C-51.60402625293051 -15.864999345985549, -51.26364716128229 -16.10243306554595, -50.919180573605715 -16.342718045390885 M-51.94440534457872 -15.627565626425149 C-51.711440891616576 -15.790071543942913, -51.478476438654425 -15.952577461460677, -50.919180573605715 -16.342718045390885 M-50.919180573605715 -16.342718045390885 C-50.53889235095601 -16.57325100078279, -50.15860412830631 -16.803783956174698, -49.85024226407679 -16.99071473040609 M-50.919180573605715 -16.342718045390885 C-50.68480804552993 -16.484796049236284, -50.45043551745413 -16.626874053081686, -49.85024226407679 -16.99071473040609 M-49.85024226407679 -16.99071473040609 C-49.55352436103521 -17.145512270365998, -49.256806457993626 -17.300309810325903, -48.74198291279239 -17.56889292409717 M-49.85024226407679 -16.99071473040609 C-49.559151818598004 -17.142576429360044, -49.26806137311921 -17.294438128314003, -48.74198291279239 -17.56889292409717 M-48.74198291279239 -17.56889292409717 C-48.42637469753547 -17.70860331880634, -48.11076648227856 -17.84831371351551, -47.598956595147804 -18.07487676824742 M-48.74198291279239 -17.56889292409717 C-48.45454026795228 -17.69613525628478, -48.16709762311217 -17.82337758847239, -47.598956595147804 -18.07487676824742 M-47.598956595147804 -18.07487676824742 C-47.350250322999536 -18.16640297541356, -47.10154405085127 -18.2579291825797, -46.42586025146062 -18.506587066708033 M-47.598956595147804 -18.07487676824742 C-47.3132920892533 -18.180003947070343, -47.02762758335881 -18.285131125893262, -46.42586025146062 -18.506587066708033 M-46.42586025146062 -18.506587066708033 C-45.96920870051858 -18.642118850014725, -45.512557149576544 -18.777650633321418, -45.22751438623541 -18.862249829261067 M-46.42586025146062 -18.506587066708033 C-46.00279645838825 -18.632150179784745, -45.57973266531588 -18.75771329286146, -45.22751438623541 -18.862249829261067 M-45.22751438623541 -18.862249829261067 C-44.82870427421435 -18.95327563485068, -44.42989416219329 -19.044301440440293, -44.008843259676766 -19.140403561325773 M-45.22751438623541 -18.862249829261067 C-44.75145153744035 -18.970908067898126, -44.275388688645286 -19.079566306535185, -44.008843259676766 -19.140403561325773 M-44.008843259676766 -19.140403561325773 C-43.63955671334503 -19.20010694627675, -43.270270167013294 -19.259810331227726, -42.77485465284788 -19.3399052695533 M-44.008843259676766 -19.140403561325773 C-43.571721732021906 -19.211073979988935, -43.13460020436704 -19.281744398652098, -42.77485465284788 -19.3399052695533 M-42.77485465284788 -19.3399052695533 C-42.39535118705946 -19.376515512478214, -42.015847721271044 -19.41312575540313, -41.5306192896239 -19.45993515863156 M-42.77485465284788 -19.3399052695533 C-42.34451616569181 -19.381419505851493, -41.91417767853574 -19.422933742149688, -41.5306192896239 -19.45993515863156 M-41.5306192896239 -19.45993515863156 C-41.19862997347044 -19.470581409822596, -40.86664065731698 -19.481227661013637, -40.28125000000001 -19.5 M-41.5306192896239 -19.45993515863156 C-41.13618793121194 -19.472583804581767, -40.741756572799986 -19.48523245053197, -40.28125000000001 -19.5 M-40.28125000000001 -19.5 C-40.28125000000001 -19.5, -40.28125 -19.5, -40.28125 -19.5 M-40.28125000000001 -19.5 C-40.28125000000001 -19.5, -40.28125 -19.5, -40.28125 -19.5" stroke="#9370DB" stroke-width="1.3" fill="none" stroke-dasharray="0 0" style=""/></g><g class="label" style="" transform="translate(-47.40625, -12)"><rect/><text x="47.41" y="12.00" text-anchor="middle" dominant-baseline="middle" font-family="Arial, sans-serif" font-size="14" fill="#333">User Message</text></g></g><g class="node default" id="flowchart-CA-1" transform="translate(392.6640625, 124)"><rect class="basic label-container" style="fill:#e2e8f0 !important;stroke:#64748b !important;stroke-width:2px !important" x="-99.0078125" y="-27" width="198.015625" height="54"/><g class="label" style="color:#0f172a !important" transform="translate(-69.0078125, -12)"><rect/><text x="69.01" y="12.00" text-anchor="middle" dominant-baseline="middle" font-family="Arial, sans-serif" font-size="14" fill="#333">Conversation Agent</text></g></g><g class="node default" id="flowchart-Q-3" transform="translate(112.921875, 256.5)"><rect class="basic label-container" style="fill:#fef08a !important;stroke:#ca8a04 !important;stroke-width:2px !important" x="-104.921875" y="-27" width="209.84375" height="54"/><g class="label" style="color:#0f172a !important" transform="translate(-74.921875, -12)"><rect/><text x="74.92" y="12.00" text-anchor="middle" dominant-baseline="middle" font-family="Arial, sans-serif" font-size="14" fill="#333">Ask Probing Question</text></g></g><g class="node default" id="flowchart-N-7" transform="translate(392.6640625, 256.5)"><rect class="basic label-container" style="fill:#bae6fd !important;stroke:#0284c7 !important;stroke-width:2px !important" x="-124.8203125" y="-27" width="249.640625" height="54"/><g class="label" style="color:#0f172a !important" transform="translate(-94.8203125, -12)"><rect/><text x="94.82" y="12.00" text-anchor="middle" dominant-baseline="middle" font-family="Arial, sans-serif" font-size="14" fill="#333">Update ConversationNotes</text></g></g><g class="node default" id="flowchart-C-11" transform="translate(682.8431930541992, 256.5)"><g class="basic label-container outer-path"><path d="M-83.875 -31.5 C-26.299730135336333 -31.5, 31.275539729327335 -31.5, 83.875 -31.5 C83.875 -31.5, 83.875 -31.5, 83.875 -31.5 C84.29563773568916 -31.486510966538134, 84.71627547137831 -31.473021933076264, 85.89321192939245 -31.435279871635593 C86.4524778436888 -31.381328161499095, 87.01174375798513 -31.327376451362596, 87.90313059306193 -31.241385435432253 C88.37562797432533 -31.164995723101505, 88.84812535558872 -31.088606010770757, 89.89649680409322 -30.91911344521856 C90.36239703761724 -30.812774757199854, 90.82829727114125 -30.70643606918115, 91.86511939314947 -30.469788185729428 C92.49927679061723 -30.281573598921106, 93.13343418808499 -30.093359012112785, 93.80090886774406 -29.895256030836062 C94.22540659874545 -29.739036941813538, 94.64990432974685 -29.582817852791017, 95.69591065370028 -29.197877856399685 C96.09140731270908 -29.022803217448043, 96.48690397171787 -28.8477285784964, 97.54233778220308 -28.380519338926202 C98.053057233083 -28.114077328533572, 98.5637766839629 -27.847635318140945, 99.33260288812403 -27.44653917988677 C99.81133347814901 -27.156329882880403, 100.29006406817399 -26.866120585874036, 101.05934938813228 -26.399775304092984 C101.70389223841858 -25.950170113543553, 102.34843508870486 -25.500564922994126, 102.7154817104733 -25.244529088840633 C103.29168989132033 -24.785018398158783, 103.86789807216736 -24.325507707476934, 104.29419445219533 -23.985547688627737 C104.7181336106785 -23.60053736170879, 105.14207276916167 -23.215527034789844, 105.78900034400982 -22.62800452807842 C106.22113744828452 -22.18178748879871, 106.65327455255921 -21.735570449519003, 107.19375690787243 -21.177478043231485 C107.5554195200369 -20.75264855979748, 107.91708213220139 -20.32781907636347, 108.50269169774293 -19.63992875855011 C108.87300708380933 -19.14373987764684, 109.24332246987572 -18.64755099674357, 109.7104260198041 -18.02167479384835 C110.00771848061427 -17.56495373984035, 110.30501094142446 -17.108232685832352, 110.8119970346684 -16.329365901781543 C111.08916282910313 -15.837229967682601, 111.36632862353787 -15.34509403358366, 111.8028781507495 -14.56995614258631 C112.08547058215214 -13.983146912269344, 112.36806301355477 -13.39633768195238, 112.67899762499809 -12.750675308355413 C112.84050013672692 -12.351760981946573, 113.00200264845574 -11.952846655537732, 113.43675529456745 -10.878999214271206 C113.59567691437236 -10.4003526161403, 113.75459853417728 -9.921706018009395, 114.07303737065482 -8.962618978877531 C114.24153603437414 -8.320060546332972, 114.41003469809344 -7.677502113788412, 114.58522923372745 -7.009409419623907 C114.70264136139168 -6.406522959129984, 114.82005348905594 -5.803636498636061, 114.97122617755518 -5.027396693551458 C115.02921234826837 -4.577667404164544, 115.08719851898155 -4.127938114777631, 115.22944205789975 -3.024725316091981 C115.25738305132761 -2.5895217898891025, 115.28532404475547 -2.154318263686224, 115.35881581032167 -1.0096246935071378 C115.35881581032167 -0.30453208758905204, 115.35881581032167 0.4005605183290337, 115.35881581032167 1.00962469350713 C115.31415398625606 1.7052686537045232, 115.26949216219045 2.400912613901916, 115.22944205789975 3.02472531609196 C115.13280655623625 3.774211184155794, 115.03617105457276 4.523697052219628, 114.97122617755518 5.027396693551435 C114.85708615963658 5.613481562062128, 114.74294614171798 6.19956643057282, 114.58522923372745 7.0094094196239 C114.46176204082212 7.480243337191776, 114.33829484791681 7.951077254759651, 114.07303737065482 8.96261897887751 C113.86676843530117 9.583868147670954, 113.6604994999475 10.2051173164644, 113.43675529456746 10.878999214271184 C113.2006036042194 11.462298455113244, 112.96445191387132 12.045597695955301, 112.67899762499809 12.750675308355405 C112.47169562788058 13.181142340922106, 112.26439363076305 13.611609373488808, 111.8028781507495 14.569956142586303 C111.59681000328277 14.935851005076124, 111.39074185581603 15.301745867565947, 110.81199703466841 16.329365901781536 C110.5846226354358 16.678674037578023, 110.35724823620319 17.027982173374507, 109.71042601980412 18.021674793848334 C109.31658253056533 18.549389189548318, 108.92273904132655 19.077103585248302, 108.50269169774295 19.639928758550102 C108.03468474868798 20.18967635125988, 107.566677799633 20.73942394396966, 107.19375690787246 21.177478043231467 C106.90124674058492 21.479518806487196, 106.6087365732974 21.781559569742925, 105.78900034400982 22.628004528078414 C105.36904822674884 23.0093939296507, 104.94909610948785 23.390783331222984, 104.29419445219536 23.985547688627715 C103.78412509459687 24.392314427796844, 103.2740557369984 24.799081166965973, 102.71548171047331 25.24452908884063 C102.32068708427367 25.51992072969358, 101.92589245807403 25.79531237054653, 101.05934938813229 26.399775304092973 C100.648113160736 26.649069121832923, 100.23687693333972 26.898362939572877, 99.33260288812404 27.446539179886766 C98.86580532262552 27.69006717080924, 98.39900775712698 27.933595161731713, 97.54233778220309 28.3805193389262 C97.06458743352513 28.592005246325368, 96.58683708484718 28.80349115372454, 95.6959106537003 29.197877856399682 C95.00190979667336 29.45327658705919, 94.30790893964642 29.7086753177187, 93.80090886774407 29.895256030836055 C93.27584571368773 30.051092018847243, 92.75078255963139 30.206928006858426, 91.86511939314951 30.46978818572942 C91.32736114184232 30.592527997389745, 90.78960289053514 30.71526780905007, 89.89649680409323 30.919113445218557 C89.10567028932553 31.046968143174983, 88.31484377455781 31.17482284113141, 87.90313059306196 31.24138543543225 C87.47000142655075 31.283168885211552, 87.03687226003954 31.32495233499085, 85.89321192939245 31.435279871635593 C85.20324541716218 31.457405754744475, 84.5132789049319 31.479531637853356, 83.875 31.5 C83.875 31.5, 83.875 31.5, 83.875 31.5 C29.484600250009855 31.5, -24.90579949998029 31.5, -83.875 31.5 C-84.44981318385581 31.48156685999973, -85.0246263677116 31.463133719999465, -85.89321192939244 31.435279871635593 C-86.32621408174326 31.393508674759588, -86.7592162340941 31.35173747788358, -87.90313059306195 31.24138543543225 C-88.42721298812383 31.15665585811832, -88.95129538318571 31.07192628080439, -89.89649680409323 30.919113445218557 C-90.4813654314169 30.785620997656405, -91.06623405874058 30.65212855009425, -91.86511939314947 30.469788185729428 C-92.44293687404287 30.298294990426115, -93.02075435493629 30.1268017951228, -93.80090886774403 29.89525603083607 C-94.55569609614794 29.617487353606776, -95.31048332455184 29.339718676377487, -95.69591065370028 29.197877856399685 C-96.29323789696409 28.93345880488991, -96.89056514022789 28.669039753380137, -97.54233778220308 28.380519338926206 C-98.17803996142783 28.048873919211335, -98.81374214065256 27.717228499496464, -99.33260288812403 27.446539179886773 C-99.83569605550913 27.141561145314306, -100.33878922289423 26.836583110741834, -101.05934938813226 26.399775304092994 C-101.49611164802091 26.095108858728175, -101.93287390790957 25.790442413363355, -102.7154817104733 25.244529088840636 C-103.06493799668954 24.965847000005514, -103.41439428290577 24.687164911170395, -104.29419445219533 23.98554768862774 C-104.64262663410155 23.669110800030865, -104.99105881600777 23.352673911433985, -105.7890003440098 22.628004528078435 C-106.15805065433734 22.246929783071273, -106.5271009646649 21.86585503806411, -107.19375690787244 21.177478043231478 C-107.67068789919381 20.617247762683206, -108.14761889051518 20.057017482134935, -108.50269169774293 19.639928758550113 C-108.95605889031734 19.03245802310133, -109.40942608289174 18.424987287652545, -109.7104260198041 18.021674793848355 C-109.97857151255621 17.609731309834352, -110.24671700530833 17.197787825820352, -110.8119970346684 16.329365901781557 C-111.18060811433752 15.67485960390974, -111.54921919400664 15.020353306037922, -111.8028781507495 14.569956142586314 C-112.0379335162106 14.081858646827232, -112.27298888167168 13.593761151068152, -112.67899762499809 12.750675308355417 C-112.97219297170217 12.026477133449948, -113.26538831840624 11.302278958544479, -113.43675529456745 10.878999214271209 C-113.62036705776683 10.325989838076307, -113.80397882096621 9.772980461881405, -114.07303737065482 8.962618978877522 C-114.2293037719531 8.366707464440408, -114.38557017325138 7.770795950003293, -114.58522923372743 7.009409419623911 C-114.71566003928223 6.3396747996605605, -114.84609084483704 5.6699401796972095, -114.97122617755518 5.027396693551461 C-115.04520837050471 4.453605414471374, -115.11919056345424 3.879814135391287, -115.22944205789975 3.024725316091999 C-115.25694375597162 2.5963641696514617, -115.28444545404349 2.1680030232109244, -115.35881581032167 1.0096246935071416 C-115.35881581032167 0.3600872763569033, -115.35881581032167 -0.289450140793335, -115.35881581032167 -1.0096246935071262 C-115.31475299794353 -1.6959385631587303, -115.27069018556539 -2.382252432810334, -115.22944205789975 -3.024725316091956 C-115.16801867759408 -3.5011129243243904, -115.1065952972884 -3.977500532556825, -114.97122617755518 -5.027396693551446 C-114.86898105476385 -5.552403789570544, -114.76673593197253 -6.077410885589642, -114.58522923372745 -7.009409419623896 C-114.38496847818081 -7.773090474083704, -114.18470772263417 -8.536771528543511, -114.07303737065482 -8.962618978877506 C-113.9435065137442 -9.352745281952913, -113.81397565683359 -9.742871585028322, -113.43675529456746 -10.878999214271168 C-113.24547896845905 -11.351455437835108, -113.05420264235066 -11.823911661399048, -112.67899762499809 -12.750675308355401 C-112.45191832917818 -13.222210324844008, -112.2248390333583 -13.693745341332614, -111.8028781507495 -14.5699561425863 C-111.51291893223821 -15.084808096607834, -111.22295971372692 -15.599660050629366, -110.8119970346684 -16.329365901781546 C-110.56038650478622 -16.71590724256809, -110.30877597490407 -17.10244858335463, -109.71042601980412 -18.021674793848344 C-109.36487997208683 -18.48467501789697, -109.01933392436953 -18.947675241945593, -108.50269169774295 -19.639928758550102 C-108.15630051892532 -20.046819547405736, -107.80990934010768 -20.453710336261366, -107.19375690787246 -21.177478043231467 C-106.69462328520572 -21.692874488267407, -106.19548966253899 -22.208270933303346, -105.78900034400984 -22.628004528078403 C-105.24350800291198 -23.12340623932703, -104.69801566181413 -23.618807950575654, -104.29419445219536 -23.98554768862771 C-103.81160324194093 -24.37040133651417, -103.3290120316865 -24.755254984400633, -102.71548171047331 -25.244529088840626 C-102.35948592997252 -25.492856334509018, -102.00349014947173 -25.74118358017741, -101.0593493881323 -26.39977530409297 C-100.47817325107263 -26.752087693748624, -99.89699711401295 -27.104400083404283, -99.33260288812404 -27.446539179886763 C-98.93597500590751 -27.65345969198685, -98.53934712369096 -27.860380204086937, -97.54233778220309 -28.3805193389262 C-97.08455055697688 -28.583168163758298, -96.62676333175065 -28.785816988590398, -95.6959106537003 -29.19787785639968 C-95.23855027824844 -29.366190702358924, -94.7811899027966 -29.53450354831817, -93.80090886774407 -29.895256030836055 C-93.12572565428036 -30.095646864483076, -92.45054244081665 -30.296037698130096, -91.86511939314951 -30.469788185729417 C-91.20849346034869 -30.619658770006552, -90.55186752754787 -30.769529354283684, -89.89649680409325 -30.919113445218553 C-89.36847178623736 -31.004480435210322, -88.84044676838148 -31.08984742520209, -87.90313059306196 -31.24138543543225 C-87.27962600033261 -31.301534173618865, -86.65612140760328 -31.361682911805485, -85.89321192939246 -31.435279871635593 C-85.37276623403424 -31.45196955209964, -84.85232053867601 -31.468659232563688, -83.87500000000001 -31.5 C-83.87500000000001 -31.5, -83.875 -31.5, -83.875 -31.5" stroke="none" stroke-width="0" fill="#bbf7d0" style="fill:#bbf7d0 !important;stroke:#22c55e !important;stroke-width:2px !important"/><path d="M-83.875 -31.5 C-35.95218561793952 -31.5, 11.97062876412096 -31.5, 83.875 -31.5 M-83.875 -31.5 C-35.63076520493442 -31.5, 12.61346959013116 -31.5, 83.875 -31.5 M83.875 -31.5 C83.875 -31.5, 83.875 -31.5, 83.875 -31.5 M83.875 -31.5 C83.875 -31.5, 83.875 -31.5, 83.875 -31.5 M83.875 -31.5 C84.36274411153289 -31.48435899567946, 84.85048822306578 -31.468717991358922, 85.89321192939245 -31.435279871635593 M83.875 -31.5 C84.53441711229274 -31.478853776686318, 85.19383422458549 -31.457707553372632, 85.89321192939245 -31.435279871635593 M85.89321192939245 -31.435279871635593 C86.54100232430356 -31.372788311320452, 87.18879271921467 -31.31029675100531, 87.90313059306193 -31.241385435432253 M85.89321192939245 -31.435279871635593 C86.47670188087157 -31.37899129776574, 87.0601918323507 -31.322702723895883, 87.90313059306193 -31.241385435432253 M87.90313059306193 -31.241385435432253 C88.31737571806477 -31.17441349614072, 88.7316208430676 -31.10744155684918, 89.89649680409322 -30.91911344521856 M87.90313059306193 -31.241385435432253 C88.36978500716013 -31.165940368719887, 88.83643942125832 -31.090495302007522, 89.89649680409322 -30.91911344521856 M89.89649680409322 -30.91911344521856 C90.58265883600616 -30.762501439060145, 91.26882086791912 -30.605889432901726, 91.86511939314947 -30.469788185729428 M89.89649680409322 -30.91911344521856 C90.35466301942924 -30.81453999638208, 90.81282923476526 -30.7099665475456, 91.86511939314947 -30.469788185729428 M91.86511939314947 -30.469788185729428 C92.48372569958792 -30.28618908110926, 93.10233200602639 -30.10258997648909, 93.80090886774406 -29.895256030836062 M91.86511939314947 -30.469788185729428 C92.5864693251466 -30.25569531235574, 93.30781925714373 -30.041602438982054, 93.80090886774406 -29.895256030836062 M93.80090886774406 -29.895256030836062 C94.23372796748727 -29.73597460119466, 94.6665470672305 -29.576693171553252, 95.69591065370028 -29.197877856399685 M93.80090886774406 -29.895256030836062 C94.22392558814829 -29.739581967403605, 94.64694230855252 -29.58390790397115, 95.69591065370028 -29.197877856399685 M95.69591065370028 -29.197877856399685 C96.22250919492024 -28.964768303192322, 96.74910773614019 -28.73165874998496, 97.54233778220308 -28.380519338926202 M95.69591065370028 -29.197877856399685 C96.3884348806047 -28.891317924150393, 97.08095910750914 -28.584757991901096, 97.54233778220308 -28.380519338926202 M97.54233778220308 -28.380519338926202 C98.08043800120484 -28.09979279934262, 98.61853822020662 -27.81906625975904, 99.33260288812403 -27.44653917988677 M97.54233778220308 -28.380519338926202 C97.9929451360916 -28.145437771030345, 98.44355248998014 -27.910356203134484, 99.33260288812403 -27.44653917988677 M99.33260288812403 -27.44653917988677 C99.86437881349148 -27.124173488866806, 100.39615473885894 -26.801807797846845, 101.05934938813228 -26.399775304092984 M99.33260288812403 -27.44653917988677 C99.70779426569428 -27.219095961934414, 100.08298564326452 -26.99165274398206, 101.05934938813228 -26.399775304092984 M101.05934938813228 -26.399775304092984 C101.45328997580003 -26.124979403549148, 101.84723056346778 -25.850183503005308, 102.7154817104733 -25.244529088840633 M101.05934938813228 -26.399775304092984 C101.7015537864877 -25.951801316380582, 102.34375818484311 -25.50382732866818, 102.7154817104733 -25.244529088840633 M102.7154817104733 -25.244529088840633 C103.18272217828604 -24.871917249551007, 103.64996264609879 -24.49930541026138, 104.29419445219533 -23.985547688627737 M102.7154817104733 -25.244529088840633 C103.3228398891242 -24.760177103846452, 103.93019806777511 -24.275825118852275, 104.29419445219533 -23.985547688627737 M104.29419445219533 -23.985547688627737 C104.84549873253906 -23.484867727931494, 105.39680301288278 -22.98418776723525, 105.78900034400982 -22.62800452807842 M104.29419445219533 -23.985547688627737 C104.75982929873821 -23.562670441020416, 105.2254641452811 -23.139793193413094, 105.78900034400982 -22.62800452807842 M105.78900034400982 -22.62800452807842 C106.29976253417585 -22.100600632376306, 106.81052472434187 -21.57319673667419, 107.19375690787243 -21.177478043231485 M105.78900034400982 -22.62800452807842 C106.30701247716648 -22.093114471007095, 106.82502461032314 -21.55822441393577, 107.19375690787243 -21.177478043231485 M107.19375690787243 -21.177478043231485 C107.4589084446962 -20.86601596052841, 107.72405998152 -20.554553877825334, 108.50269169774293 -19.63992875855011 M107.19375690787243 -21.177478043231485 C107.49961598205432 -20.81819857082308, 107.80547505623622 -20.458919098414675, 108.50269169774293 -19.63992875855011 M108.50269169774293 -19.63992875855011 C108.77780143121016 -19.27130677871634, 109.05291116467738 -18.902684798882568, 109.7104260198041 -18.02167479384835 M108.50269169774293 -19.63992875855011 C108.84733321094158 -19.17814052835168, 109.19197472414024 -18.71635229815325, 109.7104260198041 -18.02167479384835 M109.7104260198041 -18.02167479384835 C110.02464398051791 -17.538951626855262, 110.33886194123173 -17.056228459862172, 110.8119970346684 -16.329365901781543 M109.7104260198041 -18.02167479384835 C110.10434131532278 -17.416515118864066, 110.49825661084145 -16.811355443879783, 110.8119970346684 -16.329365901781543 M110.8119970346684 -16.329365901781543 C111.09231854648246 -15.83162667192458, 111.37264005829651 -15.333887442067619, 111.8028781507495 -14.56995614258631 M110.8119970346684 -16.329365901781543 C111.04718114513761 -15.911772698669848, 111.28236525560685 -15.494179495558154, 111.8028781507495 -14.56995614258631 M111.8028781507495 -14.56995614258631 C112.0811471680128 -13.992124574235898, 112.35941618527612 -13.414293005885487, 112.67899762499809 -12.750675308355413 M111.8028781507495 -14.56995614258631 C112.03111598443405 -14.096015397433037, 112.2593538181186 -13.622074652279764, 112.67899762499809 -12.750675308355413 M112.67899762499809 -12.750675308355413 C112.94707555248458 -12.088517644529654, 113.21515347997106 -11.426359980703893, 113.43675529456745 -10.878999214271206 M112.67899762499809 -12.750675308355413 C112.96316723211777 -12.048770884724197, 113.24733683923746 -11.346866461092981, 113.43675529456745 -10.878999214271206 M113.43675529456745 -10.878999214271206 C113.67395959288625 -10.164577661107483, 113.91116389120505 -9.450156107943762, 114.07303737065482 -8.962618978877531 M113.43675529456745 -10.878999214271206 C113.60081084234388 -10.38489004307046, 113.76486639012029 -9.890780871869714, 114.07303737065482 -8.962618978877531 M114.07303737065482 -8.962618978877531 C114.19902098611831 -8.482188851470884, 114.32500460158181 -8.001758724064238, 114.58522923372745 -7.009409419623907 M114.07303737065482 -8.962618978877531 C114.21346656411559 -8.42710160181415, 114.35389575757637 -7.891584224750768, 114.58522923372745 -7.009409419623907 M114.58522923372745 -7.009409419623907 C114.707173735844 -6.383250174235049, 114.82911823796056 -5.757090928846191, 114.97122617755518 -5.027396693551458 M114.58522923372745 -7.009409419623907 C114.72305018354365 -6.3017279707858, 114.86087113335984 -5.594046521947693, 114.97122617755518 -5.027396693551458 M114.97122617755518 -5.027396693551458 C115.02920009242293 -4.577762458081587, 115.08717400729067 -4.128128222611716, 115.22944205789975 -3.024725316091981 M114.97122617755518 -5.027396693551458 C115.05189133460745 -4.401773664591015, 115.13255649165973 -3.776150635630571, 115.22944205789975 -3.024725316091981 M115.22944205789975 -3.024725316091981 C115.27929607793529 -2.2482087125978154, 115.32915009797082 -1.4716921091036494, 115.35881581032167 -1.0096246935071378 M115.22944205789975 -3.024725316091981 C115.26323502260954 -2.4983726135469624, 115.29702798731931 -1.9720199110019432, 115.35881581032167 -1.0096246935071378 M115.35881581032167 -1.0096246935071378 C115.35881581032167 -0.47181714107545636, 115.35881581032167 0.06599041135622508, 115.35881581032167 1.00962469350713 M115.35881581032167 -1.0096246935071378 C115.35881581032167 -0.5172524512251586, 115.35881581032167 -0.024880208943179327, 115.35881581032167 1.00962469350713 M115.35881581032167 1.00962469350713 C115.31243943682179 1.7319741451026527, 115.26606306332191 2.454323596698176, 115.22944205789975 3.02472531609196 M115.35881581032167 1.00962469350713 C115.31242486594032 1.7322010983430163, 115.26603392155897 2.454777503178903, 115.22944205789975 3.02472531609196 M115.22944205789975 3.02472531609196 C115.1641869426214 3.5308311041108498, 115.09893182734304 4.03693689212974, 114.97122617755518 5.027396693551435 M115.22944205789975 3.02472531609196 C115.1502972576936 3.6385567575822764, 115.07115245748746 4.252388199072593, 114.97122617755518 5.027396693551435 M114.97122617755518 5.027396693551435 C114.8756824598163 5.517993490968674, 114.78013874207743 6.008590288385914, 114.58522923372745 7.0094094196239 M114.97122617755518 5.027396693551435 C114.86650333559938 5.5651263538140405, 114.76178049364356 6.102856014076645, 114.58522923372745 7.0094094196239 M114.58522923372745 7.0094094196239 C114.45590602234446 7.502574873661572, 114.32658281096148 7.9957403276992425, 114.07303737065482 8.96261897887751 M114.58522923372745 7.0094094196239 C114.47746091912117 7.420376710300641, 114.3696926045149 7.8313440009773805, 114.07303737065482 8.96261897887751 M114.07303737065482 8.96261897887751 C113.92613221278332 9.40507390822818, 113.77922705491181 9.847528837578853, 113.43675529456746 10.878999214271184 M114.07303737065482 8.96261897887751 C113.81857642166605 9.729014814385302, 113.56411547267727 10.495410649893092, 113.43675529456746 10.878999214271184 M113.43675529456746 10.878999214271184 C113.17897412616125 11.515723684094349, 112.92119295775505 12.152448153917515, 112.67899762499809 12.750675308355405 M113.43675529456746 10.878999214271184 C113.19831018801447 11.467963237479589, 112.95986508146147 12.056927260687996, 112.67899762499809 12.750675308355405 M112.67899762499809 12.750675308355405 C112.44540667108376 13.235731922204245, 112.21181571716944 13.720788536053083, 111.8028781507495 14.569956142586303 M112.67899762499809 12.750675308355405 C112.36977021969679 13.392792631870117, 112.06054281439548 14.034909955384832, 111.8028781507495 14.569956142586303 M111.8028781507495 14.569956142586303 C111.58842056287669 14.950747306040086, 111.37396297500388 15.331538469493868, 110.81199703466841 16.329365901781536 M111.8028781507495 14.569956142586303 C111.44284699323781 15.209227919856307, 111.0828158357261 15.848499697126309, 110.81199703466841 16.329365901781536 M110.81199703466841 16.329365901781536 C110.54436701007391 16.74051748828285, 110.27673698547942 17.151669074784166, 109.71042601980412 18.021674793848334 M110.81199703466841 16.329365901781536 C110.49138263424119 16.821915717858975, 110.17076823381397 17.31446553393641, 109.71042601980412 18.021674793848334 M109.71042601980412 18.021674793848334 C109.37986266957735 18.464599568211483, 109.04929931935057 18.907524342574636, 108.50269169774295 19.639928758550102 M109.71042601980412 18.021674793848334 C109.34176375193178 18.515648646973737, 108.97310148405944 19.00962250009914, 108.50269169774295 19.639928758550102 M108.50269169774295 19.639928758550102 C108.12885853383217 20.079054464589326, 107.7550253699214 20.518180170628547, 107.19375690787246 21.177478043231467 M108.50269169774295 19.639928758550102 C107.98043979192225 20.25339556410238, 107.45818788610156 20.86686236965466, 107.19375690787246 21.177478043231467 M107.19375690787246 21.177478043231467 C106.7083753245974 21.678674378532058, 106.22299374132236 22.179870713832653, 105.78900034400982 22.628004528078414 M107.19375690787246 21.177478043231467 C106.66995582862594 21.71834566242188, 106.14615474937942 22.25921328161229, 105.78900034400982 22.628004528078414 M105.78900034400982 22.628004528078414 C105.33023171735505 23.044646056453576, 104.87146309070029 23.461287584828735, 104.29419445219536 23.985547688627715 M105.78900034400982 22.628004528078414 C105.34102023913053 23.034848206425732, 104.89304013425124 23.44169188477305, 104.29419445219536 23.985547688627715 M104.29419445219536 23.985547688627715 C103.78700868083246 24.39001484450942, 103.27982290946957 24.794482000391124, 102.71548171047331 25.24452908884063 M104.29419445219536 23.985547688627715 C103.71143408597044 24.450283572787452, 103.12867371974552 24.915019456947192, 102.71548171047331 25.24452908884063 M102.71548171047331 25.24452908884063 C102.0954051184436 25.677067676757524, 101.47532852641386 26.109606264674415, 101.05934938813229 26.399775304092973 M102.71548171047331 25.24452908884063 C102.33230449809706 25.511816924720122, 101.9491272857208 25.779104760599612, 101.05934938813229 26.399775304092973 M101.05934938813229 26.399775304092973 C100.6768207111004 26.631666436097728, 100.29429203406853 26.863557568102486, 99.33260288812404 27.446539179886766 M101.05934938813229 26.399775304092973 C100.70000230288146 26.617613618929905, 100.34065521763061 26.83545193376684, 99.33260288812404 27.446539179886766 M99.33260288812404 27.446539179886766 C98.90611442402349 27.669037938429128, 98.47962595992293 27.89153669697149, 97.54233778220309 28.3805193389262 M99.33260288812404 27.446539179886766 C98.87297681939266 27.686325805539383, 98.41335075066128 27.926112431191996, 97.54233778220309 28.3805193389262 M97.54233778220309 28.3805193389262 C96.85782020746649 28.683534963769695, 96.17330263272987 28.98655058861319, 95.6959106537003 29.197877856399682 M97.54233778220309 28.3805193389262 C96.91522083518134 28.658125408609447, 96.28810388815961 28.9357314782927, 95.6959106537003 29.197877856399682 M95.6959106537003 29.197877856399682 C95.19022506793955 29.38397482646595, 94.6845394821788 29.570071796532215, 93.80090886774407 29.895256030836055 M95.6959106537003 29.197877856399682 C95.05196617322062 29.43485537777373, 94.40802169274093 29.671832899147777, 93.80090886774407 29.895256030836055 M93.80090886774407 29.895256030836055 C93.23504638860899 30.063201044370583, 92.66918390947392 30.231146057905107, 91.86511939314951 30.46978818572942 M93.80090886774407 29.895256030836055 C93.16154169901445 30.085016850408255, 92.52217453028481 30.274777669980455, 91.86511939314951 30.46978818572942 M91.86511939314951 30.46978818572942 C91.19470231339291 30.622806509303565, 90.5242852336363 30.77582483287771, 89.89649680409323 30.919113445218557 M91.86511939314951 30.46978818572942 C91.23227979625071 30.614229694057265, 90.59944019935192 30.758671202385106, 89.89649680409323 30.919113445218557 M89.89649680409323 30.919113445218557 C89.36120202620401 31.005655753634684, 88.82590724831479 31.09219806205081, 87.90313059306196 31.24138543543225 M89.89649680409323 30.919113445218557 C89.33401923172451 31.01005045704041, 88.7715416593558 31.10098746886226, 87.90313059306196 31.24138543543225 M87.90313059306196 31.24138543543225 C87.29514248136192 31.30003731735527, 86.68715436966188 31.358689199278285, 85.89321192939245 31.435279871635593 M87.90313059306196 31.24138543543225 C87.18650820249768 31.310517135585467, 86.4698858119334 31.37964883573868, 85.89321192939245 31.435279871635593 M85.89321192939245 31.435279871635593 C85.16575724765096 31.458607927374402, 84.43830256590945 31.481935983113214, 83.875 31.5 M85.89321192939245 31.435279871635593 C85.42334422963326 31.450347614224874, 84.95347652987408 31.465415356814155, 83.875 31.5 M83.875 31.5 C83.875 31.5, 83.875 31.5, 83.875 31.5 M83.875 31.5 C83.875 31.5, 83.875 31.5, 83.875 31.5 M83.875 31.5 C25.936279981078016 31.5, -32.00244003784397 31.5, -83.875 31.5 M83.875 31.5 C28.589854771424136 31.5, -26.695290457151728 31.5, -83.875 31.5 M-83.875 31.5 C-84.28475443408291 31.486859972837582, -84.69450886816584 31.473719945675164, -85.89321192939244 31.435279871635593 M-83.875 31.5 C-84.63789114085796 31.475535565990207, -85.40078228171592 31.451071131980417, -85.89321192939244 31.435279871635593 M-85.89321192939244 31.435279871635593 C-86.31151357002038 31.394926815445544, -86.72981521064831 31.35457375925549, -87.90313059306195 31.24138543543225 M-85.89321192939244 31.435279871635593 C-86.43585301877397 31.38293193836435, -86.97849410815549 31.330584005093105, -87.90313059306195 31.24138543543225 M-87.90313059306195 31.24138543543225 C-88.43990852667976 31.154603341899968, -88.97668646029759 31.067821248367686, -89.89649680409323 30.919113445218557 M-87.90313059306195 31.24138543543225 C-88.65051465873957 31.120554175743486, -89.3978987244172 30.99972291605472, -89.89649680409323 30.919113445218557 M-89.89649680409323 30.919113445218557 C-90.33022338290434 30.820118183935357, -90.76394996171544 30.721122922652157, -91.86511939314947 30.469788185729428 M-89.89649680409323 30.919113445218557 C-90.64900804066086 30.747357666066733, -91.40151927722849 30.57560188691491, -91.86511939314947 30.469788185729428 M-91.86511939314947 30.469788185729428 C-92.53408137282483 30.271243781614867, -93.2030433525002 30.072699377500307, -93.80090886774403 29.89525603083607 M-91.86511939314947 30.469788185729428 C-92.49968499757178 30.281452445239715, -93.1342506019941 30.093116704750003, -93.80090886774403 29.89525603083607 M-93.80090886774403 29.89525603083607 C-94.51388966143597 29.632872508035224, -95.22687045512792 29.37048898523438, -95.69591065370028 29.197877856399685 M-93.80090886774403 29.89525603083607 C-94.30917270827668 29.708210239180616, -94.81743654880934 29.521164447525162, -95.69591065370028 29.197877856399685 M-95.69591065370028 29.197877856399685 C-96.3358767205476 28.914583862525255, -96.97584278739491 28.63128986865082, -97.54233778220308 28.380519338926206 M-95.69591065370028 29.197877856399685 C-96.221432563474 28.965244895996438, -96.7469544732477 28.73261193559319, -97.54233778220308 28.380519338926206 M-97.54233778220308 28.380519338926206 C-98.05908244417587 28.11093397976575, -98.57582710614868 27.841348620605295, -99.33260288812403 27.446539179886773 M-97.54233778220308 28.380519338926206 C-98.20297983696707 28.035862802117258, -98.86362189173107 27.691206265308313, -99.33260288812403 27.446539179886773 M-99.33260288812403 27.446539179886773 C-99.98414873252736 27.051568260101092, -100.63569457693069 26.65659734031541, -101.05934938813226 26.399775304092994 M-99.33260288812403 27.446539179886773 C-99.95718640714414 27.06791298019661, -100.58176992616426 26.689286780506446, -101.05934938813226 26.399775304092994 M-101.05934938813226 26.399775304092994 C-101.62060330485936 26.008268868074644, -102.18185722158644 25.61676243205629, -102.7154817104733 25.244529088840636 M-101.05934938813226 26.399775304092994 C-101.45194330091013 26.125918785655724, -101.844537213688 25.852062267218454, -102.7154817104733 25.244529088840636 M-102.7154817104733 25.244529088840636 C-103.33483957216228 24.75060767594857, -103.95419743385125 24.2566862630565, -104.29419445219533 23.98554768862774 M-102.7154817104733 25.244529088840636 C-103.28192078145274 24.792809003311255, -103.8483598524322 24.341088917781878, -104.29419445219533 23.98554768862774 M-104.29419445219533 23.98554768862774 C-104.73133457524123 23.588548594971297, -105.16847469828716 23.191549501314856, -105.7890003440098 22.628004528078435 M-104.29419445219533 23.98554768862774 C-104.62839436452155 23.682036170698197, -104.96259427684777 23.37852465276865, -105.7890003440098 22.628004528078435 M-105.7890003440098 22.628004528078435 C-106.21461354589887 22.18852395363424, -106.64022674778793 21.74904337919004, -107.19375690787244 21.177478043231478 M-105.7890003440098 22.628004528078435 C-106.31432689307213 22.0855617360598, -106.83965344213445 21.543118944041165, -107.19375690787244 21.177478043231478 M-107.19375690787244 21.177478043231478 C-107.61229715397238 20.685836854547812, -108.03083740007233 20.19419566586415, -108.50269169774293 19.639928758550113 M-107.19375690787244 21.177478043231478 C-107.47313046691363 20.849309963975845, -107.75250402595483 20.52114188472021, -108.50269169774293 19.639928758550113 M-108.50269169774293 19.639928758550113 C-108.88330443035107 19.129942371388477, -109.2639171629592 18.619955984226838, -109.7104260198041 18.021674793848355 M-108.50269169774293 19.639928758550113 C-108.96550243884654 19.019804528397167, -109.42831317995015 18.39968029824422, -109.7104260198041 18.021674793848355 M-109.7104260198041 18.021674793848355 C-110.13639778493706 17.367267773169154, -110.56236955007003 16.712860752489956, -110.8119970346684 16.329365901781557 M-109.7104260198041 18.021674793848355 C-109.93394888565467 17.678283647608207, -110.15747175150524 17.334892501368056, -110.8119970346684 16.329365901781557 M-110.8119970346684 16.329365901781557 C-111.19190124574504 15.654807505542122, -111.57180545682168 14.980249109302687, -111.8028781507495 14.569956142586314 M-110.8119970346684 16.329365901781557 C-111.06180372975679 15.885808818981264, -111.31161042484518 15.442251736180973, -111.8028781507495 14.569956142586314 M-111.8028781507495 14.569956142586314 C-112.09002650362983 13.97368644383981, -112.37717485651017 13.377416745093306, -112.67899762499809 12.750675308355417 M-111.8028781507495 14.569956142586314 C-112.0867678217108 13.980453166569331, -112.37065749267207 13.39095019055235, -112.67899762499809 12.750675308355417 M-112.67899762499809 12.750675308355417 C-112.94548827701445 12.092438245628747, -113.21197892903082 11.434201182902079, -113.43675529456745 10.878999214271209 M-112.67899762499809 12.750675308355417 C-112.96978983628155 12.03241292440034, -113.26058204756501 11.314150540445265, -113.43675529456745 10.878999214271209 M-113.43675529456745 10.878999214271209 C-113.61060260361408 10.355398818229874, -113.78444991266072 9.83179842218854, -114.07303737065482 8.962618978877522 M-113.43675529456745 10.878999214271209 C-113.58679472433822 10.427104357338347, -113.73683415410899 9.975209500405487, -114.07303737065482 8.962618978877522 M-114.07303737065482 8.962618978877522 C-114.18073058586646 8.551938074740809, -114.2884238010781 8.141257170604096, -114.58522923372743 7.009409419623911 M-114.07303737065482 8.962618978877522 C-114.22293442042461 8.390996562312985, -114.37283147019438 7.819374145748447, -114.58522923372743 7.009409419623911 M-114.58522923372743 7.009409419623911 C-114.72428940890443 6.29536481046848, -114.86334958408143 5.581320201313049, -114.97122617755518 5.027396693551461 M-114.58522923372743 7.009409419623911 C-114.66946969919687 6.576852433667079, -114.7537101646663 6.144295447710247, -114.97122617755518 5.027396693551461 M-114.97122617755518 5.027396693551461 C-115.06717158632159 4.28326304972309, -115.16311699508802 3.5391294058947196, -115.22944205789975 3.024725316091999 M-114.97122617755518 5.027396693551461 C-115.04972970957405 4.418538801488902, -115.12823324159292 3.8096809094263424, -115.22944205789975 3.024725316091999 M-115.22944205789975 3.024725316091999 C-115.25822834301019 2.576355689625766, -115.28701462812063 2.1279860631595335, -115.35881581032167 1.0096246935071416 M-115.22944205789975 3.024725316091999 C-115.27579673892332 2.302713742324699, -115.3221514199469 1.580702168557399, -115.35881581032167 1.0096246935071416 M-115.35881581032167 1.0096246935071416 C-115.35881581032167 0.6046400280528137, -115.35881581032167 0.1996553625984857, -115.35881581032167 -1.0096246935071262 M-115.35881581032167 1.0096246935071416 C-115.35881581032167 0.5392840686111393, -115.35881581032167 0.06894344371513705, -115.35881581032167 -1.0096246935071262 M-115.35881581032167 -1.0096246935071262 C-115.32009880529917 -1.6126732985366443, -115.28138180027666 -2.2157219035661626, -115.22944205789975 -3.024725316091956 M-115.35881581032167 -1.0096246935071262 C-115.31426786828982 -1.7034948491049153, -115.26971992625795 -2.3973650047027046, -115.22944205789975 -3.024725316091956 M-115.22944205789975 -3.024725316091956 C-115.13104733845636 -3.787855329859859, -115.03265261901296 -4.550985343627762, -114.97122617755518 -5.027396693551446 M-115.22944205789975 -3.024725316091956 C-115.16089938978345 -3.556328714721152, -115.09235672166716 -4.087932113350348, -114.97122617755518 -5.027396693551446 M-114.97122617755518 -5.027396693551446 C-114.81925380689724 -5.8077426975080675, -114.66728143623929 -6.588088701464689, -114.58522923372745 -7.009409419623896 M-114.97122617755518 -5.027396693551446 C-114.82482172106597 -5.779152635030705, -114.67841726457677 -6.5309085765099635, -114.58522923372745 -7.009409419623896 M-114.58522923372745 -7.009409419623896 C-114.39498055263986 -7.734910094910835, -114.20473187155227 -8.460410770197774, -114.07303737065482 -8.962618978877506 M-114.58522923372745 -7.009409419623896 C-114.40352891877545 -7.70231146995051, -114.22182860382345 -8.395213520277125, -114.07303737065482 -8.962618978877506 M-114.07303737065482 -8.962618978877506 C-113.89438918513838 -9.500678849930107, -113.71574099962194 -10.038738720982709, -113.43675529456746 -10.878999214271168 M-114.07303737065482 -8.962618978877506 C-113.89004806277336 -9.513753618829629, -113.7070587548919 -10.064888258781753, -113.43675529456746 -10.878999214271168 M-113.43675529456746 -10.878999214271168 C-113.28223497083395 -11.260667401340166, -113.12771464710043 -11.642335588409162, -112.67899762499809 -12.750675308355401 M-113.43675529456746 -10.878999214271168 C-113.17785166580917 -11.518496182865277, -112.91894803705088 -12.157993151459387, -112.67899762499809 -12.750675308355401 M-112.67899762499809 -12.750675308355401 C-112.43800740592233 -13.251096654630873, -112.19701718684657 -13.751518000906342, -111.8028781507495 -14.5699561425863 M-112.67899762499809 -12.750675308355401 C-112.40401413926276 -13.321684400188856, -112.12903065352744 -13.892693492022312, -111.8028781507495 -14.5699561425863 M-111.8028781507495 -14.5699561425863 C-111.50411098034003 -15.100447507104903, -111.20534380993055 -15.630938871623508, -110.8119970346684 -16.329365901781546 M-111.8028781507495 -14.5699561425863 C-111.44332540121164 -15.208378458054685, -111.08377265167378 -15.846800773523071, -110.8119970346684 -16.329365901781546 M-110.8119970346684 -16.329365901781546 C-110.44108374045699 -16.89918832585567, -110.07017044624558 -17.469010749929787, -109.71042601980412 -18.021674793848344 M-110.8119970346684 -16.329365901781546 C-110.5836700567981 -16.6801374541687, -110.3553430789278 -17.03090900655586, -109.71042601980412 -18.021674793848344 M-109.71042601980412 -18.021674793848344 C-109.3138915305607 -18.552994884399396, -108.91735704131727 -19.084314974950445, -108.50269169774295 -19.639928758550102 M-109.71042601980412 -18.021674793848344 C-109.320217208496 -18.5445190522472, -108.93000839718789 -19.067363310646055, -108.50269169774295 -19.639928758550102 M-108.50269169774295 -19.639928758550102 C-108.14181075755471 -20.063840045602436, -107.78092981736646 -20.487751332654767, -107.19375690787246 -21.177478043231467 M-108.50269169774295 -19.639928758550102 C-108.09198884701046 -20.122363696674732, -107.68128599627795 -20.604798634799366, -107.19375690787246 -21.177478043231467 M-107.19375690787246 -21.177478043231467 C-106.64336553128801 -21.7458023275273, -106.09297415470357 -22.314126611823134, -105.78900034400984 -22.628004528078403 M-107.19375690787246 -21.177478043231467 C-106.6361827999356 -21.753219087361874, -106.07860869199875 -22.328960131492284, -105.78900034400984 -22.628004528078403 M-105.78900034400984 -22.628004528078403 C-105.25219932750817 -23.115513008288623, -104.7153983110065 -23.603021488498843, -104.29419445219536 -23.98554768862771 M-105.78900034400984 -22.628004528078403 C-105.29196025038281 -23.079403190150234, -104.7949201567558 -23.530801852222066, -104.29419445219536 -23.98554768862771 M-104.29419445219536 -23.98554768862771 C-103.74413537993759 -24.42420516106663, -103.19407630767981 -24.86286263350555, -102.71548171047331 -25.244529088840626 M-104.29419445219536 -23.98554768862771 C-103.67372176239694 -24.480358147270234, -103.05324907259853 -24.975168605912756, -102.71548171047331 -25.244529088840626 M-102.71548171047331 -25.244529088840626 C-102.09879068541922 -25.674706051794153, -101.48209966036514 -26.104883014747678, -101.0593493881323 -26.39977530409297 M-102.71548171047331 -25.244529088840626 C-102.32573267209472 -25.516401146049596, -101.9359836337161 -25.788273203258566, -101.0593493881323 -26.39977530409297 M-101.0593493881323 -26.39977530409297 C-100.59098450389001 -26.68370084933822, -100.12261961964772 -26.96762639458347, -99.33260288812404 -27.446539179886763 M-101.0593493881323 -26.39977530409297 C-100.4498372918464 -26.76926511875214, -99.84032519556051 -27.138754933411317, -99.33260288812404 -27.446539179886763 M-99.33260288812404 -27.446539179886763 C-98.79346681950834 -27.727806121550444, -98.25433075089263 -28.009073063214124, -97.54233778220309 -28.3805193389262 M-99.33260288812404 -27.446539179886763 C-98.75182635458242 -27.749529925430306, -98.1710498210408 -28.052520670973845, -97.54233778220309 -28.3805193389262 M-97.54233778220309 -28.3805193389262 C-96.8183185682239 -28.70102116768789, -96.09429935424471 -29.02152299644958, -95.6959106537003 -29.19787785639968 M-97.54233778220309 -28.3805193389262 C-96.99043957990827 -28.62482830160362, -96.43854137761345 -28.869137264281047, -95.6959106537003 -29.19787785639968 M-95.6959106537003 -29.19787785639968 C-94.94094930510595 -29.475710611468607, -94.18598795651158 -29.753543366537535, -93.80090886774407 -29.895256030836055 M-95.6959106537003 -29.19787785639968 C-95.01006750700691 -29.450274474247394, -94.32422436031352 -29.702671092095112, -93.80090886774407 -29.895256030836055 M-93.80090886774407 -29.895256030836055 C-93.02826117971169 -30.12457380893359, -92.25561349167931 -30.353891587031125, -91.86511939314951 -30.469788185729417 M-93.80090886774407 -29.895256030836055 C-93.05896588430043 -30.115460813783933, -92.3170229008568 -30.33566559673181, -91.86511939314951 -30.469788185729417 M-91.86511939314951 -30.469788185729417 C-91.23167595302549 -30.614367517332973, -90.59823251290146 -30.75894684893653, -89.89649680409325 -30.919113445218553 M-91.86511939314951 -30.469788185729417 C-91.13483501044158 -30.636470830531543, -90.40455062773364 -30.80315347533367, -89.89649680409325 -30.919113445218553 M-89.89649680409325 -30.919113445218553 C-89.32546267789492 -31.01143381430651, -88.75442855169659 -31.10375418339447, -87.90313059306196 -31.24138543543225 M-89.89649680409325 -30.919113445218553 C-89.41874490531082 -30.996352667192387, -88.94099300652839 -31.073591889166224, -87.90313059306196 -31.24138543543225 M-87.90313059306196 -31.24138543543225 C-87.44953681952487 -31.285143081239045, -86.99594304598777 -31.328900727045845, -85.89321192939246 -31.435279871635593 M-87.90313059306196 -31.24138543543225 C-87.3633457911108 -31.293457826090275, -86.82356098915966 -31.345530216748298, -85.89321192939246 -31.435279871635593 M-85.89321192939246 -31.435279871635593 C-85.17092014381618 -31.45844236334335, -84.44862835823987 -31.481604855051113, -83.87500000000001 -31.5 M-85.89321192939246 -31.435279871635593 C-85.45432407295145 -31.449354150948267, -85.01543621651044 -31.463428430260944, -83.87500000000001 -31.5 M-83.87500000000001 -31.5 C-83.87500000000001 -31.5, -83.87500000000001 -31.5, -83.875 -31.5 M-83.87500000000001 -31.5 C-83.87500000000001 -31.5, -83.87500000000001 -31.5, -83.875 -31.5" stroke="#22c55e" stroke-width="2" fill="none" stroke-dasharray="0 0" style="fill:#bbf7d0 !important;stroke:#22c55e !important;stroke-width:2px !important"/></g><g class="label" style="color:#0f172a !important" transform="translate(-100, -24)"><rect/><text x="100.00" y="24.00" text-anchor="middle" dominant-baseline="middle" font-family="Arial, sans-serif" font-size="14" fill="#333">Notes Committed — Ready for Preflight</text></g></g></g></g></g></svg>